<svg xmlns="http://www.w3.org/2000/svg" width="220.923" height="619.73" viewBox="0 0 220.923 619.73">
  <g id="Group_56" data-name="Group 56" transform="translate(-5108.093 -1794)">
    <path id="Path_485" data-name="Path 485" d="M465.909,553.455l4,28,20-2-2-29Z" transform="translate(4800 1794.003)" fill="#ffb8b8"/>
    <path id="Path_486" data-name="Path 486" d="M370.909,553.455l-4,28-20-2,2-29Z" transform="translate(4800 1794.003)" fill="#ffb8b8"/>
    <path id="Path_487" data-name="Path 487" d="M462.268,370.478s-18,21-14,54,11,108,11,108l5,133,32-2,5-113,16-91,43,106s21,99,22,99,30-3,30-3l-14-117s-22-170-35-173S462.268,370.478,462.268,370.478Z" transform="translate(4679.641 1686.98)" fill="#2f2e41"/>
    <path id="Path_490" data-name="Path 490" d="M486.768,175.978s9,25,2,39,11,30,11,30,47-24,41-36-16-28-14-38Z" transform="translate(4679.641 1686.98)" fill="#ffb8b8"/>
    <circle id="Ellipse_125" data-name="Ellipse 125" cx="32" cy="32" r="32" transform="translate(5151.909 1808.458)" fill="#ffb8b8"/>
    <path id="Path_491" data-name="Path 491" d="M481.268,213.478s32.108,26.718,56.054-11.141l24.946,14.141,13,152s-73,42-108,6l5-141Z" transform="translate(4679.641 1686.98)" fill="#d0cde1"/>
    <path id="Path_492" data-name="Path 492" d="M370.992,91.488l-45.083,29.967,16,74-21,115,34-51Z" transform="translate(4800 1794.003)" fill="#575a89"/>
    <path id="Path_493" data-name="Path 493" d="M531.2,190.169l11.073,7.308,45,16-7,124,19,80-27,14s-5-38-36-57S524.122,195.861,531.2,190.169Z" transform="translate(4679.641 1686.98)" fill="#575a89"/>
    <path id="Path_494" data-name="Path 494" d="M456.268,384.478l13,9s-16.5,17.5-19.5,14.5a8.2,8.2,0,0,1-2.5-6.5l-3-7Z" transform="translate(4679.641 1686.98)" fill="#ffb8b8"/>
    <path id="Path_495" data-name="Path 495" d="M542.688,382.532l-4.42,6.945s-13,6-10,10,28,13,33,4l5-9Z" transform="translate(4679.641 1686.98)" fill="#ffb8b8"/>
    <path id="Path_496" data-name="Path 496" d="M452.268,227.478l-7,1-11.5,74.5s-4.5,13.5.5,45.5,9.951,52.838,9.951,52.838l22.049-15.838-10-26,13-95Z" transform="translate(4679.641 1686.98)" fill="#575a89"/>
    <path id="Path_497" data-name="Path 497" d="M571.268,211.478l16,2s18,19,21,39,2,77,2,77l-46,73-25-18,35-62-17-74Z" transform="translate(4679.641 1686.98)" fill="#575a89"/>
    <path id="Path_498" data-name="Path 498" d="M534.783,124.535a37.383,37.383,0,0,0-21.265-16.257l-6.5,5.2,2.528-6.067a34.414,34.414,0,0,0-6.426-.371l-5.85,7.521,2.421-7.264a37.026,37.026,0,0,0-25.543,15.193c-7.445,10.736-8.7,25.665-1.379,36.485,2.01-6.178,4.45-11.974,6.46-18.152a18.284,18.284,0,0,0,4.763.023l2.446-5.707.683,5.465c7.58-.66,18.824-2.11,26.011-3.439l-.7-4.193,4.181,3.484c2.2-.507,3.509-.967,3.4-1.318,5.345,8.616,10.641,14.12,15.985,22.736C538.028,145.725,541.609,135.622,534.783,124.535Z" transform="translate(4679.641 1686.98)" fill="#2f2e41"/>
    <ellipse id="Ellipse_126" data-name="Ellipse 126" cx="2.166" cy="4.332" rx="2.166" ry="4.332" transform="translate(5210.486 1835.12)" fill="#ffb8b8"/>
    <path id="Path_527" data-name="Path 527" d="M328.83,651.722l-2.342,20.632s20,8,20,9,32,16,34,3-16-24-16-24-19.189-22.719-22.595-21.86-3.405,6.86-3.405,6.86Z" transform="translate(4792.843 1821.572) rotate(-14)" fill="#2f2e41"/>
    <path id="Path_528" data-name="Path 528" d="M2.342,37.906,0,17.274s20-8,20-9,32-16,34-3-16,24-16,24-19.19,22.719-22.595,21.86S12,44.274,12,44.274Z" transform="translate(5160.64 2413.73) rotate(-166)" fill="#2f2e41"/>
  </g>
</svg>
