<svg xmlns="http://www.w3.org/2000/svg" width="40" height="40" viewBox="0 0 40 40">
  <path id="Path_1805" data-name="Path 1805" d="M5051.717,3752.106l3.619-3.6a2.615,2.615,0,0,1,3.707.278c1.8,1.931,6.3,6.426,6.3,6.426s2.317,1.8,0,4.38a14.44,14.44,0,0,1-5.393,3.634s-4.529,1.9-13.166-3.01-15-13.66-15-13.66-5.6-6.17-5.4-14.293a10,10,0,0,1,4.629-8.116s2.175-1.258,3.5,0,6.745,6.826,6.745,6.826a3.433,3.433,0,0,1,0,3.954,26.424,26.424,0,0,1-3.408,3.435S5042.454,3748.3,5051.717,3752.106Z" transform="translate(-5026.375 -3723.579)" fill="#5c40d3"/>
</svg>
