<svg xmlns="http://www.w3.org/2000/svg" width="88.489" height="79.674" viewBox="0 0 88.489 79.674">
  <g id="Group_336" data-name="Group 336" transform="translate(3.837 3.85)">
    <ellipse id="Ellipse_245" data-name="Ellipse 245" cx="20.212" cy="19.808" rx="20.212" ry="19.808" transform="translate(20.5 22.532)" fill="#5c40d3"/>
    <path id="Path_1799" data-name="Path 1799" d="M5282.077,3380.254v5.761H5302.3v-5.761Z" transform="translate(-5251.241 -3320.683)" fill="#5c40d3"/>
    <path id="Path_1800" data-name="Path 1800" d="M5282.077,3404.629v3.444s1.277,2.052,5.253,2.629c-.011-.024.587,4.419,4.763,4.419,3.484,0,4.415-4.419,4.415-4.419s4.271-.293,5.686-2.665c.052-.55,0-3.444,0-3.444Z" transform="translate(-5251.241 -3339.298)" fill="#2f2e41"/>
    <line id="Line_32" data-name="Line 32" x2="9" y2="6" transform="translate(70.407 9.768) rotate(104)" fill="none" stroke="#5c40d3" stroke-linecap="round" stroke-width="4"/>
    <line id="Line_33" data-name="Line 33" x2="9" y2="6" transform="translate(12.767 8.409) rotate(14)" fill="none" stroke="#5c40d3" stroke-linecap="round" stroke-width="4"/>
    <line id="Line_38" data-name="Line 38" x2="9" y2="6" transform="translate(40.379 0) rotate(56)" fill="none" stroke="#5c40d3" stroke-linecap="round" stroke-width="4"/>
    <line id="Line_34" data-name="Line 34" x2="9" y2="6" transform="matrix(0.839, -0.545, 0.545, 0.839, 0, 36.343)" fill="none" stroke="#5c40d3" stroke-linecap="round" stroke-width="4"/>
    <line id="Line_39" data-name="Line 39" x2="9" y2="6" transform="matrix(0.839, -0.545, 0.545, 0.839, 70, 36.343)" fill="none" stroke="#5c40d3" stroke-linecap="round" stroke-width="4"/>
  </g>
</svg>
