<svg id="Laag_1" data-name="Laag 1" xmlns="http://www.w3.org/2000/svg" viewBox="0 0 1510 1245"><defs><style>.cls-1{fill:#d2bce6;}.cls-2{fill:#c8b3dc;}.cls-3{fill:#b38ed8;}.cls-4{fill:#541295;}.cls-5{fill:#a27fc5;}.cls-6{fill:#dfc1fd;}.cls-7{fill:#ecdafd;}</style></defs><title>illustrations-scaled</title><rect id="Rectangle_430" data-name="Rectangle 430" class="cls-1" x="18.18" y="97.4" width="1464.87" height="1125.16"/><rect id="Rectangle_567" data-name="Rectangle 567" class="cls-2" y="637.19" width="1510" height="19.27"/><rect id="Rectangle_568" data-name="Rectangle 568" class="cls-2" y="362.39" width="1510" height="19.27"/><rect id="Rectangle_296" data-name="Rectangle 296" class="cls-2" y="78.94" width="1510" height="19.27"/><path id="Path_1730" data-name="Path 1730" class="cls-3" d="M1482.52,364.5v291H750.61V362.39l630.75,1.82Z"/><rect id="Rectangle_439" data-name="Rectangle 439" class="cls-4" x="750.83" y="362.39" width="759.17" height="19.27"/><rect id="Rectangle_566" data-name="Rectangle 566" class="cls-4" x="750.83" y="637.19" width="759.17" height="19.27"/><rect id="Rectangle_482" data-name="Rectangle 482" class="cls-2" y="929.3" width="1510" height="19.27"/><rect id="Rectangle_493" data-name="Rectangle 493" class="cls-5" y="1212.75" width="1510" height="19.27"/><rect id="Rectangle_431" data-name="Rectangle 431" class="cls-2" y="1212.75" width="1510" height="32.25"/><rect id="Rectangle_465" data-name="Rectangle 465" class="cls-6" x="834.82" y="458.22" width="157.28" height="88.99"/><rect id="Rectangle_440" data-name="Rectangle 440" class="cls-7" x="94.81" y="174.77" width="157.28" height="88.99"/><rect id="Rectangle_507" data-name="Rectangle 507" class="cls-7" x="94.81" y="741.68" width="157.28" height="88.99"/><rect id="Rectangle_560" data-name="Rectangle 560" class="cls-7" x="94.81" y="458.22" width="157.28" height="88.99"/><rect id="Rectangle_531" data-name="Rectangle 531" class="cls-7" x="94.81" y="1025.13" width="157.28" height="88.99"/><rect id="Rectangle_497" data-name="Rectangle 497" class="cls-7" x="832.66" y="174.77" width="157.28" height="88.99"/><rect id="Rectangle_518" data-name="Rectangle 518" class="cls-7" x="832.66" y="741.68" width="157.28" height="88.99"/><rect id="Rectangle_542" data-name="Rectangle 542" class="cls-7" x="832.66" y="1025.13" width="157.28" height="88.99"/><rect id="Rectangle_472" data-name="Rectangle 472" class="cls-6" x="1248.1" y="458.22" width="157.28" height="88.99"/><rect id="Rectangle_448" data-name="Rectangle 448" class="cls-7" x="508.09" y="174.77" width="157.28" height="88.99"/><rect id="Rectangle_508" data-name="Rectangle 508" class="cls-7" x="508.09" y="741.68" width="157.28" height="88.99"/><rect id="Rectangle_554" data-name="Rectangle 554" class="cls-7" x="508.09" y="458.22" width="157.28" height="88.99"/><rect id="Rectangle_532" data-name="Rectangle 532" class="cls-7" x="508.09" y="1025.13" width="157.28" height="88.99"/><rect id="Rectangle_494" data-name="Rectangle 494" class="cls-7" x="1245.93" y="174.77" width="157.28" height="88.99"/><rect id="Rectangle_527" data-name="Rectangle 527" class="cls-7" x="1245.93" y="741.68" width="157.28" height="88.99"/><rect id="Rectangle_551" data-name="Rectangle 551" class="cls-7" x="1245.93" y="1025.13" width="157.28" height="88.99"/><rect id="Rectangle_466" data-name="Rectangle 466" class="cls-5" x="826.37" y="445.12" width="178.5" height="13.11"/><rect id="Rectangle_441" data-name="Rectangle 441" class="cls-2" x="86.37" y="161.66" width="178.5" height="13.11"/><rect id="Rectangle_506" data-name="Rectangle 506" class="cls-2" x="86.37" y="728.57" width="178.5" height="13.11"/><rect id="Rectangle_563" data-name="Rectangle 563" class="cls-2" x="86.37" y="445.12" width="178.5" height="13.11"/><rect id="Rectangle_530" data-name="Rectangle 530" class="cls-2" x="86.37" y="1012.02" width="178.5" height="13.11"/><rect id="Rectangle_498" data-name="Rectangle 498" class="cls-2" x="824.21" y="161.66" width="178.5" height="13.11"/><rect id="Rectangle_519" data-name="Rectangle 519" class="cls-2" x="824.21" y="728.57" width="178.5" height="13.11"/><rect id="Rectangle_543" data-name="Rectangle 543" class="cls-2" x="824.21" y="1012.02" width="178.5" height="13.11"/><rect id="Rectangle_473" data-name="Rectangle 473" class="cls-5" x="1239.65" y="445.12" width="178.5" height="13.11"/><rect id="Rectangle_449" data-name="Rectangle 449" class="cls-2" x="499.65" y="161.66" width="178.5" height="13.11"/><rect id="Rectangle_509" data-name="Rectangle 509" class="cls-2" x="499.65" y="728.57" width="178.5" height="13.11"/><rect id="Rectangle_564" data-name="Rectangle 564" class="cls-2" x="499.65" y="445.12" width="178.5" height="13.11"/><rect id="Rectangle_533" data-name="Rectangle 533" class="cls-2" x="499.65" y="1012.02" width="178.5" height="13.11"/><rect id="Rectangle_499" data-name="Rectangle 499" class="cls-2" x="1237.49" y="161.66" width="178.5" height="13.11"/><rect id="Rectangle_525" data-name="Rectangle 525" class="cls-2" x="1237.49" y="728.57" width="178.5" height="13.11"/><rect id="Rectangle_549" data-name="Rectangle 549" class="cls-2" x="1237.49" y="1012.02" width="178.5" height="13.11"/><rect id="Rectangle_467" data-name="Rectangle 467" class="cls-3" x="910.36" y="458.22" width="5.57" height="77.35"/><rect id="Rectangle_442" data-name="Rectangle 442" class="cls-2" x="170.36" y="174.77" width="5.57" height="77.35"/><rect id="Rectangle_510" data-name="Rectangle 510" class="cls-2" x="170.36" y="741.68" width="5.57" height="77.35"/><rect id="Rectangle_565" data-name="Rectangle 565" class="cls-2" x="170.36" y="458.22" width="5.57" height="77.35"/><rect id="Rectangle_534" data-name="Rectangle 534" class="cls-2" x="170.36" y="1025.13" width="5.57" height="77.35"/><rect id="Rectangle_505" data-name="Rectangle 505" class="cls-2" x="908.2" y="174.77" width="5.57" height="77.35"/><rect id="Rectangle_522" data-name="Rectangle 522" class="cls-2" x="908.2" y="741.68" width="5.57" height="77.35"/><rect id="Rectangle_546" data-name="Rectangle 546" class="cls-2" x="908.2" y="1025.13" width="5.57" height="77.35"/><rect id="Rectangle_476" data-name="Rectangle 476" class="cls-3" x="1323.64" y="458.22" width="5.57" height="77.35"/><rect id="Rectangle_451" data-name="Rectangle 451" class="cls-2" x="583.63" y="174.77" width="5.57" height="77.35"/><rect id="Rectangle_511" data-name="Rectangle 511" class="cls-2" x="583.63" y="741.68" width="5.57" height="77.35"/><rect id="Rectangle_558" data-name="Rectangle 558" class="cls-2" x="583.63" y="458.22" width="5.57" height="77.35"/><rect id="Rectangle_535" data-name="Rectangle 535" class="cls-2" x="583.63" y="1025.13" width="5.57" height="77.35"/><rect id="Rectangle_496" data-name="Rectangle 496" class="cls-2" x="1321.48" y="174.77" width="5.57" height="77.35"/><rect id="Rectangle_529" data-name="Rectangle 529" class="cls-2" x="1321.48" y="741.68" width="5.57" height="77.35"/><rect id="Rectangle_553" data-name="Rectangle 553" class="cls-2" x="1321.48" y="1025.13" width="5.57" height="77.35"/><path id="Rectangle_468" data-name="Rectangle 468" class="cls-5" d="M826.19,535.58h174.49a6.8,6.8,0,0,1,6.8,6.79h0a6.8,6.8,0,0,1-6.8,6.8H826.19a6.79,6.79,0,0,1-6.8-6.8h0A6.79,6.79,0,0,1,826.19,535.58Z"/><path id="Rectangle_444" data-name="Rectangle 444" class="cls-2" d="M86.18,252.12H260.67a6.8,6.8,0,0,1,6.8,6.8h0a6.8,6.8,0,0,1-6.8,6.8H86.18a6.81,6.81,0,0,1-6.8-6.8h0A6.81,6.81,0,0,1,86.18,252.12Z"/><path id="Rectangle_512" data-name="Rectangle 512" class="cls-2" d="M86.18,819H260.67a6.79,6.79,0,0,1,6.8,6.8h0a6.79,6.79,0,0,1-6.8,6.79H86.18a6.8,6.8,0,0,1-6.8-6.79h0A6.8,6.8,0,0,1,86.18,819Z"/><path id="Rectangle_559" data-name="Rectangle 559" class="cls-2" d="M86.18,535.58H260.67a6.79,6.79,0,0,1,6.8,6.79h0a6.79,6.79,0,0,1-6.8,6.8H86.18a6.8,6.8,0,0,1-6.8-6.8h0A6.8,6.8,0,0,1,86.18,535.58Z"/><path id="Rectangle_536" data-name="Rectangle 536" class="cls-2" d="M86.18,1102.48H260.67a6.79,6.79,0,0,1,6.8,6.8h0a6.79,6.79,0,0,1-6.8,6.79H86.18a6.8,6.8,0,0,1-6.8-6.79h0A6.8,6.8,0,0,1,86.18,1102.48Z"/><path id="Rectangle_500" data-name="Rectangle 500" class="cls-2" d="M824,252.12h174.5a6.8,6.8,0,0,1,6.79,6.8h0a6.8,6.8,0,0,1-6.79,6.8H824a6.8,6.8,0,0,1-6.79-6.8h0A6.8,6.8,0,0,1,824,252.12Z"/><path id="Rectangle_520" data-name="Rectangle 520" class="cls-2" d="M824,819h174.5a6.79,6.79,0,0,1,6.79,6.8h0a6.79,6.79,0,0,1-6.79,6.79H824a6.79,6.79,0,0,1-6.79-6.79h0A6.79,6.79,0,0,1,824,819Z"/><path id="Rectangle_544" data-name="Rectangle 544" class="cls-2" d="M824,1102.48h174.5a6.79,6.79,0,0,1,6.79,6.8h0a6.79,6.79,0,0,1-6.79,6.79H824a6.79,6.79,0,0,1-6.79-6.79h0A6.79,6.79,0,0,1,824,1102.48Z"/><path id="Rectangle_474" data-name="Rectangle 474" class="cls-5" d="M1239.46,535.58H1414a6.79,6.79,0,0,1,6.79,6.79h0a6.79,6.79,0,0,1-6.79,6.8h-174.5a6.79,6.79,0,0,1-6.79-6.8h0A6.79,6.79,0,0,1,1239.46,535.58Z"/><path id="Rectangle_447" data-name="Rectangle 447" class="cls-2" d="M499.46,252.12H674a6.81,6.81,0,0,1,6.8,6.8h0a6.81,6.81,0,0,1-6.8,6.8H499.46a6.81,6.81,0,0,1-6.8-6.8h0A6.81,6.81,0,0,1,499.46,252.12Z"/><path id="Rectangle_513" data-name="Rectangle 513" class="cls-2" d="M499.46,819H674a6.8,6.8,0,0,1,6.8,6.8h0a6.8,6.8,0,0,1-6.8,6.79H499.46a6.8,6.8,0,0,1-6.8-6.79h0A6.8,6.8,0,0,1,499.46,819Z"/><path id="Rectangle_555" data-name="Rectangle 555" class="cls-2" d="M499.46,535.58H674a6.8,6.8,0,0,1,6.8,6.79h0a6.8,6.8,0,0,1-6.8,6.8H499.46a6.8,6.8,0,0,1-6.8-6.8h0A6.8,6.8,0,0,1,499.46,535.58Z"/><path id="Rectangle_537" data-name="Rectangle 537" class="cls-2" d="M499.46,1102.48H674a6.8,6.8,0,0,1,6.8,6.8h0a6.8,6.8,0,0,1-6.8,6.79H499.46a6.8,6.8,0,0,1-6.8-6.79h0A6.8,6.8,0,0,1,499.46,1102.48Z"/><path id="Rectangle_495" data-name="Rectangle 495" class="cls-2" d="M1237.3,252.12h174.49a6.8,6.8,0,0,1,6.8,6.8h0a6.8,6.8,0,0,1-6.8,6.8H1237.3a6.81,6.81,0,0,1-6.8-6.8h0A6.81,6.81,0,0,1,1237.3,252.12Z"/><path id="Rectangle_526" data-name="Rectangle 526" class="cls-2" d="M1237.3,819h174.49a6.79,6.79,0,0,1,6.8,6.8h0a6.79,6.79,0,0,1-6.8,6.79H1237.3a6.8,6.8,0,0,1-6.8-6.79h0A6.8,6.8,0,0,1,1237.3,819Z"/><path id="Rectangle_550" data-name="Rectangle 550" class="cls-2" d="M1237.3,1102.48h174.49a6.79,6.79,0,0,1,6.8,6.8h0a6.79,6.79,0,0,1-6.8,6.79H1237.3a6.8,6.8,0,0,1-6.8-6.79h0A6.8,6.8,0,0,1,1237.3,1102.48Z"/><rect id="Rectangle_469" data-name="Rectangle 469" class="cls-3" x="834.3" y="492.36" width="158.4" height="5.57"/><rect id="Rectangle_443" data-name="Rectangle 443" class="cls-2" x="94.3" y="208.9" width="158.4" height="5.57"/><rect id="Rectangle_514" data-name="Rectangle 514" class="cls-2" x="94.3" y="775.81" width="158.4" height="5.57"/><rect id="Rectangle_561" data-name="Rectangle 561" class="cls-2" x="94.3" y="492.36" width="158.4" height="5.57"/><rect id="Rectangle_538" data-name="Rectangle 538" class="cls-2" x="94.3" y="1059.26" width="158.4" height="5.57"/><rect id="Rectangle_501" data-name="Rectangle 501" class="cls-2" x="832.14" y="208.9" width="158.4" height="5.57"/><rect id="Rectangle_521" data-name="Rectangle 521" class="cls-2" x="832.14" y="775.81" width="158.4" height="5.57"/><rect id="Rectangle_545" data-name="Rectangle 545" class="cls-2" x="832.14" y="1059.26" width="158.4" height="5.57"/><rect id="Rectangle_475" data-name="Rectangle 475" class="cls-3" x="1247.58" y="492.36" width="158.4" height="5.57"/><rect id="Rectangle_450" data-name="Rectangle 450" class="cls-2" x="507.58" y="208.9" width="158.4" height="5.57"/><rect id="Rectangle_515" data-name="Rectangle 515" class="cls-2" x="507.58" y="775.81" width="158.4" height="5.57"/><rect id="Rectangle_562" data-name="Rectangle 562" class="cls-2" x="507.58" y="492.36" width="158.4" height="5.57"/><rect id="Rectangle_539" data-name="Rectangle 539" class="cls-2" x="507.58" y="1059.26" width="158.4" height="5.57"/><rect id="Rectangle_502" data-name="Rectangle 502" class="cls-2" x="1245.42" y="208.9" width="158.4" height="5.57"/><rect id="Rectangle_528" data-name="Rectangle 528" class="cls-2" x="1245.42" y="775.81" width="158.4" height="5.57"/><rect id="Rectangle_552" data-name="Rectangle 552" class="cls-2" x="1245.42" y="1059.26" width="158.4" height="5.57"/><rect id="Rectangle_470" data-name="Rectangle 470" class="cls-5" x="1076.04" y="445.16" width="109.46" height="192.93"/><rect id="Rectangle_445" data-name="Rectangle 445" class="cls-2" x="336.03" y="161.71" width="109.46" height="201.59"/><rect id="Rectangle_471" data-name="Rectangle 471" class="cls-6" x="1086.45" y="457.47" width="88.6" height="167.09"/><rect id="Rectangle_446" data-name="Rectangle 446" class="cls-7" x="346.44" y="174.02" width="88.6" height="175.74"/><rect id="Rectangle_569" data-name="Rectangle 569" class="cls-2" x="336.03" y="436.51" width="109.46" height="201.59"/><rect id="Rectangle_571" data-name="Rectangle 571" class="cls-2" x="336.03" y="728.61" width="109.46" height="201.59"/><rect id="Rectangle_573" data-name="Rectangle 573" class="cls-2" x="336.03" y="1012.07" width="109.46" height="201.59"/><rect id="Rectangle_575" data-name="Rectangle 575" class="cls-2" x="1073.87" y="1012.07" width="109.46" height="201.59"/><rect id="Rectangle_577" data-name="Rectangle 577" class="cls-2" x="1076.04" y="728.61" width="109.46" height="201.59"/><rect id="Rectangle_570" data-name="Rectangle 570" class="cls-7" x="346.44" y="448.81" width="88.6" height="175.74"/><rect id="Rectangle_572" data-name="Rectangle 572" class="cls-7" x="346.44" y="740.92" width="88.6" height="175.74"/><rect id="Rectangle_574" data-name="Rectangle 574" class="cls-7" x="346.44" y="1024.37" width="88.6" height="175.74"/><rect id="Rectangle_576" data-name="Rectangle 576" class="cls-7" x="1084.29" y="1024.37" width="88.6" height="175.74"/><rect id="Rectangle_578" data-name="Rectangle 578" class="cls-7" x="1086.45" y="740.92" width="88.6" height="175.74"/><rect id="Rectangle_579" data-name="Rectangle 579" class="cls-2" x="1076.04" y="161.71" width="109.46" height="201.59"/><rect id="Rectangle_580" data-name="Rectangle 580" class="cls-7" x="1086.45" y="174.02" width="88.6" height="175.74"/></svg>