<svg id="Laag_1" data-name="Laag 1" xmlns="http://www.w3.org/2000/svg" viewBox="0 0 1510 1245"><defs><style>.cls-1{opacity:0.4;}.cls-2,.cls-6{fill:#f2eafa;}.cls-2{opacity:0.5;isolation:isolate;}.cls-3{fill:#5c40d3;}.cls-4{fill:#fff;}.cls-5{fill:#2f2e41;}</style></defs><title>illustrations-scaled</title><g id="Group_398" data-name="Group 398" class="cls-1"><path id="Path_1730" data-name="Path 1730" class="cls-2" d="M1482.69,135.17V424.45H755.05V133.07l627.06,1.81Z"/><rect id="Rectangle_439" data-name="Rectangle 439" class="cls-3" x="755.26" y="133.07" width="754.74" height="19.15"/><rect id="Rectangle_566" data-name="Rectangle 566" class="cls-3" x="755.26" y="406.27" width="754.74" height="19.15"/><rect id="Rectangle_465" data-name="Rectangle 465" class="cls-4" x="838.76" y="228.35" width="156.36" height="88.47"/><rect id="Rectangle_472" data-name="Rectangle 472" class="cls-4" x="1249.63" y="228.35" width="156.36" height="88.47"/><rect id="Rectangle_466" data-name="Rectangle 466" class="cls-5" x="830.36" y="215.31" width="177.45" height="13.03"/><rect id="Rectangle_473" data-name="Rectangle 473" class="cls-5" x="1241.23" y="215.31" width="177.45" height="13.03"/><rect id="Rectangle_467" data-name="Rectangle 467" class="cls-5" x="913.86" y="228.35" width="5.54" height="76.9"/><rect id="Rectangle_476" data-name="Rectangle 476" class="cls-5" x="1324.73" y="228.35" width="5.54" height="76.9"/><path id="Rectangle_468" data-name="Rectangle 468" class="cls-5" d="M830.18,305.24h173.47a6.76,6.76,0,0,1,6.76,6.76h0a6.76,6.76,0,0,1-6.76,6.76H830.18a6.76,6.76,0,0,1-6.76-6.76h0A6.76,6.76,0,0,1,830.18,305.24Z"/><path id="Rectangle_474" data-name="Rectangle 474" class="cls-5" d="M1241,305.24h173.48a6.76,6.76,0,0,1,6.75,6.76h0a6.76,6.76,0,0,1-6.75,6.76H1241a6.76,6.76,0,0,1-6.75-6.76h0A6.76,6.76,0,0,1,1241,305.24Z"/><rect id="Rectangle_469" data-name="Rectangle 469" class="cls-5" x="838.25" y="262.28" width="157.48" height="5.54"/><rect id="Rectangle_475" data-name="Rectangle 475" class="cls-5" x="1249.11" y="262.28" width="157.48" height="5.54"/><rect id="Rectangle_470" data-name="Rectangle 470" class="cls-5" x="1078.57" y="215.36" width="108.82" height="191.81"/><rect id="Rectangle_471" data-name="Rectangle 471" class="cls-4" x="1088.92" y="227.59" width="88.08" height="166.11"/></g><g id="Group_399" data-name="Group 399" class="cls-1"><path id="Path_1730-2" data-name="Path 1730-2" class="cls-6" d="M1482.69,681.55V970.83H755.05V679.46l627.06,1.81Z"/><rect id="Rectangle_439-2" data-name="Rectangle 439-2" class="cls-3" x="755.26" y="679.46" width="754.74" height="19.15"/><rect id="Rectangle_566-2" data-name="Rectangle 566-2" class="cls-3" x="755.26" y="952.65" width="754.74" height="19.15"/><rect id="Rectangle_465-2" data-name="Rectangle 465-2" class="cls-4" x="838.76" y="774.73" width="156.36" height="88.47"/><rect id="Rectangle_472-2" data-name="Rectangle 472-2" class="cls-4" x="1249.63" y="774.73" width="156.36" height="88.47"/><rect id="Rectangle_466-2" data-name="Rectangle 466-2" class="cls-5" x="830.36" y="761.7" width="177.45" height="13.03"/><rect id="Rectangle_473-2" data-name="Rectangle 473-2" class="cls-5" x="1241.23" y="761.7" width="177.45" height="13.03"/><rect id="Rectangle_467-2" data-name="Rectangle 467-2" class="cls-5" x="913.86" y="774.73" width="5.54" height="76.9"/><rect id="Rectangle_476-2" data-name="Rectangle 476-2" class="cls-5" x="1324.73" y="774.73" width="5.54" height="76.9"/><path id="Rectangle_468-2" data-name="Rectangle 468-2" class="cls-5" d="M830.18,851.63h173.47a6.76,6.76,0,0,1,6.76,6.76h0a6.76,6.76,0,0,1-6.76,6.75H830.18a6.76,6.76,0,0,1-6.76-6.75h0A6.76,6.76,0,0,1,830.18,851.63Z"/><path id="Rectangle_474-2" data-name="Rectangle 474-2" class="cls-5" d="M1241,851.63h173.48a6.76,6.76,0,0,1,6.75,6.76h0a6.75,6.75,0,0,1-6.75,6.75H1241a6.75,6.75,0,0,1-6.75-6.75h0A6.76,6.76,0,0,1,1241,851.63Z"/><rect id="Rectangle_469-2" data-name="Rectangle 469-2" class="cls-5" x="838.25" y="808.67" width="157.48" height="5.54"/><rect id="Rectangle_475-2" data-name="Rectangle 475-2" class="cls-5" x="1249.11" y="808.67" width="157.48" height="5.54"/><rect id="Rectangle_470-2" data-name="Rectangle 470-2" class="cls-5" x="1078.57" y="761.75" width="108.82" height="191.81"/><rect id="Rectangle_471-2" data-name="Rectangle 471-2" class="cls-4" x="1088.92" y="773.98" width="88.08" height="166.11"/></g><g id="Group_400" data-name="Group 400" class="cls-1"><path id="Path_1730-3" data-name="Path 1730-3" class="cls-6" d="M1482.69,954.75V1244H755.05V952.65l627.06,1.81Z"/><rect id="Rectangle_439-3" data-name="Rectangle 439-3" class="cls-3" x="755.26" y="952.65" width="754.74" height="19.15"/><rect id="Rectangle_566-3" data-name="Rectangle 566-3" class="cls-3" x="755.26" y="1225.85" width="754.74" height="19.15"/><rect id="Rectangle_465-3" data-name="Rectangle 465-3" class="cls-4" x="838.76" y="1047.92" width="156.36" height="88.47"/><rect id="Rectangle_472-3" data-name="Rectangle 472-3" class="cls-4" x="1249.63" y="1047.92" width="156.36" height="88.47"/><rect id="Rectangle_466-3" data-name="Rectangle 466-3" class="cls-5" x="830.36" y="1034.89" width="177.45" height="13.03"/><rect id="Rectangle_473-3" data-name="Rectangle 473-3" class="cls-5" x="1241.23" y="1034.89" width="177.45" height="13.03"/><rect id="Rectangle_467-3" data-name="Rectangle 467-3" class="cls-5" x="913.86" y="1047.92" width="5.54" height="76.9"/><rect id="Rectangle_476-3" data-name="Rectangle 476-3" class="cls-5" x="1324.73" y="1047.92" width="5.54" height="76.9"/><path id="Rectangle_468-3" data-name="Rectangle 468-3" class="cls-5" d="M830.18,1124.82h173.47a6.76,6.76,0,0,1,6.76,6.76h0a6.76,6.76,0,0,1-6.76,6.76H830.18a6.76,6.76,0,0,1-6.76-6.76h0A6.76,6.76,0,0,1,830.18,1124.82Z"/><path id="Rectangle_474-3" data-name="Rectangle 474-3" class="cls-5" d="M1241,1124.82h173.48a6.76,6.76,0,0,1,6.75,6.76h0a6.76,6.76,0,0,1-6.75,6.76H1241a6.76,6.76,0,0,1-6.75-6.76h0A6.76,6.76,0,0,1,1241,1124.82Z"/><rect id="Rectangle_469-3" data-name="Rectangle 469-3" class="cls-5" x="838.25" y="1081.86" width="157.48" height="5.54"/><rect id="Rectangle_475-3" data-name="Rectangle 475-3" class="cls-5" x="1249.11" y="1081.86" width="157.48" height="5.54"/><rect id="Rectangle_470-3" data-name="Rectangle 470-3" class="cls-5" x="1078.57" y="1034.94" width="108.82" height="191.81"/><rect id="Rectangle_471-3" data-name="Rectangle 471-3" class="cls-4" x="1088.92" y="1047.17" width="88.08" height="166.11"/></g><g id="Group_397" data-name="Group 397"><path id="Path_1730-4" data-name="Path 1730-4" class="cls-6" d="M1482.69,408.36V697.64H755.05V406.27l627.06,1.8Z"/><rect id="Rectangle_439-4" data-name="Rectangle 439-4" class="cls-3" x="755.26" y="406.27" width="754.74" height="19.15"/><rect id="Rectangle_566-4" data-name="Rectangle 566-4" class="cls-3" x="755.26" y="679.46" width="754.74" height="19.15"/><rect id="Rectangle_465-4" data-name="Rectangle 465-4" class="cls-4" x="838.76" y="501.54" width="156.36" height="88.47"/><rect id="Rectangle_472-4" data-name="Rectangle 472-4" class="cls-4" x="1249.63" y="501.54" width="156.36" height="88.47"/><rect id="Rectangle_466-4" data-name="Rectangle 466-4" class="cls-5" x="830.36" y="488.51" width="177.45" height="13.03"/><rect id="Rectangle_473-4" data-name="Rectangle 473-4" class="cls-5" x="1241.23" y="488.51" width="177.45" height="13.03"/><rect id="Rectangle_467-4" data-name="Rectangle 467-4" class="cls-5" x="913.86" y="501.54" width="5.54" height="76.9"/><rect id="Rectangle_476-4" data-name="Rectangle 476-4" class="cls-5" x="1324.73" y="501.54" width="5.54" height="76.9"/><path id="Rectangle_468-4" data-name="Rectangle 468-4" class="cls-5" d="M830.18,578.44h173.47a6.76,6.76,0,0,1,6.76,6.75h0a6.76,6.76,0,0,1-6.76,6.76H830.18a6.76,6.76,0,0,1-6.76-6.76h0A6.76,6.76,0,0,1,830.18,578.44Z"/><path id="Rectangle_474-4" data-name="Rectangle 474-4" class="cls-5" d="M1241,578.44h173.48a6.75,6.75,0,0,1,6.75,6.75h0a6.75,6.75,0,0,1-6.75,6.76H1241a6.75,6.75,0,0,1-6.75-6.76h0A6.75,6.75,0,0,1,1241,578.44Z"/><rect id="Rectangle_469-4" data-name="Rectangle 469-4" class="cls-5" x="838.25" y="535.47" width="157.48" height="5.54"/><rect id="Rectangle_475-4" data-name="Rectangle 475-4" class="cls-5" x="1249.11" y="535.47" width="157.48" height="5.54"/><rect id="Rectangle_470-4" data-name="Rectangle 470-4" class="cls-5" x="1078.57" y="488.55" width="108.82" height="191.81"/><rect id="Rectangle_471-4" data-name="Rectangle 471-4" class="cls-4" x="1088.92" y="500.79" width="88.08" height="166.11"/></g><g id="Group_401" data-name="Group 401" class="cls-1"><path id="Path_1730-5" data-name="Path 1730-5" class="cls-2" d="M27.31,135.17V424.45H755V133.07l-627.07,1.81Z"/><rect id="Rectangle_439-5" data-name="Rectangle 439-5" class="cls-3" y="133.07" width="754.74" height="19.15"/><rect id="Rectangle_566-5" data-name="Rectangle 566-5" class="cls-3" y="406.27" width="754.74" height="19.15"/><rect id="Rectangle_465-5" data-name="Rectangle 465-5" class="cls-4" x="514.88" y="228.35" width="156.36" height="88.47"/><rect id="Rectangle_472-5" data-name="Rectangle 472-5" class="cls-4" x="104.02" y="228.35" width="156.36" height="88.47"/><rect id="Rectangle_466-5" data-name="Rectangle 466-5" class="cls-5" x="502.18" y="215.31" width="177.45" height="13.03"/><rect id="Rectangle_473-5" data-name="Rectangle 473-5" class="cls-5" x="91.32" y="215.31" width="177.45" height="13.03"/><rect id="Rectangle_467-5" data-name="Rectangle 467-5" class="cls-5" x="590.6" y="228.35" width="5.54" height="76.9"/><rect id="Rectangle_476-5" data-name="Rectangle 476-5" class="cls-5" x="179.74" y="228.35" width="5.54" height="76.9"/><path id="Rectangle_468-5" data-name="Rectangle 468-5" class="cls-5" d="M506.35,305.25H679.82a6.76,6.76,0,0,1,6.76,6.75h0a6.76,6.76,0,0,1-6.76,6.76H506.35a6.76,6.76,0,0,1-6.76-6.76h0A6.76,6.76,0,0,1,506.35,305.25Z"/><path id="Rectangle_474-5" data-name="Rectangle 474-5" class="cls-5" d="M95.48,305.25H269a6.75,6.75,0,0,1,6.75,6.75h0a6.76,6.76,0,0,1-6.75,6.76H95.48A6.76,6.76,0,0,1,88.73,312h0A6.75,6.75,0,0,1,95.48,305.25Z"/><rect id="Rectangle_469-5" data-name="Rectangle 469-5" class="cls-5" x="514.27" y="262.28" width="157.48" height="5.54"/><rect id="Rectangle_475-5" data-name="Rectangle 475-5" class="cls-5" x="103.41" y="262.28" width="157.48" height="5.54"/><rect id="Rectangle_470-5" data-name="Rectangle 470-5" class="cls-5" x="322.61" y="215.36" width="108.82" height="191.81"/><rect id="Rectangle_471-5" data-name="Rectangle 471-5" class="cls-4" x="332.99" y="227.59" width="88.08" height="166.11"/></g><g id="Group_402" data-name="Group 402" class="cls-1"><path id="Path_1730-6" data-name="Path 1730-6" class="cls-6" d="M27.31,681.55V970.83H755V679.46l-627.07,1.81Z"/><rect id="Rectangle_439-6" data-name="Rectangle 439-6" class="cls-3" y="679.46" width="754.74" height="19.15"/><rect id="Rectangle_566-6" data-name="Rectangle 566-6" class="cls-3" y="952.65" width="754.74" height="19.15"/><rect id="Rectangle_465-6" data-name="Rectangle 465-6" class="cls-4" x="514.88" y="774.73" width="156.36" height="88.47"/><rect id="Rectangle_472-6" data-name="Rectangle 472-6" class="cls-4" x="104.02" y="774.73" width="156.36" height="88.47"/><rect id="Rectangle_466-6" data-name="Rectangle 466-6" class="cls-5" x="502.18" y="761.7" width="177.45" height="13.03"/><rect id="Rectangle_473-6" data-name="Rectangle 473-6" class="cls-5" x="91.32" y="761.7" width="177.45" height="13.03"/><rect id="Rectangle_467-6" data-name="Rectangle 467-6" class="cls-5" x="590.6" y="774.73" width="5.54" height="76.9"/><rect id="Rectangle_476-6" data-name="Rectangle 476-6" class="cls-5" x="179.74" y="774.73" width="5.54" height="76.9"/><path id="Rectangle_468-6" data-name="Rectangle 468-6" class="cls-5" d="M506.35,851.63H679.82a6.76,6.76,0,0,1,6.76,6.76h0a6.76,6.76,0,0,1-6.76,6.76H506.35a6.76,6.76,0,0,1-6.76-6.76h0A6.76,6.76,0,0,1,506.35,851.63Z"/><path id="Rectangle_474-6" data-name="Rectangle 474-6" class="cls-5" d="M95.48,851.63H269a6.76,6.76,0,0,1,6.75,6.76h0a6.76,6.76,0,0,1-6.75,6.76H95.48a6.76,6.76,0,0,1-6.75-6.76h0A6.76,6.76,0,0,1,95.48,851.63Z"/><rect id="Rectangle_469-6" data-name="Rectangle 469-6" class="cls-5" x="514.27" y="808.67" width="157.48" height="5.54"/><rect id="Rectangle_475-6" data-name="Rectangle 475-6" class="cls-5" x="103.41" y="808.67" width="157.48" height="5.54"/><rect id="Rectangle_470-6" data-name="Rectangle 470-6" class="cls-5" x="322.61" y="761.75" width="108.82" height="191.81"/><rect id="Rectangle_471-6" data-name="Rectangle 471-6" class="cls-4" x="332.99" y="773.98" width="88.08" height="166.11"/></g><g id="Group_403" data-name="Group 403" class="cls-1"><path id="Path_1730-7" data-name="Path 1730-7" class="cls-6" d="M27.31,954.75V1244H755V952.65l-627.07,1.81Z"/><rect id="Rectangle_439-7" data-name="Rectangle 439-7" class="cls-3" y="952.65" width="754.74" height="19.15"/><rect id="Rectangle_566-7" data-name="Rectangle 566-7" class="cls-3" y="1225.85" width="754.74" height="19.15"/><rect id="Rectangle_465-7" data-name="Rectangle 465-7" class="cls-4" x="514.88" y="1047.92" width="156.36" height="88.47"/><rect id="Rectangle_472-7" data-name="Rectangle 472-7" class="cls-4" x="104.02" y="1047.92" width="156.36" height="88.47"/><rect id="Rectangle_466-7" data-name="Rectangle 466-7" class="cls-5" x="502.18" y="1034.89" width="177.45" height="13.03"/><rect id="Rectangle_473-7" data-name="Rectangle 473-7" class="cls-5" x="91.32" y="1034.89" width="177.45" height="13.03"/><rect id="Rectangle_467-7" data-name="Rectangle 467-7" class="cls-5" x="590.6" y="1047.92" width="5.54" height="76.9"/><rect id="Rectangle_476-7" data-name="Rectangle 476-7" class="cls-5" x="179.74" y="1047.92" width="5.54" height="76.9"/><path id="Rectangle_468-7" data-name="Rectangle 468-7" class="cls-5" d="M506.35,1124.83H679.82a6.76,6.76,0,0,1,6.76,6.75h0a6.76,6.76,0,0,1-6.76,6.76H506.35a6.76,6.76,0,0,1-6.76-6.76h0A6.76,6.76,0,0,1,506.35,1124.83Z"/><path id="Rectangle_474-7" data-name="Rectangle 474-7" class="cls-5" d="M95.48,1124.83H269a6.75,6.75,0,0,1,6.75,6.75h0a6.76,6.76,0,0,1-6.75,6.76H95.48a6.76,6.76,0,0,1-6.75-6.76h0A6.75,6.75,0,0,1,95.48,1124.83Z"/><rect id="Rectangle_469-7" data-name="Rectangle 469-7" class="cls-5" x="514.27" y="1081.86" width="157.48" height="5.54"/><rect id="Rectangle_475-7" data-name="Rectangle 475-7" class="cls-5" x="103.41" y="1081.86" width="157.48" height="5.54"/><rect id="Rectangle_470-7" data-name="Rectangle 470-7" class="cls-5" x="322.61" y="1034.94" width="108.82" height="191.81"/><rect id="Rectangle_471-7" data-name="Rectangle 471-7" class="cls-4" x="332.99" y="1047.17" width="88.08" height="166.11"/></g><g id="Group_404" data-name="Group 404" class="cls-1"><path id="Path_1730-8" data-name="Path 1730-8" class="cls-6" d="M27.31,408.36V697.64H755V406.27l-627.07,1.8Z"/><rect id="Rectangle_439-8" data-name="Rectangle 439-8" class="cls-3" y="406.27" width="754.74" height="19.15"/><rect id="Rectangle_566-8" data-name="Rectangle 566-8" class="cls-3" y="679.46" width="754.74" height="19.15"/><rect id="Rectangle_465-8" data-name="Rectangle 465-8" class="cls-4" x="514.88" y="501.54" width="156.36" height="88.47"/><rect id="Rectangle_472-8" data-name="Rectangle 472-8" class="cls-4" x="104.02" y="501.54" width="156.36" height="88.47"/><rect id="Rectangle_466-8" data-name="Rectangle 466-8" class="cls-5" x="502.18" y="488.51" width="177.45" height="13.03"/><rect id="Rectangle_473-8" data-name="Rectangle 473-8" class="cls-5" x="91.32" y="488.51" width="177.45" height="13.03"/><rect id="Rectangle_467-8" data-name="Rectangle 467-8" class="cls-5" x="590.6" y="501.54" width="5.54" height="76.9"/><rect id="Rectangle_476-8" data-name="Rectangle 476-8" class="cls-5" x="179.74" y="501.54" width="5.54" height="76.9"/><path id="Rectangle_468-8" data-name="Rectangle 468-8" class="cls-5" d="M506.35,578.44H679.82a6.76,6.76,0,0,1,6.76,6.76h0a6.76,6.76,0,0,1-6.76,6.75H506.35a6.76,6.76,0,0,1-6.76-6.75h0A6.76,6.76,0,0,1,506.35,578.44Z"/><path id="Rectangle_474-8" data-name="Rectangle 474-8" class="cls-5" d="M95.48,578.44H269a6.75,6.75,0,0,1,6.75,6.76h0A6.75,6.75,0,0,1,269,592H95.48a6.75,6.75,0,0,1-6.75-6.75h0A6.75,6.75,0,0,1,95.48,578.44Z"/><rect id="Rectangle_469-8" data-name="Rectangle 469-8" class="cls-5" x="514.27" y="535.47" width="157.48" height="5.54"/><rect id="Rectangle_475-8" data-name="Rectangle 475-8" class="cls-5" x="103.41" y="535.47" width="157.48" height="5.54"/><rect id="Rectangle_470-8" data-name="Rectangle 470-8" class="cls-5" x="322.61" y="488.55" width="108.82" height="191.81"/><rect id="Rectangle_471-8" data-name="Rectangle 471-8" class="cls-4" x="332.99" y="500.79" width="88.08" height="166.11"/></g></svg>