<svg id="Laag_1" data-name="Laag 1" xmlns="http://www.w3.org/2000/svg" viewBox="0 0 1186 483"><defs><style>.cls-1{fill:#946dbc;}.cls-2{fill:#ecdafd;}.cls-3{fill:#523c68;}.cls-4{fill:#313131;}.cls-5{fill:#d2bce6;}.cls-6{fill:#d4d1ff;}</style></defs><title>illustrations-scaled</title><path id="Path_1766" data-name="Path 1766" class="cls-1" d="M562.19,35.25l95.33,5.6S700.58,45,728.87,59.36,888.7,162.59,888.7,162.59l236.11,34.92s29.67,3.83,39.12,24.32S1185,320.61,1185,320.61l-74,45.52-12.71,46.46L348.5,401.18,22.38,362.48.45,340.58V299.49L22.38,271.4H58.47V162.59H22.38S36.3,100.88,86.64,59.36c-3.56-8.2,39.54-18.51,39.54-18.51Z"/><path id="Path_1762" data-name="Path 1762" class="cls-2" d="M568,57.89v122h222.7V143.53L713.27,79S676.14,58.63,649,57.89,568,57.89,568,57.89Z"/><path id="Path_1765" data-name="Path 1765" class="cls-2" d="M1145.23,222.11l6.94,82.33h32.73s-2.11-58.9-19.76-82.33A165.32,165.32,0,0,1,1145.23,222.11Z"/><path id="Path_1767" data-name="Path 1767" class="cls-3" d="M853.53,412.58s-7.84-155.66,126-155.66,142.53,155.66,142.53,155.66H853.53"/><path id="Path_1768" data-name="Path 1768" class="cls-3" d="M118.29,379.32s7.39-144.86,140.59-130.79,126.63,159,126.63,159L118.29,379.32"/><ellipse id="Ellipse_240" data-name="Ellipse 240" class="cls-4" cx="977.27" cy="384.22" rx="99.58" ry="98.78"/><ellipse id="Ellipse_242" data-name="Ellipse 242" class="cls-4" cx="250.76" cy="384.22" rx="101.17" ry="98.78"/><path id="Path_1764" data-name="Path 1764" class="cls-5" d="M1081.76,304c-.25-3.4,103.36,0,103.36,0s2,22.69,0,40.91-8.93,13.75-8.93,13.75l-2.25,23.6,2.25,6.93s-4.93,15.95-9.24,15.95-2.83,9.71-2.83,9.71h-68.64v-9.71S1096.43,337.3,1081.76,304Z"/><ellipse id="Ellipse_239" data-name="Ellipse 239" class="cls-6" cx="975.68" cy="384.22" rx="72.49" ry="73.29"/><ellipse id="Ellipse_241" data-name="Ellipse 241" class="cls-6" cx="249.97" cy="384.22" rx="71.69" ry="73.29"/><path id="Path_1769" data-name="Path 1769" class="cls-2" d="M322.65,75.13c-10.1,19.92-54.19,88.92-54.19,88.92l-15,9.5L58.78,170.23,119.93,61.61,312,59.46S330.35,61.74,322.65,75.13Z"/><path id="Path_1770" data-name="Path 1770" class="cls-2" d="M21.15,163.1h37v110h-37Z"/><path id="Path_1771" data-name="Path 1771" class="cls-2" d="M525.65,57.57H361v86.94l25.62,34.17h139Z"/><path id="Path_1772" data-name="Path 1772" class="cls-5" d="M361,312.32l511.4,8.54s-21.44,56.3-19.11,90c-58.08-6.85-478.5-6.54-478.5-6.54S379.59,336.31,361,312.32Z"/><path id="Path_1773" data-name="Path 1773" class="cls-5" d="M21.15,273.09H165.6s-44.38,55.35-43.06,101.18c-31.43-7.67-101.39-10-101.39-10L0,341.54v-45Z"/></svg>