<svg id="Laag_1" data-name="Laag 1" xmlns="http://www.w3.org/2000/svg" viewBox="0 0 1186 483"><defs><style>.cls-1{fill:#8c71b7;}.cls-2{fill:#523c68;}.cls-3{fill:#ecdafd;}.cls-4{fill:#b38ed8;}.cls-5{fill:#d2bce6;}.cls-6{fill:#313131;}.cls-7{fill:#d4d1ff;}</style></defs><title>illustrations-scaled</title><path id="Path_1711" data-name="Path 1711" class="cls-1" d="M134.07,124.4S204.55,16.21,284.36,9.3,484.87,1.2,484.87,1.2,590.61-8.9,670.41,29.61s149.66,112,149.66,112,11.1,12.86,25.42,14.7,83.89,5.53,83.89,5.53,11.45-1,84.11,34.77,76.33,85,76.33,85,3.09,29,13.6,32.63,10.59,10,10.59,10v62s-6.91,32.05-18.4,36.56-56.42,0-56.42,0,7.11,0-137.21,2.1c-57.05-1.72-490.93-7.48-680.65-16.28-37.31-9-98.09-59.43-98.22-88.54-2.28-10.6,0-115,0-115Z"/><path id="Path_1717" data-name="Path 1717" class="cls-2" d="M1019.22,425.91c-8-30.69,13.13-145.42-117-145.42S790.39,375.65,783,423.53C906.05,432.13,903,418.87,1019.22,425.91Z"/><path id="Path_1718" data-name="Path 1718" class="cls-2" d="M355,419.93c-8-26.81,18.18-139.82-112.24-139.82S138.7,354.86,139,365.06C148.32,380.3,238.44,413.78,355,419.93Z"/><path id="Path_1712" data-name="Path 1712" class="cls-3" d="M457.26,36.91l29.47,150.86H247.32s-59.07,15.33-58-68.93S343.74,36.92,343.74,36.92Z"/><path id="Path_1713" data-name="Path 1713" class="cls-3" d="M486.74,37.11H541s85.36-18.67,232,119c45.47,37.37-73.64,31.27-73.64,31.27H516.69Z"/><path id="Path_1714" data-name="Path 1714" class="cls-4" d="M1105.8,313.89c-45.72,13.45-117.23,1.56-117.23,1.56s24.52,72,22.46,109c35.5,3.87,84.3,0,84.3,0s21.68-17.86,23.34-39.17,0-61.28,0-61.28S1113.51,311,1105.8,313.89Z"/><path id="Path_1715" data-name="Path 1715" class="cls-5" d="M801.47,317.81c7.71-2.12-463.45-.39-463.45-.39s15.58,36.69,16.57,103.94c19.74-.24,440.69,0,440.69,0S781.61,354,801.47,317.81Z"/><ellipse id="Ellipse_225" data-name="Ellipse 225" class="cls-6" cx="237.11" cy="396.02" rx="87.58" ry="86.48"/><ellipse id="Ellipse_227" data-name="Ellipse 227" class="cls-6" cx="901.62" cy="395.42" rx="86.48" ry="87.58"/><circle id="Ellipse_224" data-name="Ellipse 224" class="cls-7" cx="238.21" cy="396.02" r="64.59"/><circle id="Ellipse_226" data-name="Ellipse 226" class="cls-7" cx="902.71" cy="395.42" r="59.12"/><path id="Path_1719" data-name="Path 1719" class="cls-3" d="M1014.19,192.58s-8.1,3.83-8.1,37.06,79.53,28.56,79.53,28.56S1071,213.58,1014.19,192.58Z"/></svg>