<svg id="Laag_1" data-name="Laag 1" xmlns="http://www.w3.org/2000/svg" viewBox="0 0 1186 483"><defs><style>.cls-1{fill:#5c40d3;}.cls-2{fill:#f2eafa;}.cls-3{fill:#2f2e41;}.cls-4{fill:#313131;}.cls-5{fill:#d4d1ff;}</style></defs><title>illustrations-scaled</title><path id="Path_1711" data-name="Path 1711" class="cls-1" d="M112.36,122.85S182,16,260.79,9.18s198-8,198-8S563.23-8.79,642,29.24s147.8,110.63,147.8,110.63,11,12.7,25.11,14.52,82.84,5.46,82.84,5.46,11.31-1,83.07,34.33,75.38,84,75.38,84,3,28.63,13.43,32.22,10.46,9.92,10.46,9.92v61.21s-6.82,31.66-18.17,36.11-55.72,0-55.72,0,7,0-135.5,2.08c-56.35-1.7-484.84-7.4-672.2-16.08-36.84-8.93-96.87-58.7-97-87.45-2.25-10.47,0-113.52,0-113.52Z"/><path id="Path_1717" data-name="Path 1717" d="M986.52,420.62C978.62,390.31,999.49,277,871,277S760.53,371,753.27,418.27C874.76,426.76,871.73,413.67,986.52,420.62Z"/><path id="Path_1718" data-name="Path 1718" d="M330.51,414.72c-7.92-26.48,18-138.09-110.84-138.09s-102.73,73.82-102.46,83.9C126.44,375.58,215.43,408.64,330.51,414.72Z"/><path id="Path_1712" data-name="Path 1712" class="cls-2" d="M431.54,36.46l29.1,149H224.21s-58.34,15.13-57.28-68.08,152.5-80.9,152.5-80.9Z"/><path id="Path_1713" data-name="Path 1713" class="cls-2" d="M460.65,36.65h53.63s84.3-18.44,229.1,117.54c44.91,36.9-72.72,30.88-72.72,30.88H490.23Z"/><path id="Path_1714" data-name="Path 1714" class="cls-3" d="M1072,310c-45.15,13.28-115.77,1.55-115.77,1.55s24.21,71.07,22.18,107.68c35.05,3.82,83.25,0,83.25,0s21.41-17.64,23-38.69,0-60.52,0-60.52S1079.64,307.11,1072,310Z"/><path id="Path_1715" data-name="Path 1715" class="cls-3" d="M771.47,313.86c7.62-2.09-457.69-.38-457.69-.38s15.38,36.23,16.36,102.64c19.5-.23,435.22.05,435.22.05S751.86,349.62,771.47,313.86Z"/><ellipse id="Ellipse_225" data-name="Ellipse 225" class="cls-4" cx="214.12" cy="397.1" rx="86.49" ry="85.41"/><ellipse id="Ellipse_227" data-name="Ellipse 227" class="cls-4" cx="870.38" cy="396.51" rx="85.41" ry="86.49"/><circle id="Ellipse_224" data-name="Ellipse 224" class="cls-5" cx="215.21" cy="397.1" r="63.79"/><circle id="Ellipse_226" data-name="Ellipse 226" class="cls-5" cx="871.46" cy="396.51" r="58.38"/><path id="Path_1719" data-name="Path 1719" class="cls-5" d="M981.56,190.19s-8,3.78-8,36.6S1052.09,255,1052.09,255,1037.66,210.93,981.56,190.19Z"/></svg>