<svg id="Laag_1" data-name="Laag 1" xmlns="http://www.w3.org/2000/svg" viewBox="0 0 85 85"><defs><style>.cls-1,.cls-3{fill:#5c40d3;}.cls-2{fill:#fff;}.cls-3{stroke:#5c40d3;}</style></defs><title>illustrations-scaled</title><path class="cls-1" d="M75.38,27.21h-.09V9.66c0-2.1-.27-2.37-2.39-2.37-3.64,0-7.27,0-10.9,0-1.12,0-1.55-.36-1.5-1.49.06-1.44,0-2.88,0-4.32,0-1-.47-1.47-1.45-1.47H49.22c-1.08,0-1.58.49-1.55,1.59s0,2.19,0,3.28c0,2.39,0,2.39-2.3,2.39H29.64c-.62,0-1.24-.06-2.06-.09,0-1.8-.07-3.46,0-5.11C27.68.61,27.17,0,25.65,0c-3.06.06-6.11.05-9.17,0-1.32,0-1.89.51-1.85,1.84,0,1.72,0,3.44,0,5.43-4.3,0-8.33,0-12.35,0C.2,7.29,0,7.5,0,9.55V65.74C0,67.86.1,68,2.29,68H32.9a3.18,3.18,0,0,0,1.19-.07.81.81,0,0,0,.18-.1H75.38ZM2,25.47ZM49.63,1.89ZM48.8,16.63s0,0-.07,0a.29.29,0,0,1-.1,0A.51.51,0,0,0,48.8,16.63Z"/><path id="Path_2359" data-name="Path 2359" class="cls-1" d="M21.35,45.5V37.29h10.7V45.5Z"/><path id="Path_2360" data-name="Path 2360" class="cls-1" d="M32.12,47.56v8.27H21.27c0-2.5,0-5,.05-7.6,0-.24.62-.64,1-.64C25.49,47.54,28.7,47.56,32.12,47.56Z"/><path id="Path_2524" data-name="Path 2524" class="cls-2" d="M39.79,34.71h10A1.24,1.24,0,0,1,51,36V40.4a18.45,18.45,0,0,0-4.76,3H39.79a1.23,1.23,0,0,1-1.24-1.24V36A1.23,1.23,0,0,1,39.79,34.71Z"/><path id="Path_2355" data-name="Path 2355" class="cls-1" d="M62.13,82.57A20.31,20.31,0,0,1,41.75,62.32V61.8A20.43,20.43,0,1,1,62.16,82.57ZM62,80.71A18.73,18.73,0,0,0,80.76,62v0a18.94,18.94,0,0,0-18.57-19A18.85,18.85,0,0,0,43.6,61.54c0,10.73,8.07,19.15,18.43,19.17Z"/><path class="cls-2" d="M61.9,84.5a22.25,22.25,0,0,1-22-22.16v-.57A22.52,22.52,0,0,1,62.18,39.14h0a22.68,22.68,0,0,1,0,45.36h0l0-1.86,0,1.86Zm.19-39.67a17,17,0,0,0-16.6,16.71c0,9.65,7.25,17.22,16.55,17.25h.14a16.45,16.45,0,0,0,11.71-4.88,17,17,0,0,0,5-11.95v-.08a17.13,17.13,0,0,0-16.7-17.05Z"/><path id="Path_2361" data-name="Path 2361" class="cls-3" d="M62,80.71c-10.36,0-18.45-8.45-18.43-19.18A18.59,18.59,0,1,1,62.06,80.71Z"/><path id="Path_2327" data-name="Path 2327" class="cls-2" d="M53.93,59.48h1.93a11.81,11.81,0,0,1,.89-3,8.08,8.08,0,0,1,1.55-2.31,6.37,6.37,0,0,1,2.14-1.46,6.59,6.59,0,0,1,2.63-.51,6.31,6.31,0,0,1,3,.67,6.85,6.85,0,0,1,2.17,1.84l-.81.91a1.34,1.34,0,0,1-.21.2.37.37,0,0,1-.28.09.68.68,0,0,1-.47-.25,4.93,4.93,0,0,0-.65-.56,4.59,4.59,0,0,0-5.86.52,7.25,7.25,0,0,0-1.69,3.9h7.19v.73a.64.64,0,0,1-.17.44.66.66,0,0,1-.5.19H58.13c0,.18,0,.36,0,.53s0,.36,0,.55v.42c0,.13,0,.26,0,.4h6.14v.75a.62.62,0,0,1-.18.42.68.68,0,0,1-.5.19H58.23a7.45,7.45,0,0,0,1.63,4.13A4.15,4.15,0,0,0,63,69.6a4.8,4.8,0,0,0,1.25-.14,4.34,4.34,0,0,0,.93-.35,3.87,3.87,0,0,0,.68-.46l.49-.46c.14-.15.27-.26.38-.36a.55.55,0,0,1,.32-.14.37.37,0,0,1,.18,0,1.33,1.33,0,0,1,.19.14l1,.93a6.61,6.61,0,0,1-2.28,2.12,6.69,6.69,0,0,1-3.25.75,6.83,6.83,0,0,1-2.75-.52,6.2,6.2,0,0,1-2.11-1.51,8,8,0,0,1-1.47-2.39,12.29,12.29,0,0,1-.78-3.16H53.93V62.74h1.76c0-.14,0-.27,0-.4v-.42c0-.17,0-.35,0-.54s0-.36,0-.54H53.93Z"/><rect id="Rectangle_764" data-name="Rectangle 764" class="cls-2" x="6.08" y="34.71" width="12.49" height="8.74" rx="1.25"/><rect id="Rectangle_768" data-name="Rectangle 768" class="cls-2" x="6.08" y="50.94" width="12.49" height="8.74" rx="1.25"/><rect id="Rectangle_763" data-name="Rectangle 763" class="cls-2" x="22.31" y="34.71" width="12.49" height="8.74" rx="1.25"/><rect id="Rectangle_767" data-name="Rectangle 767" class="cls-2" x="22.31" y="50.94" width="12.49" height="8.74" rx="1.25"/></svg>