<svg id="Laag_1" data-name="Laag 1" xmlns="http://www.w3.org/2000/svg" viewBox="0 0 85 85"><defs><style>.cls-1{fill:#fff;}.cls-2{fill:#5c40d3;}</style></defs><title>illustrations-scaled</title><rect id="Rectangle_764" data-name="Rectangle 764" class="cls-1" x="6.08" y="34.71" width="12.49" height="8.74" rx="1.25"/><rect id="Rectangle_768" data-name="Rectangle 768" class="cls-1" x="6.08" y="50.94" width="12.49" height="8.74" rx="1.25"/><g id="GWL"><path id="Path_2334" data-name="Path 2334" class="cls-2" d="M34.29,60H30.36c-1.33,0-2.65,0-4,0-.77,0-1.07-.23-1.05-1,.05-2,0-4.09,0-6.13a1.14,1.14,0,0,0-1.08-1.38c-7.55-1.48-12.1-7-12.1-14.71,0-2.42,0-4.84,0-7.26,0-.87-.31-1.26-1.19-1.23a12,12,0,0,1-2.16,0c-1.28-.19-2.09-.64-1.91-3.71.08-1.39.74-2.22,2-2.27,1,0,2,0,2.95,0H50c2.09,0,2.67.6,2.67,2.71,0,.46,0,.91,0,1.36a2,2,0,0,1-1.87,1.92,15.43,15.43,0,0,1-2,0c-1-.06-1.36.32-1.34,1.32,0,2.57,0,5.14,0,7.71a14.16,14.16,0,0,1-12,14.14c-.93.16-1.25.53-1.22,1.49C34.34,55.26,34.29,57.56,34.29,60Z"/><path class="cls-2" d="M26.27,61.05a1.93,1.93,0,0,1-1.42-.5A2.1,2.1,0,0,1,24.33,59c0-1,0-2,0-3s0-2.1,0-3.16a1,1,0,0,0,0-.31l-.25-.06c-8-1.56-12.91-7.57-12.91-15.69V34.71c0-1.74,0-3.47,0-5.2,0-.09,0-.16,0-.2H11a12.68,12.68,0,0,1-2.3,0c-2.22-.31-3-1.65-2.81-4.76.11-1.94,1.21-3.14,3-3.21.71,0,1.41,0,2.11,0H50c2.64,0,3.66,1,3.67,3.71v.39c0,.35,0,.69,0,1a3,3,0,0,1-2.81,2.87,15.57,15.57,0,0,1-2.16,0h-.26a1.65,1.65,0,0,0,0,.29c0,1.87,0,3.74,0,5.61v2.13a15.27,15.27,0,0,1-12.8,15.12,1.26,1.26,0,0,0-.36.1,2.53,2.53,0,0,0,0,.37c.06,1.66.05,3.3,0,5,0,.68,0,1.36,0,2.06v1H29.16c-.92,0-1.83,0-2.74,0ZM11.08,27.3a2.12,2.12,0,0,1,1.53.53,2.25,2.25,0,0,1,.58,1.71c0,1.72,0,3.44,0,5.16v2.09c0,7.21,4.22,12.34,11.3,13.72a2.12,2.12,0,0,1,1.89,2.39c0,1,0,2.07,0,3.11s0,2,0,3h0c.94,0,1.88,0,2.82,0h4.12V58c0-1.72,0-3.34,0-5a2.2,2.2,0,0,1,2.06-2.51A13.25,13.25,0,0,0,46.43,37.34V35.21c0-1.86,0-3.72,0-5.58a2.06,2.06,0,0,1,2.41-2.33,13.39,13.39,0,0,0,1.9,0,1,1,0,0,0,.93-.94c0-.33,0-.62,0-.92V25c0-1.56-.14-1.7-1.66-1.7H11c-.67,0-1.34,0-2,0-.33,0-1,0-1,1.33-.15,2.48.31,2.55,1.06,2.65a11.15,11.15,0,0,0,1.92,0Zm37.38,1.94Z"/><path id="Path_2335" data-name="Path 2335" class="cls-2" d="M21.36,17.57H15.43c0-.39-.07-.75-.07-1.12V3.74c0-1.9.8-2.7,2.69-2.71a4.33,4.33,0,0,1,1.89.2c.57.29,1.35.94,1.36,1.44C21.4,7.62,21.36,12.56,21.36,17.57Z"/><path class="cls-2" d="M22.36,18.57H14.48l-.08-1.3c0-.28,0-.55,0-.82V3.74C14.36,1.31,15.58.06,18,0a5.31,5.31,0,0,1,2.27.25l.14,0c.07,0,1.87,1,1.9,2.32.08,3.87.07,7.82.07,11.64Zm-6-2h4V14.29c0-3.78,0-7.69-.06-11.51a2.68,2.68,0,0,0-.75-.63A3.4,3.4,0,0,0,18.17,2h-.12c-1.34,0-1.68.35-1.68,1.7q0,6.36,0,12.71Z"/><g id="Group_347" data-name="Group 347"><path id="Path_2308" data-name="Path 2308" class="cls-2" d="M49,11.89c.84.55,1.69,1.07,2.5,1.67a22,22,0,0,1,9.15,17,34.63,34.63,0,0,1-2.15,14,13.86,13.86,0,0,0-.61,8.58,12.21,12.21,0,0,0,5.76,7.16c3,1.83,2,2,4.38-.63a20,20,0,0,0,5.33-14V43.1a4.23,4.23,0,0,1,.32.42,36.18,36.18,0,0,1,3.8,15.88c-.08,10.9-8,20.7-18.49,22.76A22.94,22.94,0,0,1,32.61,66.51a24.12,24.12,0,0,1,1-16.81A51.16,51.16,0,0,1,42.35,36c1.93-2.28,3.95-4.5,5.74-6.89a15.41,15.41,0,0,0,3.24-8.52,13.37,13.37,0,0,0-1.87-7.46c-.19-.36-.41-.71-.62-1.06Zm-.39,29.79a1.15,1.15,0,0,0-.27.14,28.83,28.83,0,0,0-5.77,8.52c-1.68,4.17-2.4,8.45-1.18,12.86,2.8,10.17,13.92,11.66,19.74,7.8a16.43,16.43,0,0,0,3.24-3c-.93,0-1.82,0-2.71,0-7,.12-11.85-3.49-13.66-10.3a27,27,0,0,1-.21-12.39c.24-1.19.53-2.37.82-3.64Z"/><path class="cls-1" d="M54.48,83.35A23.69,23.69,0,0,1,31.89,66.73c-1.77-5.58-1.44-11.25,1-17.31a51.14,51.14,0,0,1,8.88-13.93L43.4,33.6c1.38-1.6,2.81-3.25,4.09-5a14.65,14.65,0,0,0,3.1-8.12,12.78,12.78,0,0,0-1.77-7l-.43-.74L47.94,12l.85-1.13.59.4.79.51c.57.37,1.17.76,1.73,1.18a22.84,22.84,0,0,1,9.46,17.52,35.23,35.23,0,0,1-2.19,14.28,13,13,0,0,0-.6,8.11A11.49,11.49,0,0,0,64,59.59c.51.31.91.57,1.22.78s.57.36.72.44c.12-.11.33-.36.54-.6s.56-.66,1-1.1a19.11,19.11,0,0,0,5.14-13.53V41.13l1.31,1.48a3.14,3.14,0,0,1,.39.51,36.78,36.78,0,0,1,3.92,16.29c-.08,11.26-8.29,21.36-19.1,23.49A24.16,24.16,0,0,1,54.48,83.35ZM50.78,14a14.21,14.21,0,0,1,1.3,6.6,16.11,16.11,0,0,1-3.4,9c-1.3,1.74-2.75,3.41-4.14,5-.54.63-1.08,1.25-1.61,1.88A49.67,49.67,0,0,0,34.29,50c-2.32,5.73-2.63,11.06-1,16.3A22.16,22.16,0,0,0,58.8,81.43c10.12-2,17.81-11.47,17.89-22a33.57,33.57,0,0,0-2.62-13,20.57,20.57,0,0,1-5.53,13.73c-.39.43-.69.78-.93,1.06-1.21,1.42-1.63,1.48-3.22.44-.3-.2-.68-.45-1.17-.74a12.94,12.94,0,0,1-6.09-7.59,14.44,14.44,0,0,1,.63-9,33.78,33.78,0,0,0,2.1-13.68A21.38,21.38,0,0,0,51,14.16Zm3.37,59.7A14.8,14.8,0,0,1,49,72.78a13.5,13.5,0,0,1-8.35-9.38c-1.14-4.13-.75-8.49,1.2-13.34a29.74,29.74,0,0,1,5.91-8.74l.13-.11A1.78,1.78,0,0,1,48.3,41l1.31-.5L49,43c-.19.84-.38,1.65-.54,2.46a26.23,26.23,0,0,0,.2,12.05c1.72,6.48,6.15,9.87,12.92,9.74h4.31l-1,1.23a17.63,17.63,0,0,1-3.38,3.13A13.5,13.5,0,0,1,54.15,73.7ZM47.23,44.19a24.48,24.48,0,0,0-4,6.43C41.4,55.15,41,59.2,42.07,63a12,12,0,0,0,7.43,8.37,12.75,12.75,0,0,0,11.18-1,15.89,15.89,0,0,0,2-1.63h-1c-7.4.15-12.5-3.73-14.4-10.86A27.84,27.84,0,0,1,47,45.16Z"/><path id="Path_2308-2" data-name="Path 2308" class="cls-1" d="M49,11.89c.84.55,1.69,1.07,2.5,1.67a22,22,0,0,1,9.15,17,34.63,34.63,0,0,1-2.15,14,13.86,13.86,0,0,0-.61,8.58,12.21,12.21,0,0,0,5.76,7.16c1.43.86,2,1.35,2.36,1.35s.76-.61,2-2a20,20,0,0,0,5.33-14V43.1a4.23,4.23,0,0,1,.32.42,36.18,36.18,0,0,1,3.8,15.88c-.08,10.9-8,20.7-18.49,22.76a22.53,22.53,0,0,1-4.45.44A23,23,0,0,1,32.61,66.51a24.12,24.12,0,0,1,1-16.81A51.16,51.16,0,0,1,42.35,36c1.93-2.28,3.95-4.5,5.74-6.89a15.41,15.41,0,0,0,3.24-8.52,13.37,13.37,0,0,0-1.87-7.46c-.19-.36-.41-.71-.62-1.06l.12-.16m-.39,29.79a1.15,1.15,0,0,0-.27.14,28.83,28.83,0,0,0-5.77,8.52c-1.68,4.17-2.4,8.45-1.18,12.86A12.88,12.88,0,0,0,54.15,73a12.7,12.7,0,0,0,6.94-2,16.43,16.43,0,0,0,3.24-3h-3c-6.86,0-11.54-3.6-13.32-10.3a27,27,0,0,1-.21-12.39c.24-1.19.53-2.37.82-3.64m0-31.83L47.76,11l-.12.16L47,12l.51.86.19.33.41.7a12,12,0,0,1,1.68,6.66,14,14,0,0,1-2.92,7.67c-1.28,1.7-2.7,3.34-4.07,4.93-.55.63-1.09,1.27-1.63,1.91a51.72,51.72,0,0,0-9,14.12,25.7,25.7,0,0,0-1,17.83A24.46,24.46,0,0,0,59.24,83.64C70.39,81.44,78.86,71,79,59.41a37.52,37.52,0,0,0-4-16.53l0-.08,0-.08a5.52,5.52,0,0,0-.46-.62l-2.63-3v6.41a18.37,18.37,0,0,1-4.94,13c-.42.46-.73.83-1,1.13l-.1.12-.16-.1c-.33-.22-.73-.48-1.25-.79a10.63,10.63,0,0,1-5.08-6.28c-.66-2.28-.48-4.64.58-7.67a36,36,0,0,0,2.24-14.54,23.62,23.62,0,0,0-9.77-18.11c-.59-.44-1.19-.83-1.78-1.21l-.77-.5-1.18-.79Zm5.53,61.6A11.4,11.4,0,0,1,42.8,62.8c-1-3.64-.64-7.53,1.12-11.9a20.48,20.48,0,0,1,2-3.67,28.55,28.55,0,0,0,.61,10.85c1.9,7.15,6.89,11.19,14.1,11.42-.12.1-.25.18-.37.27a11.11,11.11,0,0,1-6.08,1.68Z"/><path class="cls-1" d="M54.5,84.85a25.09,25.09,0,0,1-24-17.66,26.45,26.45,0,0,1,1.05-18.34,52.49,52.49,0,0,1,9.12-14.33l1.62-1.89C43.63,31,45,29.4,46.31,27.71a13.1,13.1,0,0,0,2.77-7.26,11.18,11.18,0,0,0-1.58-6.23l-.38-.66-1-1.66,2.3-3.07L51,10.51c.59.39,1.21.78,1.82,1.24A24.3,24.3,0,0,1,62.86,30.41a36.74,36.74,0,0,1-2.27,14.85,11.45,11.45,0,0,0-.57,7.2,9.87,9.87,0,0,0,4.75,5.84l.88.55.68-.77a17.7,17.7,0,0,0,4.74-12.5V37.17L75,41.61a4.52,4.52,0,0,1,.53.71l.1.16A38.37,38.37,0,0,1,79.7,59.42c-.09,12-8.83,22.69-20.32,25A25.07,25.07,0,0,1,54.5,84.85ZM31.28,64.42c.16.78.37,1.55.61,2.32A23.69,23.69,0,0,0,59.09,82.9c10.81-2.13,19-12.23,19.11-23.49A36.82,36.82,0,0,0,74.32,43.2l0-.08a36.78,36.78,0,0,1,3.92,16.29c-.08,11.26-8.29,21.36-19.1,23.49a23.68,23.68,0,0,1-27.2-16.17C31.65,66,31.45,65.2,31.28,64.42ZM50.78,14a14.21,14.21,0,0,1,1.3,6.6,16.11,16.11,0,0,1-3.4,9c-1.3,1.73-2.74,3.4-4.13,5-.54.63-1.09,1.26-1.62,1.89A49.67,49.67,0,0,0,34.29,50c-2.32,5.73-2.63,11.06-1,16.3A22.18,22.18,0,0,0,58.8,81.43c10.12-2,17.81-11.47,17.89-22a33.57,33.57,0,0,0-2.62-13,20.57,20.57,0,0,1-5.53,13.73c-.39.43-.69.78-.93,1.06-.61.72-1,1.16-1.64,1.16a3,3,0,0,1-1.57-.72c-.31-.2-.69-.45-1.18-.74a12.94,12.94,0,0,1-6.09-7.59,14.44,14.44,0,0,1,.63-9,33.78,33.78,0,0,0,2.1-13.68A21.38,21.38,0,0,0,51,14.16ZM62.39,58.48A14.6,14.6,0,0,0,64,59.59c.51.31.91.57,1.23.78s.56.36.71.44l.1-.1-.81-.35c-.35-.22-.74-.48-1.22-.77A15.18,15.18,0,0,1,62.39,58.48ZM72.57,41.12v4.44A19.16,19.16,0,0,1,67.43,59.1c-.41.45-.72.81-1,1.1l-.35.42.36-.41c.25-.29.56-.66,1-1.1a19.11,19.11,0,0,0,5.14-13.53V41.13l1.31,1.48a3.41,3.41,0,0,1,.37.48,3.47,3.47,0,0,0-.37-.49ZM65.82,59.77h0Zm-7.58-8.55a10.26,10.26,0,0,0,.33,1.65,9.21,9.21,0,0,0,.54,1.47,11.38,11.38,0,0,1-.87-3.12ZM47.94,12l.45.76c.15.25.29.48.42.71a12.8,12.8,0,0,1,1.77,7.06,14.61,14.61,0,0,1-3.08,8.1c-1.29,1.71-2.72,3.36-4.09,5-.56.65-1.1,1.27-1.63,1.9A50.78,50.78,0,0,0,32.9,49.41q-.55,1.37-1,2.7c.28-.89.6-1.79,1-2.69a51.14,51.14,0,0,1,8.88-13.93l1.63-1.9c1.38-1.6,2.8-3.25,4.08-5a14.65,14.65,0,0,0,3.1-8.12,12.78,12.78,0,0,0-1.77-7l-.43-.74L47.94,12l.85-1.13.59.4.79.52c.58.37,1.17.75,1.73,1.17a22.84,22.84,0,0,1,9.46,17.52,35.23,35.23,0,0,1-2.19,14.28,19.34,19.34,0,0,0-.7,2.46,20.07,20.07,0,0,1,.71-2.47A35.31,35.31,0,0,0,61.37,30.5,22.91,22.91,0,0,0,51.91,13c-.58-.42-1.17-.81-1.75-1.18l-1.37-.9Zm6.21,61.71A13.58,13.58,0,0,1,40.63,63.4c-1.14-4.13-.75-8.49,1.2-13.34a29.74,29.74,0,0,1,5.91-8.74l.13-.11A1.78,1.78,0,0,1,48.3,41l1.31-.5L49,43c-.19.84-.38,1.65-.54,2.46a26.23,26.23,0,0,0,.2,12.05c1.69,6.37,6,9.74,12.59,9.74h4.64l-1,1.23a17.63,17.63,0,0,1-3.38,3.13A13.51,13.51,0,0,1,54.15,73.71ZM47.23,44.19a24.48,24.48,0,0,0-4,6.43C41.4,55.15,41,59.2,42.07,63a12.14,12.14,0,0,0,12.08,9.21,11.92,11.92,0,0,0,6.53-1.83l.64-.48-.28.21-.38.27a11.85,11.85,0,0,1-6.51,1.82A12.13,12.13,0,0,1,42.08,63c-1-3.8-.67-7.85,1.15-12.38a21.41,21.41,0,0,1,2-3.81l1.37.52a27.82,27.82,0,0,0,.6,10.56,16.65,16.65,0,0,0,2,4.66,17.19,17.19,0,0,1-2-4.65A27.84,27.84,0,0,1,47,45.16Zm-2.35,6.36c-.09.21-.18.42-.26.63-1.7,4.21-2,8-1.1,11.42a10.68,10.68,0,0,0,10.63,8.1A11.44,11.44,0,0,0,58.09,70c-6.22-1-10.55-5.12-12.31-11.75A29.39,29.39,0,0,1,44.88,50.55ZM54.2,67.19a15,15,0,0,0,6.42,1.56l1.94.07.07-.07H61.28A15.45,15.45,0,0,1,54.2,67.19Z"/><path class="cls-1" d="M54.38,85A25.3,25.3,0,0,1,29.59,64.36l0-.13c-1.07-5.88-.11-11.77,2.93-18A64,64,0,0,1,43.1,31.5a24.61,24.61,0,0,0,5.11-7.66,10.4,10.4,0,0,0-1.18-10,40.9,40.9,0,0,0-3.36-4.06c-.51-.56-1-1.11-1.5-1.68L42,7.94l-.91-.41,1.13-1.32.49.18c4.78,1.81,9.74,4.07,13.7,8.29a24,24,0,0,1,6.37,13.16,35.71,35.71,0,0,1-2,17.41,14.3,14.3,0,0,0-.93,4.64,8.56,8.56,0,0,0,2.29,6,15,15,0,0,0,3.48,2.78,20.79,20.79,0,0,0,2.92-3.82,18,18,0,0,0,2.36-8A49.93,49.93,0,0,0,70.47,38l-.41-3.86,1,.19a.73.73,0,0,1,.64.42,69.41,69.41,0,0,1,6.44,13.6,33.36,33.36,0,0,1,1.68,12.15c-.71,12.11-9.24,22-20.75,24.09A25.63,25.63,0,0,1,54.38,85ZM31.07,64.08a23.76,23.76,0,0,0,27.72,19c10.83-2,18.86-11.28,19.53-22.69a32,32,0,0,0-1.61-11.61A57.34,57.34,0,0,0,72,38.38,48.28,48.28,0,0,1,72.38,47a19.5,19.5,0,0,1-2.57,8.62,23.16,23.16,0,0,1-3.54,4.52l-.39.38-.49-.25A16.21,16.21,0,0,1,61,56.91a10.12,10.12,0,0,1-2.69-7,15.92,15.92,0,0,1,1-5.12,34.2,34.2,0,0,0,1.9-16.69,22.49,22.49,0,0,0-6-12.34,29.72,29.72,0,0,0-10.35-6.8,39.28,39.28,0,0,1,3.32,4A11.9,11.9,0,0,1,49.6,24.4a26,26,0,0,1-5.39,8.12A62.59,62.59,0,0,0,33.85,46.91C31,52.83,30,58.4,31.05,64l-.72.25ZM54.48,83.35A23.67,23.67,0,0,1,31.89,66.73c-1.77-5.58-1.44-11.24,1-17.31A51,51,0,0,1,41.78,35.5c.54-.65,1.09-1.28,1.64-1.92,1.37-1.59,2.8-3.24,4.07-4.94a14.61,14.61,0,0,0,3.09-8.12,12.69,12.69,0,0,0-1.76-7l-.43-.73L47.94,12l.27-.36V10.49l1.17.78.77.5c.58.38,1.18.77,1.75,1.19a22.84,22.84,0,0,1,9.46,17.53,35.29,35.29,0,0,1-2.19,14.28,13,13,0,0,0-.6,8.11A11.54,11.54,0,0,0,64,59.6c.51.3.91.56,1.22.77a7.44,7.44,0,0,0,.72.44c.12-.11.33-.36.54-.6s.56-.66,1-1.1a19.11,19.11,0,0,0,5.14-13.53V41.12l1.31,1.49a2.83,2.83,0,0,1,.39.52,36.77,36.77,0,0,1,3.92,16.28c-.08,11.26-8.29,21.36-19.1,23.49A23.38,23.38,0,0,1,54.48,83.35ZM50.78,14a14.21,14.21,0,0,1,1.3,6.6,16.11,16.11,0,0,1-3.4,9c-1.3,1.73-2.73,3.4-4.13,5l-1.62,1.9A49.58,49.58,0,0,0,34.29,50a23.25,23.25,0,0,0-1,16.3A22.17,22.17,0,0,0,58.8,81.43c10.12-2,17.81-11.47,17.89-22a33.53,33.53,0,0,0-2.62-13,20.59,20.59,0,0,1-5.53,13.73c-.39.42-.69.77-.93,1-1.21,1.43-1.63,1.48-3.22.44-.3-.2-.68-.45-1.17-.74a12.94,12.94,0,0,1-6.09-7.59,14.42,14.42,0,0,1,.63-9,33.8,33.8,0,0,0,2.1-13.68A21.35,21.35,0,0,0,51,14.17Z"/><path class="cls-1" d="M54.15,73.71A14.85,14.85,0,0,1,49,72.78a13.49,13.49,0,0,1-8.35-9.38c-1.14-4.13-.75-8.5,1.2-13.34a29.74,29.74,0,0,1,5.91-8.74l.12-.11A2.64,2.64,0,0,1,48.3,41l1.31-.51L49,43c-.2.84-.39,1.66-.55,2.47a26.28,26.28,0,0,0,.2,12.06c1.69,6.37,6,9.73,12.59,9.73h4.64l-1,1.23a17.6,17.6,0,0,1-3.38,3.13A13.47,13.47,0,0,1,54.15,73.71ZM47.23,44.19a24.48,24.48,0,0,0-4,6.43C41.4,55.15,41,59.2,42.07,63a12.06,12.06,0,0,0,7.44,8.38,12.76,12.76,0,0,0,11.17-1,15.89,15.89,0,0,0,2-1.63H61.28c-7.2,0-12.18-3.84-14.05-10.86A27.8,27.8,0,0,1,47,45.17Zm6.91,27.86a12.92,12.92,0,0,1-5.55-1.23,11.79,11.79,0,0,1-6.39-8C41,58.08,41.78,53.22,44.72,48a.9.9,0,0,1,.4-.37l.09-.06,1.32-.87-.16,1.57A29,29,0,0,0,47,57.59c1,4.12,3,7.07,5.87,9a13.91,13.91,0,0,0,6.55,2.21,1.75,1.75,0,0,1,1,.35l.91.7L60,70.59c-.25.15-.5.29-.75.41A12.48,12.48,0,0,1,54.14,72.05Zm-9.4-20.73a16.85,16.85,0,0,0-1.09,11.16,10.3,10.3,0,0,0,5.59,7,11.47,11.47,0,0,0,8.22.6A15.34,15.34,0,0,1,52,67.85c-3.22-2.16-5.34-5.4-6.5-9.9A30.34,30.34,0,0,1,44.74,51.32ZM46,48.72h0Z"/><path class="cls-1" d="M54.14,72.05a12.88,12.88,0,0,1-5.54-1.23,11.77,11.77,0,0,1-6.4-8C41,58.08,41.78,53.22,44.72,48a1,1,0,0,1,.39-.37l.1-.06,1.32-.88-.16,1.58A29,29,0,0,0,47,57.59c1,4.11,3,7.07,5.87,9a13.91,13.91,0,0,0,6.55,2.21,1.68,1.68,0,0,1,1,.35l.91.7L60,70.59a7.83,7.83,0,0,1-.75.41A12.44,12.44,0,0,1,54.14,72.05Zm-9.4-20.72a16.82,16.82,0,0,0-1.09,11.15,10.32,10.32,0,0,0,5.59,7,11.47,11.47,0,0,0,8.22.6A15.21,15.21,0,0,1,52,67.85c-3.23-2.16-5.35-5.4-6.51-9.9A31,31,0,0,1,44.74,51.33Zm1.31-2.64a.21.21,0,0,1,0,.06A.21.21,0,0,0,46.05,48.69Z"/></g><path id="Path_2336" data-name="Path 2336" class="cls-2" d="M44.25,17.58h-6c0-.41-.07-.77-.07-1.13V3.65c0-1.87.73-2.6,2.6-2.62a9.92,9.92,0,0,1,1.8.13,1.86,1.86,0,0,1,1.62,1.91C44.27,7.86,44.25,12.65,44.25,17.58Z"/><path class="cls-2" d="M45.26,18.58H37.35l-.09-1.3c0-.29,0-.56,0-.83q0-6.4,0-12.8c0-2.41,1.18-3.6,3.59-3.62a11.06,11.06,0,0,1,2,.14,2.84,2.84,0,0,1,2.45,2.94c0,3.5,0,7,0,10.64Zm-6-2h4V13.75c0-3.6,0-7.13,0-10.67a.85.85,0,0,0-.74-.92A7.74,7.74,0,0,0,40.85,2c-1.34,0-1.62.3-1.62,1.61q0,6.4,0,12.8Z"/></g></svg>
