<svg id="Laag_1" data-name="Laag 1" xmlns="http://www.w3.org/2000/svg" viewBox="0 0 1510 1245"><defs><style>.cls-1{fill:#2f2e41;}.cls-2{fill:#f2eafa;}.cls-3{fill:#9d68fd;}.cls-4{fill:#fff;}.cls-5{fill:#5c40d3;}</style></defs><title>illustrations-scaled</title><rect id="Rectangle_294" data-name="Rectangle 294" class="cls-1" x="1299.9" y="260.14" width="102.37" height="255.88"/><path id="Path_1498" data-name="Path 1498" class="cls-2" d="M1093,222.74l368.9,369.18v591.25H752.48V222.74Z"/><rect id="Rectangle_296" data-name="Rectangle 296" class="cls-1" x="752.48" y="1183.17" width="739.81" height="61.83"/><rect id="Rectangle_297" data-name="Rectangle 297" class="cls-3" x="1082.57" y="858.2" width="300.67" height="249.49"/><rect id="Rectangle_298" data-name="Rectangle 298" class="cls-4" x="1082.57" y="858.2" width="300.67" height="249.49"/><rect id="Rectangle_328" data-name="Rectangle 328" class="cls-4" x="832.17" y="505.86" width="161.07" height="249.49"/><rect id="Rectangle_339" data-name="Rectangle 339" class="cls-4" x="1100.3" y="505.86" width="161.07" height="249.49"/><rect id="Rectangle_299" data-name="Rectangle 299" class="cls-1" x="815.19" y="878.45" width="168.42" height="304.03"/><rect id="Rectangle_301" data-name="Rectangle 301" class="cls-4" x="831.21" y="904.04" width="136.33" height="257.61"/><path id="Path_1501" data-name="Path 1501" class="cls-5" d="M1100,197.31l406.78,395.62c7.14,7.28-30.45,41-35.16,36.5L1077.5,245H749.1V197.31"/><rect id="Rectangle_303" data-name="Rectangle 303" class="cls-1" x="1073.92" y="846.99" width="317.97" height="11.21"/><rect id="Rectangle_326" data-name="Rectangle 326" class="cls-1" x="823.52" y="492.44" width="182.8" height="13.43"/><rect id="Rectangle_338" data-name="Rectangle 338" class="cls-1" x="1091.65" y="492.44" width="182.8" height="13.43"/><rect id="Rectangle_304" data-name="Rectangle 304" class="cls-1" x="1299.81" y="858.2" width="10.14" height="228.7"/><rect id="Rectangle_305" data-name="Rectangle 305" class="cls-1" x="1227.84" y="858.2" width="10.14" height="228.7"/><rect id="Rectangle_306" data-name="Rectangle 306" class="cls-1" x="1155.87" y="858.2" width="10.14" height="228.7"/><rect id="Rectangle_332" data-name="Rectangle 332" class="cls-1" x="905.47" y="505.86" width="10.14" height="228.7"/><rect id="Rectangle_336" data-name="Rectangle 336" class="cls-1" x="1173.6" y="505.86" width="10.14" height="228.7"/><rect id="Rectangle_307" data-name="Rectangle 307" class="cls-1" x="1082.57" y="978.69" width="300.67" height="8.55"/><rect id="Rectangle_308" data-name="Rectangle 308" class="cls-1" x="1064.55" y="1086.9" width="336.66" height="29.43" rx="8.2"/><rect id="Rectangle_333" data-name="Rectangle 333" class="cls-1" x="814.15" y="734.56" width="192.62" height="29.43" rx="8.2"/><rect id="Rectangle_335" data-name="Rectangle 335" class="cls-1" x="1082.28" y="734.56" width="192.62" height="29.43" rx="8.2"/><rect id="Rectangle_334" data-name="Rectangle 334" class="cls-1" x="831.64" y="615.15" width="162.22" height="10.14"/><rect id="Rectangle_337" data-name="Rectangle 337" class="cls-1" x="1099.77" y="615.15" width="162.22" height="10.14"/><rect id="Rectangle_294-2" data-name="Rectangle 294-2" class="cls-1" x="107.72" y="260.14" width="102.37" height="255.88"/><path id="Path_1498-2" data-name="Path 1498-2" class="cls-2" d="M417,222.74,48.07,591.93v591.24H757.52V222.74Z"/><rect id="Rectangle_296-2" data-name="Rectangle 296-2" class="cls-1" x="17.71" y="1183.17" width="739.81" height="61.83"/><rect id="Rectangle_297-2" data-name="Rectangle 297-2" class="cls-3" x="126.76" y="858.2" width="300.67" height="249.49"/><rect id="Rectangle_298-2" data-name="Rectangle 298-2" class="cls-4" x="126.76" y="858.2" width="300.67" height="249.49"/><rect id="Rectangle_328-2" data-name="Rectangle 328-2" class="cls-4" x="516.76" y="505.86" width="161.07" height="249.49"/><rect id="Rectangle_339-2" data-name="Rectangle 339-2" class="cls-4" x="248.63" y="505.86" width="161.07" height="249.49"/><rect id="Rectangle_299-2" data-name="Rectangle 299-2" class="cls-1" x="526.39" y="878.45" width="168.42" height="304.03"/><rect id="Rectangle_301-2" data-name="Rectangle 301-2" class="cls-4" x="542.46" y="904.04" width="136.33" height="257.61"/><path id="Path_1501-2" data-name="Path 1501-2" class="cls-5" d="M410,197.31,3.23,592.93c-7.14,7.28,30.45,41,35.16,36.5L432.5,245H760.9V197.31"/><rect id="Rectangle_303-2" data-name="Rectangle 303-2" class="cls-1" x="118.11" y="846.99" width="317.97" height="11.21"/><rect id="Rectangle_326-2" data-name="Rectangle 326-2" class="cls-1" x="503.68" y="492.44" width="182.8" height="13.43"/><rect id="Rectangle_338-2" data-name="Rectangle 338-2" class="cls-1" x="235.55" y="492.44" width="182.8" height="13.43"/><rect id="Rectangle_304-2" data-name="Rectangle 304-2" class="cls-1" x="200.06" y="858.2" width="10.14" height="228.7"/><rect id="Rectangle_305-2" data-name="Rectangle 305-2" class="cls-1" x="272.03" y="858.2" width="10.14" height="228.7"/><rect id="Rectangle_306-2" data-name="Rectangle 306-2" class="cls-1" x="344" y="858.2" width="10.14" height="228.7"/><rect id="Rectangle_332-2" data-name="Rectangle 332-2" class="cls-1" x="594.4" y="505.86" width="10.14" height="228.7"/><rect id="Rectangle_336-2" data-name="Rectangle 336-2" class="cls-1" x="326.27" y="505.86" width="10.14" height="228.7"/><rect id="Rectangle_307-2" data-name="Rectangle 307-2" class="cls-1" x="126.76" y="978.69" width="300.67" height="8.55"/><rect id="Rectangle_308-2" data-name="Rectangle 308-2" class="cls-1" x="108.79" y="1086.9" width="336.66" height="29.43" rx="8.2"/><rect id="Rectangle_333-2" data-name="Rectangle 333-2" class="cls-1" x="503.23" y="734.56" width="192.62" height="29.43" rx="8.2"/><rect id="Rectangle_335-2" data-name="Rectangle 335-2" class="cls-1" x="235.1" y="734.56" width="192.62" height="29.43" rx="8.2"/><rect id="Rectangle_334-2" data-name="Rectangle 334-2" class="cls-1" x="516.14" y="615.15" width="162.22" height="10.14"/><rect id="Rectangle_337-2" data-name="Rectangle 337-2" class="cls-1" x="248.01" y="615.15" width="162.22" height="10.14"/></svg>