<svg id="Laag_1" data-name="Laag 1" xmlns="http://www.w3.org/2000/svg" viewBox="0 0 1510 1245"><defs><style>.cls-1{fill:#541295;}.cls-2{fill:#b38ed8;}.cls-3{fill:#9d68fd;}.cls-4{fill:#dfc1fd;}.cls-5{fill:#a27fc5;}.cls-6{fill:#c8b3dc;}.cls-7{fill:#d2bce6;}.cls-8{fill:#c099e5;}.cls-9{fill:#ecdafd;}.cls-10{fill:#e1d0f0;}</style></defs><title>illustrations-scaled</title><rect id="Rectangle_294" data-name="Rectangle 294" class="cls-1" x="1302.23" y="260.14" width="102.37" height="255.88"/><rect id="Rectangle_295" data-name="Rectangle 295" class="cls-2" x="1281.35" y="223.85" width="144.19" height="49.04" rx="5.14"/><path id="Path_1498" data-name="Path 1498" class="cls-2" d="M1095.36,222.74l368.9,369.18v591.25H754.8V222.74Z"/><rect id="Rectangle_296" data-name="Rectangle 296" class="cls-1" x="754.8" y="1183.17" width="739.81" height="61.83"/><rect id="Rectangle_297" data-name="Rectangle 297" class="cls-3" x="1084.89" y="858.2" width="300.67" height="249.49"/><rect id="Rectangle_298" data-name="Rectangle 298" class="cls-4" x="1084.89" y="858.2" width="300.67" height="249.49"/><rect id="Rectangle_328" data-name="Rectangle 328" class="cls-4" x="834.49" y="505.86" width="161.07" height="249.49"/><rect id="Rectangle_339" data-name="Rectangle 339" class="cls-4" x="1102.62" y="505.86" width="161.07" height="249.49"/><rect id="Rectangle_299" data-name="Rectangle 299" class="cls-5" x="817.51" y="878.45" width="168.42" height="304.03"/><rect id="Rectangle_301" data-name="Rectangle 301" class="cls-4" x="833.54" y="904.04" width="136.33" height="257.61"/><path id="Path_1501" data-name="Path 1501" class="cls-1" d="M1102.32,197.31,1509.1,592.93c7.14,7.28-30.45,41-35.16,36.5L1079.82,245H751.42V197.31"/><rect id="Rectangle_303" data-name="Rectangle 303" class="cls-5" x="1076.25" y="846.99" width="317.97" height="11.21"/><rect id="Rectangle_326" data-name="Rectangle 326" class="cls-5" x="825.84" y="492.44" width="182.8" height="13.43"/><rect id="Rectangle_338" data-name="Rectangle 338" class="cls-5" x="1093.97" y="492.44" width="182.8" height="13.43"/><rect id="Rectangle_304" data-name="Rectangle 304" class="cls-2" x="1302.13" y="858.2" width="10.14" height="228.7"/><rect id="Rectangle_305" data-name="Rectangle 305" class="cls-2" x="1230.17" y="858.2" width="10.14" height="228.7"/><rect id="Rectangle_306" data-name="Rectangle 306" class="cls-2" x="1158.2" y="858.2" width="10.14" height="228.7"/><rect id="Rectangle_332" data-name="Rectangle 332" class="cls-2" x="907.79" y="505.86" width="10.14" height="228.7"/><rect id="Rectangle_336" data-name="Rectangle 336" class="cls-2" x="1175.92" y="505.86" width="10.14" height="228.7"/><rect id="Rectangle_307" data-name="Rectangle 307" class="cls-2" x="1084.89" y="978.69" width="300.67" height="8.55"/><rect id="Rectangle_308" data-name="Rectangle 308" class="cls-5" x="1066.88" y="1086.9" width="336.66" height="29.43" rx="8.2"/><rect id="Rectangle_333" data-name="Rectangle 333" class="cls-5" x="816.48" y="734.56" width="192.62" height="29.43" rx="8.2"/><rect id="Rectangle_335" data-name="Rectangle 335" class="cls-5" x="1084.61" y="734.56" width="192.62" height="29.43" rx="8.2"/><rect id="Rectangle_334" data-name="Rectangle 334" class="cls-2" x="833.96" y="615.15" width="162.22" height="10.14"/><rect id="Rectangle_337" data-name="Rectangle 337" class="cls-2" x="1102.09" y="615.15" width="162.22" height="10.14"/><g id="alpha"><rect id="Rectangle_340" data-name="Rectangle 340" class="cls-6" x="105.4" y="260.14" width="102.37" height="255.88"/><rect id="Rectangle_341" data-name="Rectangle 341" class="cls-7" x="84.46" y="223.85" width="144.19" height="49.04" rx="5.14"/><path id="Path_1720" data-name="Path 1720" class="cls-7" d="M414.64,222.74,45.74,591.93v591.24H755.2V222.74Z"/><rect id="Rectangle_342" data-name="Rectangle 342" class="cls-8" x="15.38" y="1183.17" width="739.81" height="61.83"/><rect id="Rectangle_344" data-name="Rectangle 344" class="cls-3" x="124.43" y="858.2" width="300.67" height="249.49"/><rect id="Rectangle_345" data-name="Rectangle 345" class="cls-9" x="124.43" y="858.2" width="300.67" height="249.49"/><rect id="Rectangle_346" data-name="Rectangle 346" class="cls-9" x="514.44" y="505.86" width="161.07" height="249.49"/><rect id="Rectangle_347" data-name="Rectangle 347" class="cls-9" x="246.31" y="505.86" width="161.07" height="249.49"/><rect id="Rectangle_348" data-name="Rectangle 348" class="cls-6" x="524.06" y="878.45" width="168.42" height="304.03"/><rect id="Rectangle_349" data-name="Rectangle 349" class="cls-9" x="540.13" y="904.04" width="136.33" height="257.61"/><path id="Path_1721" data-name="Path 1721" class="cls-10" d="M407.69,197.31.9,592.93c-7.14,7.28,30.45,41,35.16,36.5L430.18,245h328.4V197.31"/><rect id="Rectangle_350" data-name="Rectangle 350" class="cls-6" x="115.78" y="846.99" width="317.97" height="11.21"/><rect id="Rectangle_351" data-name="Rectangle 351" class="cls-6" x="501.35" y="492.44" width="182.8" height="13.43"/><rect id="Rectangle_352" data-name="Rectangle 352" class="cls-6" x="233.22" y="492.44" width="182.8" height="13.43"/><rect id="Rectangle_353" data-name="Rectangle 353" class="cls-6" x="197.73" y="858.2" width="10.14" height="228.7"/><rect id="Rectangle_354" data-name="Rectangle 354" class="cls-6" x="269.7" y="858.2" width="10.14" height="228.7"/><rect id="Rectangle_355" data-name="Rectangle 355" class="cls-6" x="341.67" y="858.2" width="10.14" height="228.7"/><rect id="Rectangle_356" data-name="Rectangle 356" class="cls-6" x="592.07" y="505.86" width="10.14" height="228.7"/><rect id="Rectangle_357" data-name="Rectangle 357" class="cls-6" x="323.94" y="505.86" width="10.14" height="228.7"/><rect id="Rectangle_358" data-name="Rectangle 358" class="cls-6" x="124.43" y="978.69" width="300.67" height="8.55"/><rect id="Rectangle_359" data-name="Rectangle 359" class="cls-6" x="106.46" y="1086.9" width="336.66" height="29.43" rx="8.2"/><rect id="Rectangle_360" data-name="Rectangle 360" class="cls-6" x="500.9" y="734.56" width="192.62" height="29.43" rx="8.2"/><rect id="Rectangle_361" data-name="Rectangle 361" class="cls-6" x="232.77" y="734.56" width="192.62" height="29.43" rx="8.2"/><rect id="Rectangle_362" data-name="Rectangle 362" class="cls-6" x="513.81" y="615.15" width="162.22" height="10.14"/><rect id="Rectangle_363" data-name="Rectangle 363" class="cls-6" x="245.68" y="615.15" width="162.22" height="10.14"/></g></svg>