<svg id="Laag_1" data-name="Laag 1" xmlns="http://www.w3.org/2000/svg" viewBox="0 0 85 85"><defs><style>.cls-1,.cls-2{fill:#5c40d3;}.cls-2{stroke:#5c40d3;}</style></defs><title>illustrations-scaled</title><path id="Path_2316" data-name="Path 2316" class="cls-1" d="M62.83,69H33a8.1,8.1,0,0,1,1.47,4,6.42,6.42,0,0,1-12.59,2.07,6.32,6.32,0,0,1,3.64-7.7c1.12-.44,1.21-.85,1-1.9Q19.76,37,13.1,8.4c-.22-1-.64-1.23-1.61-1.21-3.27.06-6.55,0-9.83,0-.75,0-1.63.08-1.66-1s.82-1,1.6-1c3.75,0,7.5,0,11.25,0a1.65,1.65,0,0,1,1.94,1.53C16.2,13,17.73,19.15,19.12,25.38c.27,1.23.73,1.57,2,1.57q30.53-.06,61.05,0c.37,0,.74,0,1.11,0,1.67.06,2.07.59,1.54,2.22-1.54,4.66-3.12,9.3-4.67,14-1.88,5.65-3.79,11.29-5.6,17a2,2,0,0,1-2.25,1.62c-14.27,0-28.54,0-42.81-.06-1.51,0-1.84.26-1.43,1.8.91,3.44.82,3.47,4.41,3.47h35.2a6.44,6.44,0,0,1,4.84,10.86,6.38,6.38,0,0,1-8.24,1A6.49,6.49,0,0,1,62,70.58C62.21,70.12,62.47,69.68,62.83,69ZM51.39,29q-15,0-30,0c-1.1,0-1.45.14-1.15,1.38q3.33,13.83,6.49,27.71c.28,1.22.73,1.57,2,1.57q21.08-.08,42.16,0A1.85,1.85,0,0,0,73,58.14q4.53-13.9,9.22-27.74c.42-1.25.18-1.45-1.07-1.44C71.25,29,61.32,29,51.39,29ZM28,69a4.39,4.39,0,1,0,4.49,4.36h0A4.44,4.44,0,0,0,28,69Zm39.87,0a4.37,4.37,0,0,0-4.45,4.28v.09a4.38,4.38,0,1,0,8.76.2v-.09A4.28,4.28,0,0,0,68.08,69Z"/><path id="Path_2317" data-name="Path 2317" class="cls-2" d="M51.38,29c9.94,0,19.87,0,29.8,0,1.25,0,1.48.19,1.06,1.44Q77.56,44.25,73,58.14a1.84,1.84,0,0,1-2.13,1.48q-21.09-.06-42.16,0c-1.24,0-1.69-.35-2-1.56q-3.15-13.87-6.49-27.71C20,29.1,20.33,29,21.43,29,31.42,29,41.4,29,51.38,29Z"/><path id="Path_2318" data-name="Path 2318" class="cls-2" d="M28,69a4.39,4.39,0,1,1-4.37,4.33h0A4.46,4.46,0,0,1,28,69Z"/><path id="Path_2319" data-name="Path 2319" class="cls-2" d="M67.87,69a4.31,4.31,0,0,1,4.32,4.28,1.34,1.34,0,0,1,0,.2,4.39,4.39,0,0,1-8.77,0,.19.19,0,0,1,0-.08A4.37,4.37,0,0,1,67.79,69Z"/></svg>