<svg id="Laag_1" data-name="Laag 1" xmlns="http://www.w3.org/2000/svg" viewBox="0 0 130 333"><defs><style>.cls-1{fill:#2f2e41;}.cls-2{fill:#fff;}.cls-3{fill:#5c40d3;}.cls-4{fill:#e2d3ff;}</style></defs><title>illustrations-scaled</title><g id="Kind_5" data-name="Kind 5"><path id="Path_1784" data-name="Path 1784" class="cls-1" d="M74.35,125.84c23.51,8.51,30.88,48.56,1.77,49.84C66.8,171,51.36,143,48.86,145.76s-3.22,9.07-5.83,12.05-6,10.81-1.82,14.45c3.18,2.83-16.21,1.08-14.67-18.57S50.85,117.32,74.35,125.84Z"/><path id="Path_1774" data-name="Path 1774" class="cls-2" d="M49,306.73l59.24,8.41s1.48,7.35-1.12,11.08-63.07,1.16-63.07,1.16Z"/><path id="Path_1775" data-name="Path 1775" class="cls-2" d="M26.83,315.8l-2,13.89a73.89,73.89,0,0,0,10.88-1.47c4-1.05,11.94-15.88,11.94-15.88Z"/><path id="Path_1778" data-name="Path 1778" class="cls-3" d="M67.23,193.89c8.36.74,17.17,1.64,23.92,6.7a37.74,37.74,0,0,1,9.62,11.79c5.74,9.93,9.27,17.42,14.63,27.56,2.87,5.43-15.25,16.26-15.25,16.26a9.31,9.31,0,0,1-4.5-4.77c-1.14,14.91-2.62,28.78-3.76,43.69a6.42,6.42,0,0,1-1,3.61c-1.35,1.63-3.89,1.5-58.66-6.41a5.36,5.36,0,0,1-5.86-4.83,5.3,5.3,0,0,1,.1-1.73V251.43c0-.84-4,2.69-4,2.69s-17.87-13.34-18-14.18c.1-1.08,5.89-28.67,12.84-37.11,5.25-6.55,9.07-2.42,16.44-6.8C46.33,194.93,53.07,192.66,67.23,193.89Z"/><path id="Path_1779" data-name="Path 1779" class="cls-4" d="M68.5,192.81c.58,3.74.45,8.2-2.44,10.54a9.87,9.87,0,0,1-4,1.8,11.5,11.5,0,0,1-3.25.41c-4-.2-7.3-3.64-8.62-7.47A31.19,31.19,0,0,1,49.36,186a16.19,16.19,0,0,1,1.25-6.26A9.42,9.42,0,0,1,59.69,175C70.27,176,67.31,185.16,68.5,192.81Z"/><path id="Path_1780" data-name="Path 1780" class="cls-4" d="M78.26,179.13a27.1,27.1,0,0,1-5.53,8.77,17.09,17.09,0,0,1-12.67,4.82c-7.49-.36-14.06-5.83-17.56-12.52s-4.4-14.45-4.59-22a34.32,34.32,0,0,1,1.54-13,21.74,21.74,0,0,1,16-13.14A27.18,27.18,0,0,1,76,136.81a17.77,17.77,0,0,1,5,5A24.41,24.41,0,0,1,83.71,152a19,19,0,0,1,.18,7.05c-.53,1.91-1,3.67-1.34,5.65a63,63,0,0,1-4.28,14.4Z"/><path id="Path_1782" data-name="Path 1782" class="cls-1" d="M108,317.25a14.19,14.19,0,0,1,2.59-2.77,8.48,8.48,0,0,1,2.61-1l10.56-2.78c1.56-.41,3.42-.76,4.63.3a3.31,3.31,0,0,1,1,1.85c.57,2.88-1.64,5.51-3.68,7.63l-9.34,9.64a5,5,0,0,1-5.81,2c-3.16-.59-8.4-1.15-9.36-4.9C100.11,322.68,105.66,320,108,317.25Z"/><path id="Path_1783" data-name="Path 1783" class="cls-1" d="M21.77,317.5A14.52,14.52,0,0,0,18.9,315a9.07,9.07,0,0,0-2.71-.73L5.4,312.62c-1.59-.24-3.46-.39-4.57.79A3.28,3.28,0,0,0,0,315.36c-.28,2.92,2.19,5.3,4.45,7.21l10.3,8.6a5,5,0,0,0,6,1.35c3.07-.92,8.24-2,8.8-5.84C30.19,322.07,24.38,320,21.77,317.5Z"/><path id="Path_1798" data-name="Path 1798" class="cls-1" d="M34.64,149.48s35.48-8.37,37.21-12.26,3.26,9.13,13.4,18.74-4.86-23.76-4.86-23.76L58,127.65l-18,9.57Z"/><g id="Group_332" data-name="Group 332"><path id="Rectangle_582" data-name="Rectangle 582" class="cls-1" d="M48.3,268.44H84a4,4,0,0,1,4,4v11a4,4,0,0,1-4,4H48.3a4,4,0,0,1-4-4v-11A4,4,0,0,1,48.3,268.44Z"/><path id="Rectangle_583" data-name="Rectangle 583" class="cls-3" d="M47.31,268.44h4v19h-4a3,3,0,0,1-3-3v-13A3,3,0,0,1,47.31,268.44Z"/><path id="Rectangle_584" data-name="Rectangle 584" class="cls-3" d="M81,268.44h4a3,3,0,0,1,3,3v13a3,3,0,0,1-3,3H81v-19Z"/></g><path id="Path_1785" data-name="Path 1785" class="cls-4" d="M30.45,281a28.11,28.11,0,0,0,7.48,6.52,9.41,9.41,0,0,0,9.47,0c2.08-1.66,4.73-3.69,4-6.67S44.2,276,44.3,275.59c0-1.8,0-1.79.23-4.75.42-1.43,1.23-1.23-.62-1.9-5-2.56-4,.38-6.41-2.32-3.67-4-18.09-27.25-23.49-27.35-3.17,0-6.2,2.86-8.66.86-2.58,1.36-1.46,4.27-1.64,4.59-2.24,4.57,2.46,7.53,5.16,11C15.61,264.56,23,272.79,30.45,281Z"/><path id="Path_1777" data-name="Path 1777" class="cls-4" d="M96.54,281.72c-1.34,2.76-8.31,5.72-8.51,5.91-2.47,2.32-6.18-5.4-6.31-8.57s6.86-1.66,5.82-4.12c.29-2.8.35-1.53,0-4.11,1.32-1.47.75-.48,1.4-.59,1.08-3.48,8.3-24.48,13.3-25.74,1.29-.31,1.89,2.08,3.46,2.31,2.08.3,8.45-7.21,10.12-5.35,3.2,3.95-2,6.75-3.88,10.77C107.35,262.33,102,272,96.54,281.72Z"/><path id="Path_1808" data-name="Path 1808" class="cls-1" d="M28.19,290.15S6.63,278.83,1.38,294.82s11.29,22.7,11.29,22.7,49.41,15.23,57.87,13.67,33-3,33-3l-2.08-8.7s34.77-6,22.4-23.1-33.78,2-33.78,2Z"/></g></svg>