<svg id="Laag_1" data-name="Laag 1" xmlns="http://www.w3.org/2000/svg" viewBox="0 0 141 337"><defs><style>.cls-1{fill:#f3bd8f;}.cls-2{fill:#2f2e41;}.cls-3{fill:#b29dbe;}.cls-4{fill:#541295;}</style></defs><title>illustrations-scaled</title><path id="Path_1688" data-name="Path 1688" class="cls-1" d="M39,256.43l-4.88,70s8,3.47,12.89,1.39,16.71-72.08,16.71-72.08Z"/><path id="Path_1689" data-name="Path 1689" class="cls-1" d="M112.88,252.6l4.87,70s-8,3.47-12.88,1.39-16.72-72.09-16.72-72.09Z"/><path id="Path_1690" data-name="Path 1690" class="cls-2" d="M35.09,207.61s-3.35,47.09-.91,49.87,31.7.71,31.7.71l9.74-23.69,9.75,26.11s28.6,0,30-2.08-.42-58.11-6-60.57S35.09,207.61,35.09,207.61Z"/><path id="Path_1692" data-name="Path 1692" class="cls-3" d="M62.8,85.62c-9.8.86-20.14,1.91-28,7.8a43.86,43.86,0,0,0-11.29,13.71C16.73,118.69,12.59,127.4,6.3,139.21c-3.36,6.31,17.88,18.92,17.88,18.92a10.88,10.88,0,0,0,5.29-5.55c1.33,17.35,3.07,33.48,4.4,50.84a7.44,7.44,0,0,0,1.2,4.2c1.58,1.9,4.56,1.75,7,1.41l61.77-8.87a6.28,6.28,0,0,0,6.75-7.63l.74-47.67a39.47,39.47,0,0,1,1.41-11.75,34.63,34.63,0,0,1,5.94-9.94c4.25-5.49,6.42-1,11.29-6a5.46,5.46,0,0,0,1.9-3.28,5.28,5.28,0,0,0-1.58-3.33C124.17,103,79.41,84.19,62.8,85.62Z"/><path id="Path_1693" data-name="Path 1693" class="cls-1" d="M61.32,84.36c-.69,4.35-.54,9.53,2.86,12.26a11.58,11.58,0,0,0,4.69,2.1,13.59,13.59,0,0,0,3.81.48C77.39,99,81.24,95,82.79,90.5a36,36,0,0,0,1-14,18.39,18.39,0,0,0-1.47-7.28,11,11,0,0,0-10.64-5.53C59.24,64.76,62.71,75.45,61.32,84.36Z"/><path id="Path_1691" data-name="Path 1691" class="cls-1" d="M20.75,194.28a32.65,32.65,0,0,0,6.67,9.49,11.1,11.1,0,0,0,10.79,2.66A12.83,12.83,0,0,0,44.6,200c1.85-3.34,2.81-7.6.74-10.78a26.39,26.39,0,0,0-5.18-4.55c-5-4.32-6.12-11.48-8-17.84a60.18,60.18,0,0,0-4.86-11.77c-3.05-5.57-7.43-11-13.54-12.61a12.32,12.32,0,0,0-12,3.5c-3.84,4.52-.59,8.94,1.5,13.66C8.47,171.49,14.6,182.89,20.75,194.28Z"/><path id="Path_1694" data-name="Path 1694" class="cls-1" d="M48.42,65.79A31.57,31.57,0,0,0,54.73,76.1,20.18,20.18,0,0,0,69.49,82c8.8-.27,16.62-6.5,20.85-14.21S95.79,51,96.17,42.25a39.45,39.45,0,0,0-1.54-15.12A25.48,25.48,0,0,0,76.09,11.51,32.1,32.1,0,0,0,52,16.6,20.66,20.66,0,0,0,46,22.32a28.23,28.23,0,0,0-3.43,11.83,22,22,0,0,0-.35,8.2c.57,2.23,1.09,4.29,1.45,6.6a73.12,73.12,0,0,0,4.73,16.84Z"/><path id="Path_1697" data-name="Path 1697" class="cls-4" d="M37.46,319.21a17.31,17.31,0,0,0-4.43.18,10.12,10.12,0,0,0-2.9,1.54l-10.56,7.23c-1.57,1.07-3.3,2.44-3.3,4.33a3.83,3.83,0,0,0,.84,2.31c2.1,2.7,6.1,2.76,9.53,2.57l15.66-.91a5.88,5.88,0,0,0,6.22-3.63c1.9-3.24,5.45-8.31,2.9-12C48.31,316.37,41.65,319.21,37.46,319.21Z"/><path id="Path_1698" data-name="Path 1698" class="cls-4" d="M113,319.21a17.45,17.45,0,0,1,4.45.18,10.63,10.63,0,0,1,2.9,1.54l10.56,7.23c1.57,1.07,3.28,2.44,3.3,4.33a3.78,3.78,0,0,1-.86,2.31c-2.07,2.7-6.08,2.76-9.53,2.57l-15.66-.91a5.85,5.85,0,0,1-6.2-3.63c-1.9-3.24-5.47-8.31-2.92-12C102.18,316.37,108.84,319.21,113,319.21Z"/><path id="Path_1702" data-name="Path 1702" class="cls-2" d="M84.91,7.9S79.51-1.59,62.65.23,35.55,4.42,31.11,2.5s-12.53,5.18-7,13.19,14.48,10.16,25.5,4.86,31.12,3.77,34,7S84,42.78,90.17,41.7,96.94,54.4,92,58.56c-3.8,3.22-4.59,14.25-4.59,14.25s19.72-13.18,18.31-36.08S84.19,8.84,84.91,7.9Z"/><path id="Path_1793" data-name="Path 1793" class="cls-1" d="M124.32,187.16a32.61,32.61,0,0,1-5.64,10.12,11.08,11.08,0,0,1-10.44,3.78,12.8,12.8,0,0,1-7-5.7c-2.19-3.13-3.59-7.26-1.86-10.64a25.82,25.82,0,0,1,4.67-5.07c4.51-4.82,4.87-12.05,6.06-18.57a59,59,0,0,1,3.6-12.21c2.44-5.86,6.22-11.68,12.13-14a12.3,12.3,0,0,1,12.29,2.22c4.29,4.09,1.53,8.82-.06,13.74C134.14,163.21,129.23,175.19,124.32,187.16Z"/><path id="Path_1794" data-name="Path 1794" class="cls-3" d="M62.8,85.62c-9.8.86-20.14,1.91-28,7.8a43.86,43.86,0,0,0-11.29,13.71C16.73,118.69,7.17,133.05.87,144.85c-3.35,6.31,23.31,13.28,23.31,13.28a10.88,10.88,0,0,0,5.29-5.55c1.33,17.35,81.61,41.92,81.91-7.73a39.22,39.22,0,0,1,1.41-11.75,34.19,34.19,0,0,1,5.93-9.93c4.25-5.49,6.42-1,11.29-6a5.52,5.52,0,0,0,1.9-3.28c-.11-1.27-19.63-21.17-20.53-22.06C105.22,84.25,79.41,84.19,62.8,85.62Z"/><path id="Path_1795" data-name="Path 1795" class="cls-3" d="M96.7,85.74c9.5,2.55,19.51,5.38,26.28,12.56a44.12,44.12,0,0,1,8.73,15.47c4.62,12.56,5.06,12.41,9.21,25.14,2.21,6.8-20.91,15.52-20.91,15.52a10.81,10.81,0,0,1-4.24-6.39C108.64,141.12,80.59,81.44,96.7,85.74Z"/></svg>