<svg id="Laag_1" data-name="Laag 1" xmlns="http://www.w3.org/2000/svg" viewBox="0 0 130 333"><defs><style>.cls-1{fill:#2f2e41;}.cls-2{fill:#f3bd8f;}.cls-3{fill:#b29dbe;}.cls-4{fill:#541295;}</style></defs><title>illustrations-scaled</title><g id="Kind_4" data-name="Kind 4"><path id="Path_1796" data-name="Path 1796" class="cls-1" d="M37.46,132.23C42.09,125.77,52.07,123,59.6,123s10.77,1.43,10.77,1.43l1.82,4.78,3.17-4.78s14,2.73,14.83,13.68-1.47,15.34-1.47,15.34,8.48,10.25,9,23.08-3.18,17.4-3.18,17.4H83.65s-5.54-14.34-2.53-22.25a44.68,44.68,0,0,0,2.53-16.4l-27.09-8.2-9.07,8.2v16.4s5.24,21.41-1.35,30.21-19.8-17.69-15-32.49,3.28-10.59,3.28-10.59S24.44,142.2,37.46,132.23Z"/><path id="Path_1426" data-name="Path 1426" class="cls-2" d="M96.75,310.34c3.75.16,7.68.29,10.77,2.1,4.45,2.61,5.61,7.83,2.59,11.67a9.37,9.37,0,0,1-3.6,2.75,21.46,21.46,0,0,1-7.12,1.39,340.77,340.77,0,0,1-41.79.58c-3.87-.19-8.37-.76-10.3-3.67a9,9,0,0,1-.68-6.57c.52-3.45,1-8,3.69-10.86,3.29-3.46,6.4-1.7,11.1-.94a289.92,289.92,0,0,0,35.34,3.55Z"/><path id="Path_1427" data-name="Path 1427" class="cls-2" d="M66.72,308.43c3.76,0,7.69-.09,10.89,1.56,4.62,2.42,6.09,7.6,3.29,11.58a9.19,9.19,0,0,1-3.37,2.88,21.4,21.4,0,0,1-7,1.72,333.22,333.22,0,0,1-41.68,2.52c-3.88,0-8.4-.35-10.53-3.16a9.12,9.12,0,0,1-1.09-6.42c.28-3.47.49-8.14,3-11,3.06-3.62,6.27-2,11-1.47a294.63,294.63,0,0,0,35.53,1.82Z"/><path id="Path_1451" data-name="Path 1451" class="cls-3" d="M91.78,222.29c.9,4,0,36.09,5.47,50,5.23,14.1,17.77,27.45,24.86,40.93-19.75,7.91-27.93,16.4-49.54,14-7.62-.86-15-3-22.65-3.87s-15.8-.3-23.68-.87-16-2.42-21.67-7.2L16,296c4.17-7,18.69-16.41,22.09-23.74-.69-13.37-.42-26.88,0-41.91.22-7.78,6.3-16.17,8.2-23.78a17.32,17.32,0,0,1,5.63-9.8c4-3.24,9.76-4,15.16-4.43,7.81-.65,13.87-.91,20.74,3.4S90.53,215.88,91.78,222.29Z"/><path id="Path_1454" data-name="Path 1454" class="cls-2" d="M53.68,187.59c-.6,3.23-.47,7.15,2.51,9.25a11.45,11.45,0,0,0,4.11,1.62,14.17,14.17,0,0,0,3.38.35,10.49,10.49,0,0,0,8.88-6.55,23.5,23.5,0,0,0,.84-10.59,12.51,12.51,0,0,0-1.29-5.5A10.23,10.23,0,0,0,62.72,172C51.86,172.77,54.92,180.84,53.68,187.59Z"/><path id="Path_1456" data-name="Path 1456" class="cls-2" d="M47.5,173.29A23.76,23.76,0,0,0,53.19,181a19.26,19.26,0,0,0,13,4.25c7.7-.31,14.44-5.13,18-11s4.5-12.7,4.71-19.34a26,26,0,0,0-1.59-11.39c-2.87-6-9.07-10.35-16.48-11.54a31.52,31.52,0,0,0-21,4.18,16.57,16.57,0,0,0-5.06,4.39,19.17,19.17,0,0,0-2.82,9,14.26,14.26,0,0,0-.17,6.2,45.53,45.53,0,0,1,1.36,5A50,50,0,0,0,47.5,173.29Z"/><path id="Path_1459" data-name="Path 1459" class="cls-4" d="M113.52,309.94q5-1.83,10.19-3.18c1.54-.49,3.3-1,4.72-.31a3,3,0,0,1,1.56,2.78,7.54,7.54,0,0,1-1,3.09,60.94,60.94,0,0,1-9.3,13.14,17.36,17.36,0,0,1-3.41,3,15,15,0,0,1-8.9,1.87C91.07,329.14,105.63,313.3,113.52,309.94Z"/><path id="Path_1460" data-name="Path 1460" class="cls-4" d="M16.22,314.24q-5.43-.42-10.88-.35c-1.62,0-3.48-.07-4.58,1a2.71,2.71,0,0,0-.49,3.05,8.36,8.36,0,0,0,2.09,2.67,70.29,70.29,0,0,0,13.55,10,19.76,19.76,0,0,0,4.33,2,15.45,15.45,0,0,0,9.13-.59C44.44,326.5,24.91,315.31,16.22,314.24Z"/><path id="Path_1699" data-name="Path 1699" class="cls-1" d="M81.25,128.35s3.82,17.22,3.86,17.73c.22,2.41-17.65-5.49-39.91,1.86-2.75-12.42-9.2-7.14-4.8-10.27s12.51-8,14.36-9.32,7.28-.88,7.28-.88Z"/><path id="Path_1797" data-name="Path 1797" class="cls-1" d="M96.87,272.24c5.22,14.1,22.14,27.56,29.23,41-19.76,7.91-31.92,16.29-53.53,13.85-7.62-.86-15-3-22.65-3.87s-15.8-.3-23.68-.87-16-2.43-21.67-7.2L16,296c4.16-7,18.68-16.42,22.08-23.75C61.87,272.55,72.75,272.13,96.87,272.24Z"/><path id="Path_1428" data-name="Path 1428" class="cls-2" d="M36.8,220.57c-1.18,10,.11,20.07-.45,30.1-.31,5.3-1.09,10.75.64,15.81s7,9.82,13.12,9.52c5.55-.48,9.67-4.66,9.33-9.46a29.28,29.28,0,0,0-2.57-6.83c-2.15-5.45-1.26-11.38-.77-17.07,1-13,1.34-29.07-2.56-41.83-2.63-8.52-8.69-1.46-11.35,3.13a42.32,42.32,0,0,0-5.39,16.63Z"/><path id="Path_1458" data-name="Path 1458" class="cls-2" d="M70.9,236.46c-1.09,8.89-3.51,17.78-2.45,26.66a8.55,8.55,0,0,0,2.1,5.32c2.6,2.61,7.69,2.34,10.88.26s5-5.37,6.47-8.57a96.82,96.82,0,0,0,6.89-59.75,6.82,6.82,0,0,0-1.84-4c-2.33-2.09-6.39-1.29-9.4-.06-4.71,2-11.49,32.47-12.65,40.13Z"/></g></svg>