<svg id="Laag_1" data-name="Laag 1" xmlns="http://www.w3.org/2000/svg" viewBox="0 0 141 337"><defs><style>.cls-1{fill:#e2d3ff;}.cls-2{fill:#fff;}.cls-3{fill:#2f2e41;}.cls-4{fill:#5c40d3;}</style></defs><title>illustrations-scaled</title><path id="Path_1785" data-name="Path 1785" class="cls-1" d="M19.8,186.93a32.64,32.64,0,0,0,6.61,9.87A12.42,12.42,0,0,0,37.81,200a13.44,13.44,0,0,0,7.2-6.1c2.16-3.25,3.44-7.48,1.39-10.78a27.36,27.36,0,0,0-5.28-4.84c-5.12-4.6-5.9-11.85-7.54-18.33A57.55,57.55,0,0,0,29,147.92c-2.94-5.75-7.33-11.4-13.79-13.37a13.77,13.77,0,0,0-13,2.88c-4.37,4.34-1.14,8.94.84,13.79C7.93,163.4,13.86,175.17,19.8,186.93Z"/><path id="Path_1774" data-name="Path 1774" class="cls-2" d="M105.49,255.54l5.25,70.4s-8.59,3.5-13.83,1.41S79,254.85,79,254.85Z"/><path id="Path_1775" data-name="Path 1775" class="cls-2" d="M26.29,251.68l-5.22,70.41s8.59,3.49,13.81,1.4S52.82,251,52.82,251Z"/><path id="Path_1776" data-name="Path 1776" class="cls-3" d="M109.73,206.44s8,109.09,5.34,111.89-23.54,0-23.54,0L66.26,233.48,40.12,318.33s-19.49,2.09-20.94,0,4.94-119.12,10.89-121.59S109.73,206.44,109.73,206.44Z"/><path id="Path_1777" data-name="Path 1777" class="cls-1" d="M127.37,187.92a31.74,31.74,0,0,1-4.89,10.72,12.18,12.18,0,0,1-10.71,4.87,13.79,13.79,0,0,1-8.13-5c-2.68-2.89-4.65-6.88-3.18-10.44a26.51,26.51,0,0,1,4.42-5.56c4.28-5.29,3.85-12.57,4.39-19.21a56.69,56.69,0,0,1,2.47-12.59c2-6.11,5.34-12.33,11.39-15.22a13.9,13.9,0,0,1,13.36.93c5,3.65,2.61,8.67,1.47,13.74C135.16,162.94,131.27,175.44,127.37,187.92Z"/><path id="Path_1778" data-name="Path 1778" class="cls-4" d="M80,83.75c10.51.87,21.6,1.92,30.09,7.85a44.86,44.86,0,0,1,12.1,13.78c7.23,11.63,11.66,20.39,18.41,32.26,3.6,6.35-19.18,19-19.18,19a11.25,11.25,0,0,1-5.67-5.58c-1.43,17.45-3.29,33.68-4.73,51.13a7.09,7.09,0,0,1-1.28,4.22c-1.7,1.91-4.89,1.76-73.81-7.5a6.63,6.63,0,0,1-7.37-5.65,6,6,0,0,1,.13-2V151.09c0-1-5,3.14-5,3.14S1.2,138.62,1,137.65c.13-1.28,7.42-33.56,16.16-43.43,6.61-7.68,11.41-2.84,20.68-8C53.7,85,62.19,82.31,80,83.75Z"/><path id="Path_1779" data-name="Path 1779" class="cls-1" d="M81.6,82.49c.74,4.37.58,9.59-3.07,12.33a12.7,12.7,0,0,1-5,2.11,15.62,15.62,0,0,1-4.09.48c-5-.24-9.18-4.26-10.84-8.75a33.92,33.92,0,0,1-1-14.09,17.57,17.57,0,0,1,1.57-7.33,12.08,12.08,0,0,1,11.42-5.56C83.83,62.77,80.11,73.53,81.6,82.49Z"/><path id="Path_1780" data-name="Path 1780" class="cls-1" d="M93.89,66.48a31.58,31.58,0,0,1-7,10.26A22.48,22.48,0,0,1,71,82.39C61.56,82,53.29,75.56,48.9,67.74S43.36,50.82,43.12,42a37.35,37.35,0,0,1,1.94-15.18A27,27,0,0,1,65.23,11.41,36.27,36.27,0,0,1,91,17a21.55,21.55,0,0,1,6.27,5.86,27.13,27.13,0,0,1,3.46,12A20.66,20.66,0,0,1,101,43c-.65,2.24-1.24,4.3-1.68,6.61A70,70,0,0,1,93.9,66.47Z"/><path id="Path_1782" data-name="Path 1782" class="cls-3" d="M107.19,318.68a19.38,19.38,0,0,1,4.75.17,11.4,11.4,0,0,1,3.1,1.55l11.34,7.27c1.67,1.08,3.54,2.46,3.54,4.35a3.69,3.69,0,0,1-.9,2.32c-2.25,2.73-6.55,2.79-10.23,2.59L102,336a6.34,6.34,0,0,1-6.66-3.64c-2-3.26-5.85-8.36-3.11-12.08C95.55,315.82,102.69,318.68,107.19,318.68Z"/><path id="Path_1783" data-name="Path 1783" class="cls-3" d="M26.12,318.68a19.44,19.44,0,0,0-4.76.17,12.06,12.06,0,0,0-3.11,1.55L6.92,327.67c-1.68,1.07-3.52,2.46-3.54,4.35a3.66,3.66,0,0,0,.92,2.32c2.23,2.73,6.52,2.78,10.23,2.59L31.32,336A6.36,6.36,0,0,0,38,332.37c2-3.26,5.87-8.36,3.13-12.08C37.76,315.82,30.62,318.68,26.12,318.68Z"/><path id="Path_1784" data-name="Path 1784" class="cls-3" d="M55.84,7.63s6-9.45,24-7.32S105.21,26.49,93.49,21s-33.44,3.25-36.6,6.46-4,10.61-7.33,14.09-7.49,12.65-2.3,16.92c4,3.31-16.24.81-14.3-22.19S56.59,8.59,55.84,7.63Z"/></svg>