<svg id="Laag_1" data-name="Laag 1" xmlns="http://www.w3.org/2000/svg" viewBox="0 0 141 337"><defs><style>.cls-1{fill:#f3bd8f;}.cls-2{fill:#2f2e41;}.cls-3{fill:#b29dbe;}.cls-4{fill:#541295;}</style></defs><title>illustrations-scaled</title><path id="Path_1458" data-name="Path 1458" class="cls-1" d="M107.39,154.32a60.08,60.08,0,0,0-19-22.31c-5.12-3.57-4.88-5.37-4-12.41a48.9,48.9,0,0,1,5.34-16.67c1.78-3.28,4.8-6.78,8.36-6.05a9.25,9.25,0,0,1,4.5,3.1,147.86,147.86,0,0,1,36.86,68.78c1,4.4,1.76,9.12.43,13.42s-5.63,7.91-9.81,6.79a11.74,11.74,0,0,1-5.68-4.36c-7.32-8.86-11.56-20-17-30.29Z"/><path id="Path_1426" data-name="Path 1426" class="cls-1" d="M99.75,311.33c.23,4.25.51,8.69-1.4,12.41a10.28,10.28,0,0,1-14.24,4.53,10.73,10.73,0,0,1-3.84-3.68,22,22,0,0,1-2.53-7.82,347.07,347.07,0,0,1-5.45-46.95c-.21-4.38,0-9.52,3.4-12.09a12.49,12.49,0,0,1,8.11-1.68c4.35.11,10.13,0,13.94,2.66,4.68,3.23,2.84,7,2.43,12.36a300.53,300.53,0,0,0-.42,40.26Z"/><path id="Path_1427" data-name="Path 1427" class="cls-1" d="M54.61,309.23c-.24,4.25-.47,8.69-2.78,12.15A10.26,10.26,0,0,1,37.11,324,11,11,0,0,1,33.77,320a22.51,22.51,0,0,1-1.62-8.07,345.67,345.67,0,0,1,0-47.3c.28-4.38,1.07-9.45,4.74-11.6a12.56,12.56,0,0,1,8.11-.64c4.32.64,10.14,1.3,13.56,4.38,4.3,3.78,2,7.27,1,12.56a300.76,300.76,0,0,0-5,39.94Z"/><path id="Path_1428" data-name="Path 1428" class="cls-1" d="M24,122.56c-5.67,11.77-8.9,24.67-14,36.73C7.36,165.67,4.12,172,3.59,179s2.61,14.87,9,17a11.15,11.15,0,0,0,13.66-7.81,44.31,44.31,0,0,0,.47-9.42c.28-7.56,3.85-14.47,6.89-21.24,6.89-15.6,14.41-35.12,16.22-52.35,1.17-11.52-8.11-5.32-12.86-.77A62.07,62.07,0,0,0,24,122.56Z"/><path id="Path_1429" data-name="Path 1429" class="cls-2" d="M39.78,10.7a40,40,0,0,0-9.2,26.6c.35,8.06,3.3,15.67,5.18,23.49a86.53,86.53,0,0,1,2.39,20.1c0,6.24-.54,12.88,2.33,18.35a20.78,20.78,0,0,0,9.36,8.52c12.67,6.33,28.41,3.49,39.86-5a22.72,22.72,0,0,0,6.7-7.19c2.92-5.45,2.3-12.23.74-18.25s-3.91-11.92-4.25-18.16A65.45,65.45,0,0,1,94,46q1.48-10.19,2-20.49a32.27,32.27,0,0,0-.29-7.67A19.3,19.3,0,0,0,81.5,3.18c-4-1-8.18-.8-12.22-1.49-2.7-.47-5.33-1.32-8-1.62C53.53-.7,44.49,4.83,39.78,10.7Z"/><path id="Path_1451" data-name="Path 1451" class="cls-3" d="M99.71,127.4a107.17,107.17,0,0,0,4.06,15.41c5.69,18.27,11.39,36.54,17.25,54.75A512.18,512.18,0,0,0,141,252c-21.34,10.39-44.19,20.91-67.54,17.7-8.23-1.13-16.22-4-24.47-5.08s-17.06-.4-25.58-1.15S6.08,260.26,0,254l12.32-25.24c4.5-9.22,9-18.46,12.67-28.09A174.05,174.05,0,0,0,36.18,143c.25-10.22-.4-20.58,1.64-30.59a24.3,24.3,0,0,1,6.09-12.88c4.31-4.25,10.54-5.22,16.37-5.82,8.44-.85,26.74-4.8,34.16.87S98.35,119,99.71,127.4Z"/><path id="Path_1454" data-name="Path 1454" class="cls-1" d="M53.06,86.35c-.65,4.25-.51,9.39,2.72,12.16a11.16,11.16,0,0,0,4.43,2.12,12.88,12.88,0,0,0,3.65.47c4.47-.22,8.11-4.25,9.59-8.61a37,37,0,0,0,.91-13.91A19.19,19.19,0,0,0,73,71.35a10.34,10.34,0,0,0-10.13-5.42C51.1,66.89,54.4,77.49,53.06,86.35Z"/><path id="Path_1456" data-name="Path 1456" class="cls-1" d="M46.39,67.57a31.52,31.52,0,0,0,6.14,10.1,18.57,18.57,0,0,0,14.08,5.59c8.31-.41,15.59-6.74,19.49-14.46S91,52.12,91.19,43.4a40.87,40.87,0,0,0-1.72-15,24.28,24.28,0,0,0-17.8-15.17A29.17,29.17,0,0,0,49,18.77a19.92,19.92,0,0,0-5.47,5.76,29.2,29.2,0,0,0-3,11.77,22.73,22.73,0,0,0-.18,8.14q.89,3.23,1.47,6.52A75.49,75.49,0,0,0,46.39,67.57Z"/><path id="Path_1459" data-name="Path 1459" class="cls-4" d="M104.25,319.89a106.53,106.53,0,0,1,9,7.9c1.36,1.19,2.88,2.58,2.88,4.42a4,4,0,0,1-2.17,3.36,10,10,0,0,1-3.91,1,74.1,74.1,0,0,1-19.28-.49,19.17,19.17,0,0,1-5.13-1.36,14.77,14.77,0,0,1-6.83-7.5C71.29,310.48,96.35,314.35,104.25,319.89Z"/><path id="Path_1460" data-name="Path 1460" class="cls-4" d="M30.1,319.89a110.59,110.59,0,0,0-9,7.9c-1.34,1.19-2.86,2.57-2.86,4.42a4,4,0,0,0,2.17,3.36,10,10,0,0,0,3.92,1,74,74,0,0,0,19.27-.49,19.45,19.45,0,0,0,5.13-1.36,14.85,14.85,0,0,0,6.83-7.5C63,310.48,38,314.35,30.1,319.89Z"/><path id="Path_1699" data-name="Path 1699" class="cls-2" d="M62.7,15.25s3,24.11-23.25,34.65c-3-16.3-5.49-21.67-.74-25.78S52.22,13.65,54.23,11.88s7.87-1.16,7.87-1.16Z"/><path id="Path_1700" data-name="Path 1700" class="cls-2" d="M61.61,15.41S65,39.46,93.07,42C91.64,25.47,92.65,19.59,87,17S71.27,10.85,68.87,9.72,61,10.88,61,10.88Z"/></svg>