<svg id="Laag_1" data-name="Laag 1" xmlns="http://www.w3.org/2000/svg" viewBox="0 0 130 333"><defs><style>.cls-1{fill:#2f2e41;}.cls-2{fill:#e2d3ff;}.cls-3{fill:#5c40d3;}</style></defs><title>illustrations-scaled</title><g id="Kind_4" data-name="Kind 4"><path id="Path_1796" data-name="Path 1796" class="cls-1" d="M43.51,97.26c4.61-7.62,14.55-10.89,22.05-10.89s10.73,1.69,10.73,1.69l1.82,5.63,3.15-5.63s19.52,1.13,20.34,14a26.36,26.36,0,0,1-7,20.17l-5,2.16-27-9.66-9,9.66v8.62S30.53,109,43.51,97.26Z"/><path id="Path_1426" data-name="Path 1426" class="cls-2" d="M96.69,306.28c3.74.19,7.65.34,10.72,2.48A10,10,0,0,1,110,322.52a9.71,9.71,0,0,1-3.59,3.24,18.37,18.37,0,0,1-7.09,1.64,286.43,286.43,0,0,1-41.63.68c-3.85-.22-8.34-.9-10.26-4.32a12.56,12.56,0,0,1-.68-7.75c.52-4.07,1-9.49,3.67-12.81,3.29-4.08,6.38-2,11.06-1.11a246.76,246.76,0,0,0,35.21,4.19Z"/><path id="Path_1427" data-name="Path 1427" class="cls-2" d="M66.77,304c3.75,0,7.66-.11,10.85,1.84a10.06,10.06,0,0,1,3.28,13.66,9.91,9.91,0,0,1-3.36,3.39,18.65,18.65,0,0,1-7,2,282.85,282.85,0,0,1-41.52,3c-3.86,0-8.37-.41-10.49-3.72a12.54,12.54,0,0,1-1.08-7.58c.28-4.09.48-9.59,3-13,3-4.28,6.25-2.36,11-1.74A247.92,247.92,0,0,0,66.77,304Z"/><path id="Path_1451" data-name="Path 1451" class="cls-3" d="M91.74,202.45c.89,4.7.05,42.56,5.45,58.9,5.2,16.63,17.7,32.37,24.77,48.27C102.27,319,94.13,329,72.6,326.08c-7.59-1-15-3.57-22.56-4.56s-15.74-.36-23.59-1-16-2.86-21.59-8.49l11.36-22.65c4.15-8.28,18.62-19.36,22-28-.68-15.76-.41-31.69,0-49.42.23-9.17,6.29-19.06,8.17-28A21.56,21.56,0,0,1,52,172.33c4-3.81,9.72-4.69,15.1-5.22,7.78-.77,13.82-1.08,20.66,4S90.49,194.9,91.74,202.45Z"/><path id="Path_1454" data-name="Path 1454" class="cls-2" d="M59.67,162.53c-.6,3.82-.47,8.43,2.5,10.91a10.45,10.45,0,0,0,4.09,1.91,12,12,0,0,0,3.37.42c4.11-.2,7.47-3.82,8.84-7.73a32.66,32.66,0,0,0,.84-12.49A16.91,16.91,0,0,0,78,149.07a9.59,9.59,0,0,0-9.35-4.87C57.85,145.06,60.9,154.58,59.67,162.53Z"/><path id="Path_1456" data-name="Path 1456" class="cls-2" d="M53.51,145.68a28.1,28.1,0,0,0,5.67,9.06,17.4,17.4,0,0,0,13,5c7.67-.37,14.38-6,18-13s4.49-15,4.7-22.81a35.68,35.68,0,0,0-1.59-13.42A22.22,22.22,0,0,0,76.83,96.94a27.39,27.39,0,0,0-20.95,4.93,17.74,17.74,0,0,0-5,5.17A25.74,25.74,0,0,0,48,117.61a19.7,19.7,0,0,0-.17,7.3,58.52,58.52,0,0,1,1.35,5.86A67.7,67.7,0,0,0,53.51,145.68Z"/><path id="Path_1459" data-name="Path 1459" class="cls-1" d="M113.4,305.81a96.45,96.45,0,0,1,10.15-3.75c1.53-.57,3.29-1.19,4.69-.36A3.62,3.62,0,0,1,129.8,305a9.73,9.73,0,0,1-1,3.65,73.06,73.06,0,0,1-9.26,15.48,18.57,18.57,0,0,1-3.4,3.57,13,13,0,0,1-8.86,2.2C91,328.44,105.53,309.77,113.4,305.81Z"/><path id="Path_1460" data-name="Path 1460" class="cls-1" d="M16.47,310.88a98.11,98.11,0,0,0-10.84-.41c-1.62-.05-3.47-.09-4.56,1.15a3.65,3.65,0,0,0-.49,3.6,9.82,9.82,0,0,0,2.08,3.15,71.84,71.84,0,0,0,13.5,11.8,18.21,18.21,0,0,0,4.32,2.33,13.09,13.09,0,0,0,9.09-.71C44.58,325.34,25.13,312.14,16.47,310.88Z"/><path id="Path_1699" data-name="Path 1699" class="cls-1" d="M87.13,92.68S90.93,113,91,113.59c.21,2.83-17.59-6.48-39.76,2.19-2.74-14.64-9.16-8.42-4.78-12.11s12.45-9.39,14.31-11,7.25-1,7.25-1Z"/><path id="Path_1797" data-name="Path 1797" class="cls-1" d="M96.81,261.35c5.2,16.63,22,32.5,29.12,48.4-19.68,9.33-31.8,19.21-53.33,16.33-7.59-1-14.95-3.57-22.56-4.56s-15.74-.36-23.59-1-16-2.86-21.59-8.49l11.37-22.65c4.15-8.28,18.61-19.36,22-28C62,261.72,72.78,261.22,96.81,261.35Z"/><path id="Path_1428" data-name="Path 1428" class="cls-2" d="M31.6,214c-1.17,11.78.56,11.55,0,23.37-.31,6.25,3.83,11.24,5.56,17.2s.57,3.82,1.79,7.37c2.39-.25,11.23,0,11.23,0s4.61,7.44,4.42,4.22c1.19-7.43-4.34-16.48-5.48-19.06C47,240.66,45.93,229.74,46.41,223c1-15.39,11.12-30.87,7.24-45.91C51,167.07,45,175.4,42.34,180.81,39.39,187,32.2,207.17,31.6,214Z"/><path id="Path_1458" data-name="Path 1458" class="cls-2" d="M86.84,215.49c-.57,32.51-9,40.56-6.54,50.77C84,267.44,84,260.43,85.51,262c3.62-.13,5.88.15,10.95,0,1.93-1.3.7-8.14,1.64-12.1a133.56,133.56,0,0,0-2.82-70.75,8.67,8.67,0,0,0-2.46-4.39c-2.63-2.11-5.81-3.52-7.31,6.65s1.24,25,1.34,34Z"/></g></svg>