<svg id="Laag_1" data-name="Laag 1" xmlns="http://www.w3.org/2000/svg" viewBox="0 0 130 333"><defs><style>.cls-1{fill:#2f2e41;}.cls-2{fill:#f3bd8f;}.cls-3{fill:#bdb6cb;}.cls-4{fill:#5c40d3;}</style></defs><title>illustrations-scaled</title><g id="Kind_5" data-name="Kind 5"><path id="Path_1784" data-name="Path 1784" class="cls-1" d="M74.64,88.69c23.6,10,31,57.26,1.77,58.78-9.36-5.56-24.85-38.52-27.36-35.29s-3.23,10.69-5.85,14.21-6,12.75-1.84,17c3.2,3.33-16.26,1.27-14.71-21.91S51,78.64,74.64,88.69Z"/><path id="Path_1774" data-name="Path 1774" class="cls-2" d="M49.2,302l59.47,9.92s1.48,8.67-1.12,13.07-63.32,1.36-63.32,1.36Z"/><path id="Path_1775" data-name="Path 1775" class="cls-2" d="M26.94,312.71l-2,16.38a64.43,64.43,0,0,0,10.93-1.73c4-1.24,12-18.73,12-18.73Z"/><path id="Path_1778" data-name="Path 1778" class="cls-3" d="M67.49,169c8.39.87,17.24,1.93,24,7.9a43.85,43.85,0,0,1,9.66,13.89c5.76,11.72,9.3,20.55,14.69,32.51,2.87,6.4-15.31,19.17-15.31,19.17A10.33,10.33,0,0,1,96,236.8c-1.14,17.59-2.63,33.94-3.77,51.53a8.57,8.57,0,0,1-1,4.25c-1.35,1.93-3.9,1.78-58.89-7.56-2.95.35-5.58-2.19-5.88-5.69a7.75,7.75,0,0,1,.1-2V236.8c0-1-4,3.17-4,3.17S4.61,224.24,4.46,223.26c.1-1.29,5.92-33.82,12.9-43.77,5.27-7.73,9.1-2.86,16.5-8C46.5,170.17,53.27,167.5,67.49,169Z"/><path id="Path_1779" data-name="Path 1779" class="cls-2" d="M68.76,167.67c.59,4.41.46,9.67-2.44,12.43a9.27,9.27,0,0,1-4,2.12,10.08,10.08,0,0,1-3.26.49c-4-.24-7.33-4.29-8.65-8.82a42.85,42.85,0,0,1-.84-14.2,21.8,21.8,0,0,1,1.26-7.38c1.84-3.83,5.4-6,9.11-5.61C70.54,147.8,67.57,158.64,68.76,167.67Z"/><ellipse id="Ellipse_215" data-name="Ellipse 215" cx="59.94" cy="161.93" rx="10.46" ry="8.85"/><path id="Path_1780" data-name="Path 1780" class="cls-2" d="M78.57,151.53A33.18,33.18,0,0,1,73,161.88a15.82,15.82,0,0,1-12.72,5.69c-7.52-.43-14.11-6.88-17.62-14.77s-4.42-17-4.61-26a47.1,47.1,0,0,1,1.54-15.3c2.82-8.05,8.87-13.88,16.1-15.5a24.24,24.24,0,0,1,20.57,5.59,19.7,19.7,0,0,1,5,5.9,32.75,32.75,0,0,1,2.76,12,26.32,26.32,0,0,1,.18,8.31c-.52,2.25-1,4.33-1.34,6.66a84.37,84.37,0,0,1-4.3,17Z"/><path id="Path_1782" data-name="Path 1782" class="cls-1" d="M108.42,314.42a16.66,16.66,0,0,1,2.59-3.27,8.19,8.19,0,0,1,2.63-1.19l10.6-3.27c1.57-.49,3.43-.9,4.65.35a4.17,4.17,0,0,1,1,2.18c.57,3.4-1.64,6.51-3.69,9l-9.39,11.37a4.63,4.63,0,0,1-5.83,2.34c-3.16-.69-8.43-1.35-9.38-5.77C100.49,320.83,106.06,317.63,108.42,314.42Z"/><path id="Path_1783" data-name="Path 1783" class="cls-1" d="M21.85,314.72a15.81,15.81,0,0,0-2.88-3,8.09,8.09,0,0,0-2.71-.86L5.42,309c-1.6-.29-3.48-.46-4.59.93A4.26,4.26,0,0,0,0,312.2c-.28,3.44,2.2,6.25,4.47,8.5l10.33,10.14a4.52,4.52,0,0,0,6,1.6c3.08-1.09,8.27-2.38,8.84-6.89C30.3,320.11,24.48,317.61,21.85,314.72Z"/><path id="Path_1798" data-name="Path 1798" class="cls-1" d="M34.78,116.57s35.61-9.87,37.35-14.46,3.27,10.77,13.45,22.1-4.88-28-4.88-28L58.22,90.82l-18.1,11.29Z"/><g id="Group_332" data-name="Group 332"><path id="Rectangle_582" data-name="Rectangle 582" class="cls-1" d="M48.49,256.86H84.34c2.2,0,4,2.12,4,4.72v13c0,2.61-1.79,4.72-4,4.72H48.49c-2.2,0-4-2.11-4-4.72v-13C44.51,259,46.29,256.86,48.49,256.86Z"/><path id="Rectangle_583" data-name="Rectangle 583" class="cls-4" d="M47.49,256.86h4v22.41h-4a3.29,3.29,0,0,1-3-3.54V260.4A3.3,3.3,0,0,1,47.49,256.86Z"/><path id="Rectangle_584" data-name="Rectangle 584" class="cls-4" d="M81.35,256.86h4a3.3,3.3,0,0,1,3,3.54v15.33a3.3,3.3,0,0,1-3,3.54h-4V256.86Z"/></g><path id="Path_1785" data-name="Path 1785" class="cls-2" d="M30.57,271.69a30,30,0,0,0,7.51,7.68,8.22,8.22,0,0,0,9.5,0c2.09-2,4.76-4.35,4-7.87s-7.19-5.67-7.09-6.18c0-2.13,0-2.12.23-5.61.43-1.68,1.24-1.45-.62-2.24-5-3-4,.45-6.44-2.73C34,250,19.49,222.58,14.07,222.46c-3.19,0-6.23,3.37-8.7,1-2.59,1.6-1.46,5-1.64,5.41-2.25,5.39,2.46,8.88,5.18,13C15.67,252.29,23.12,262,30.57,271.69Z"/><path id="Path_1777" data-name="Path 1777" class="cls-2" d="M96.91,272.52c-1.34,3.26-8.34,6.75-8.54,7-2.48,2.74-6.21-6.36-6.33-10.1s6.88-2,5.84-4.86c.29-3.3.35-1.8,0-4.86,1.32-1.73.75-.56,1.4-.68,1.09-4.12,8.33-28.88,13.35-30.36,1.3-.36,1.9,2.45,3.48,2.73,2.09.34,8.48-8.51,10.15-6.32,3.22,4.66-2,8-3.88,12.7C107.76,249.66,102.34,261.1,96.91,272.52Z"/><path id="Path_1808" data-name="Path 1808" class="cls-1" d="M28.3,282.47S6.65,269.11,1.39,288s11.33,26.77,11.33,26.77,49.6,18,58.1,16.12S104,327.34,104,327.34l-2.09-10.26s34.91-7.08,22.49-27.24-33.92,2.39-33.92,2.39Z"/></g></svg>