<svg id="Laag_1" data-name="Laag 1" xmlns="http://www.w3.org/2000/svg" viewBox="0 0 141 337"><defs><style>.cls-1{fill:#f3bd8f;}.cls-2{fill:#2f2e41;}.cls-3{fill:#bdb6cb;}</style></defs><title>illustrations-scaled</title><path id="Path_1458" data-name="Path 1458" class="cls-1" d="M106.33,152.76a59.89,59.89,0,0,0-19-22.25c-5.12-3.56-4.87-5.35-4-12.37a48.57,48.57,0,0,1,5.34-16.62c1.78-3.27,4.8-6.76,8.36-6a9.17,9.17,0,0,1,4.5,3.09,147.26,147.26,0,0,1,36.86,68.57c1,4.39-4.92,10.7-9.38,7.79-1.33,4.29,4.18,13.48,0,12.36a11.78,11.78,0,0,1-5.68-4.35c-7.32-8.83-11.57-19.95-17-30.19Z"/><path id="Path_1426" data-name="Path 1426" class="cls-1" d="M99.75,311.41c.23,4.24.51,8.66-1.4,12.37a10.3,10.3,0,0,1-14.24,4.52,10.79,10.79,0,0,1-3.84-3.67,21.94,21.94,0,0,1-2.53-7.8A345.22,345.22,0,0,1,72.29,270c-.21-4.37,0-9.49,3.4-12.06a12.54,12.54,0,0,1,8.11-1.67c4.35.11,10.13,0,13.94,2.65,4.68,3.22,2.84,6.95,2.43,12.33a298.73,298.73,0,0,0-.42,40.14Z"/><path id="Path_1427" data-name="Path 1427" class="cls-1" d="M54.61,309.31c-.24,4.24-.47,8.67-2.78,12.12a10.27,10.27,0,0,1-14.72,2.64A11,11,0,0,1,33.77,320,22.36,22.36,0,0,1,32.15,312a343.48,343.48,0,0,1,0-47.15c.28-4.37,1.07-9.43,4.74-11.57a12.49,12.49,0,0,1,8.11-.63c4.32.63,10.14,1.29,13.56,4.36,4.3,3.77,2,7.24,1,12.52a299.19,299.19,0,0,0-5,39.82Z"/><path id="Path_1428" data-name="Path 1428" class="cls-1" d="M24,123.2c-5.67,11.73-8.9,24.59-14,36.62-2.7,6.36-5.94,12.71-6.47,19.6-.39,5.08,3.86,8.35,7.54,12.05,1,1,5.43-7,7.09-6.42,5.82,1.66,6.18,9.53,8,3.52a44,44,0,0,0,.47-9.39c.28-7.54,3.85-14.42,6.89-21.18,6.89-15.55,14.41-35,16.22-52.2,1.17-11.48-8.11-5.29-12.86-.76A61.8,61.8,0,0,0,24,123.19Z"/><path id="Path_1429" data-name="Path 1429" class="cls-2" d="M39.78,11.66a39.9,39.9,0,0,0-9.2,26.53c.35,8,3.3,15.63,5.18,23.42a86,86,0,0,1,2.39,20c0,6.22-.54,12.84,2.33,18.3a20.9,20.9,0,0,0,9.36,8.5c12.67,6.3,28.41,3.47,39.86-5a22.76,22.76,0,0,0,6.7-7.17c2.92-5.44,2.3-12.19.74-18.2S93.23,66.18,92.89,60A65.06,65.06,0,0,1,94,46.81q1.48-10.16,2-20.43a32,32,0,0,0-.29-7.64A19.27,19.27,0,0,0,81.5,4.17c-4-1-8.18-.8-12.22-1.49-2.7-.46-5.33-1.31-8-1.61C53.53.31,44.49,5.81,39.78,11.66Z"/><path id="Path_1451" data-name="Path 1451" class="cls-3" d="M99.71,128a106.39,106.39,0,0,0,4.06,15.35C109.46,161.6,115.16,179.82,121,198a509.52,509.52,0,0,0,20,54.25c-21.34,10.36-44.19,20.85-67.54,17.65-8.23-1.12-16.22-4-24.47-5.06s-17.06-.41-25.58-1.15S6.08,260.48,0,254.24l12.32-25.17c4.5-9.19,9-18.41,12.67-28a173.12,173.12,0,0,0,11.19-57.45c.25-10.19-.4-20.53,1.64-30.51a24.15,24.15,0,0,1,6.09-12.83c4.31-4.24,10.54-5.21,16.37-5.81,8.44-.85,26.74-4.79,34.16.87S98.35,119.64,99.71,128Z"/><path id="Path_1454" data-name="Path 1454" class="cls-1" d="M53.06,87.1c-.65,4.23-.51,9.36,2.72,12.11a11,11,0,0,0,4.43,2.12,12.88,12.88,0,0,0,3.65.47c4.47-.22,8.11-4.24,9.59-8.58a36.89,36.89,0,0,0,.91-13.88,19.07,19.07,0,0,0-1.4-7.2,10.32,10.32,0,0,0-10.13-5.4C51.1,67.69,54.4,78.26,53.06,87.1Z"/><ellipse id="Ellipse_215" data-name="Ellipse 215" cx="64.93" cy="80.28" rx="11.16" ry="8.33"/><path id="Path_1456" data-name="Path 1456" class="cls-1" d="M46.39,68.37a31.38,31.38,0,0,0,6.14,10.07A18.55,18.55,0,0,0,66.61,84C74.92,83.6,82.2,77.29,86.1,69.6S91,53,91.19,44.27a40.68,40.68,0,0,0-1.72-14.92,24.26,24.26,0,0,0-17.8-15.12A29.23,29.23,0,0,0,49,19.71a20,20,0,0,0-5.47,5.74,29.15,29.15,0,0,0-3,11.75,22.56,22.56,0,0,0-.18,8.11q.89,3.21,1.47,6.5A75.22,75.22,0,0,0,46.39,68.37Z"/><path id="Path_1459" data-name="Path 1459" class="cls-2" d="M104.25,319.94a104.54,104.54,0,0,1,9,7.88c1.36,1.19,2.88,2.57,2.88,4.41a4,4,0,0,1-2.17,3.35,10.11,10.11,0,0,1-3.91,1,74.53,74.53,0,0,1-19.28-.48,20,20,0,0,1-5.13-1.36,14.77,14.77,0,0,1-6.83-7.48C71.29,310.56,96.35,314.42,104.25,319.94Z"/><path id="Path_1460" data-name="Path 1460" class="cls-2" d="M30.1,319.94a112.29,112.29,0,0,0-9,7.88c-1.34,1.19-2.86,2.56-2.86,4.41a4,4,0,0,0,2.17,3.35,9.94,9.94,0,0,0,3.92,1,74,74,0,0,0,19.27-.49,19.43,19.43,0,0,0,5.13-1.35,14.85,14.85,0,0,0,6.83-7.48C63,310.56,38,314.42,30.1,319.94Z"/><path id="Path_1699" data-name="Path 1699" class="cls-2" d="M62.7,16.2s3,24-23.25,34.55c-3-16.25-5.49-21.6-.74-25.7S52.22,14.61,54.23,12.84s7.87-1.15,7.87-1.15Z"/><path id="Path_1700" data-name="Path 1700" class="cls-2" d="M61.61,16.36s3.43,24,31.46,26.52C91.64,26.39,92.65,20.53,87,18s-15.73-6.14-18.13-7.27S61,11.85,61,11.85Z"/></svg>