<svg id="Laag_1" data-name="Laag 1" xmlns="http://www.w3.org/2000/svg" viewBox="0 0 141 337"><defs><style>.cls-1{fill:#f3bd8f;}.cls-2{fill:#2f2e41;}.cls-3{fill:#bdb6cb;}</style></defs><title>illustrations-scaled</title><path id="Path_1688" data-name="Path 1688" class="cls-1" d="M39,256.1,34.16,326s8,3.47,12.89,1.39,16.71-72,16.71-72Z"/><path id="Path_1689" data-name="Path 1689" class="cls-1" d="M112.89,252.28l4.86,69.91s-8,3.47-12.87,1.4-16.73-72-16.73-72Z"/><path id="Path_1690" data-name="Path 1690" class="cls-2" d="M35.1,207.34s-3.36,47-.92,49.81,31.7.71,31.7.71l9.75-23.66,9.74,26.07s28.61,0,30-2.07-.42-58-6-60.49S35.1,207.34,35.1,207.34Z"/><path id="Path_1692" data-name="Path 1692" class="cls-3" d="M62.8,85.51c-9.8.85-20.13,1.9-28,7.79A43.89,43.89,0,0,0,23.46,107c-6.73,11.54-10.87,20.25-17.16,32-3.36,6.3,17.89,18.89,17.89,18.89a10.85,10.85,0,0,0,5.28-5.54c1.33,17.33,3.07,33.44,4.4,50.77a7.44,7.44,0,0,0,1.2,4.2c1.59,1.9,4.56,1.75,7,1.41l61.77-8.86a6.27,6.27,0,0,0,6.75-7.62l.75-47.61a38.7,38.7,0,0,1,1.41-11.73,34.19,34.19,0,0,1,5.93-9.93c4.25-5.48,6.42-1,11.29-5.94a5.46,5.46,0,0,0,1.9-3.28,5.3,5.3,0,0,0-1.58-3.33C124.17,102.84,79.42,84.08,62.8,85.51Z"/><path id="Path_1693" data-name="Path 1693" class="cls-1" d="M61.32,84.25c-.69,4.34-.54,9.52,2.86,12.25a11.62,11.62,0,0,0,4.69,2.09,13.64,13.64,0,0,0,3.81.48c4.72-.23,8.57-4.23,10.11-8.69a35.93,35.93,0,0,0,1-14,18.51,18.51,0,0,0-1.46-7.27,11,11,0,0,0-10.64-5.53C59.24,64.67,62.71,75.36,61.32,84.25Z"/><path id="Path_2516" data-name="Path 2516" d="M83.13,70.9l.72,6.1s-3.53,8.18-14,7.36S58.69,76.2,58.69,76.2Z"/><path id="Path_1691" data-name="Path 1691" class="cls-1" d="M20.75,194c1.64,3.53,10.65,10.95,13.51,11.88,3.64,1.92,11-.26,11-6.57s-11.12-5.55-11-8c.06-1.3-.21-18.36-2.07-24.71a60,60,0,0,0-4.86-11.75c-3.05-5.56-7.43-10.95-13.54-12.59a12.29,12.29,0,0,0-12,3.49c-3.84,4.52-.59,8.93,1.5,13.64C8.47,171.27,14.61,182.66,20.75,194Z"/><path id="Path_1694" data-name="Path 1694" class="cls-1" d="M48.42,65.7A31.45,31.45,0,0,0,54.74,76,20.1,20.1,0,0,0,69.5,81.87c8.79-.27,16.61-6.49,20.84-14.19S95.8,51,96.18,42.2a39.6,39.6,0,0,0-1.55-15.11A25.49,25.49,0,0,0,76.1,11.49,32.21,32.21,0,0,0,52,16.58,20.76,20.76,0,0,0,46,22.29,28.19,28.19,0,0,0,42.59,34.1a21.72,21.72,0,0,0-.34,8.19c.57,2.23,1.08,4.29,1.44,6.59A73.32,73.32,0,0,0,48.42,65.7Z"/><path id="Path_1697" data-name="Path 1697" class="cls-2" d="M37.46,318.8A17.67,17.67,0,0,0,33,319a10.13,10.13,0,0,0-2.9,1.55l-10.57,7.21c-1.56,1.07-3.3,2.44-3.3,4.33a3.77,3.77,0,0,0,.84,2.3c2.1,2.71,6.1,2.76,9.54,2.57L42.3,336a5.88,5.88,0,0,0,6.22-3.62c1.91-3.24,5.45-8.3,2.9-12C48.31,316,41.66,318.8,37.46,318.8Z"/><path id="Path_1698" data-name="Path 1698" class="cls-2" d="M113,318.8a17.38,17.38,0,0,1,4.44.17,10.94,10.94,0,0,1,2.9,1.55l10.56,7.21c1.57,1.07,3.28,2.44,3.3,4.33a3.78,3.78,0,0,1-.85,2.3c-2.08,2.71-6.09,2.76-9.54,2.57L108.19,336a5.86,5.86,0,0,1-6.2-3.62c-1.9-3.24-5.47-8.3-2.91-12C102.19,316,108.84,318.8,113,318.8Z"/><path id="Path_1702" data-name="Path 1702" class="cls-2" d="M84.92,7.88S79.52-1.59,62.66.23,35.56,4.41,31.11,2.5s-12.52,5.17-7,13.17,14.47,10.15,25.5,4.86,31.11,3.76,34,7,.44,15.2,6.59,14.11S96.94,54.33,92,58.48c-3.8,3.22-4.59,14.23-4.59,14.23s19.73-13.16,18.31-36S84.2,8.83,84.92,7.88Z"/><path id="Path_1793" data-name="Path 1793" class="cls-1" d="M124.32,186.91A32.61,32.61,0,0,1,118.68,197c-2.55,3-11.9,3.25-15.81,2.55-3-1-7.08-11.19,8.12-12.66-2.19-3.12-2.1-19.54-.91-26a59.38,59.38,0,0,1,3.6-12.2c2.44-5.85,6.23-11.66,12.14-13.94A12.32,12.32,0,0,1,138.11,137c4.29,4.1,1.53,8.82-.06,13.72C134.14,163,129.24,175,124.32,186.91Z"/><path id="Path_1794" data-name="Path 1794" class="cls-3" d="M62.81,85.51c-9.8.85-20.14,1.9-28.06,7.79A44,44,0,0,0,23.46,107C16.73,118.53,7.17,132.88.88,144.66c-3.36,6.31,23.31,13.26,23.31,13.26a10.81,10.81,0,0,0,5.28-5.54c1.34,17.33,81.61,41.87,81.91-7.72a39.06,39.06,0,0,1,1.41-11.73,34.36,34.36,0,0,1,5.93-9.92c4.25-5.49,6.43-1,11.29-5.94a5.58,5.58,0,0,0,1.91-3.28c-.11-1.26-19.63-21.14-20.54-22C105.22,84.15,79.42,84.08,62.81,85.51Z"/><path id="Path_1795" data-name="Path 1795" class="cls-3" d="M96.7,85.63C106.21,88.18,116.21,91,123,98.18a43.94,43.94,0,0,1,8.73,15.45c4.62,12.54,5.06,12.39,9.21,25.1,2.21,6.79-20.91,15.5-20.91,15.5a10.81,10.81,0,0,1-4.24-6.38C108.64,140.93,80.59,81.33,96.7,85.63Z"/></svg>