<svg id="Laag_1" data-name="Laag 1" xmlns="http://www.w3.org/2000/svg" viewBox="0 0 141 337"><defs><style>.cls-1{fill:#e2d3ff;}.cls-2{fill:#2f2e41;}.cls-3{fill:#5c40d3;}</style></defs><title>illustrations-scaled</title><path id="Path_1458" data-name="Path 1458" class="cls-1" d="M103,150.61a59.8,59.8,0,0,0-19-22.24C78.93,124.8,79.18,123,80.1,116a48.73,48.73,0,0,1,5.31-16.62c1.77-3.27,4.78-6.75,8.32-6a9.22,9.22,0,0,1,4.48,3.09A147.46,147.46,0,0,1,134.89,165c1,4.39-4.9,10.7-9.34,7.78-1.32,4.29,4.16,13.48,0,12.36a11.59,11.59,0,0,1-5.65-4.35c-7.28-8.83-11.51-19.94-16.92-30.18Z"/><path id="Path_1426" data-name="Path 1426" class="cls-1" d="M99.26,311.42c.23,4.23.51,8.66-1.39,12.37A10.23,10.23,0,0,1,83.7,328.3a10.73,10.73,0,0,1-3.82-3.67,21.94,21.94,0,0,1-2.52-7.79A346.79,346.79,0,0,1,71.93,270c-.2-4.36,0-9.48,3.39-12a12.43,12.43,0,0,1,8.07-1.67c4.33.11,10.08,0,13.87,2.65,4.66,3.22,2.83,6.94,2.42,12.32a300.41,300.41,0,0,0-.42,40.14Z"/><path id="Path_1427" data-name="Path 1427" class="cls-1" d="M54.34,309.32c-.24,4.24-.46,8.66-2.76,12.11a10.19,10.19,0,0,1-14.65,2.64A10.79,10.79,0,0,1,33.61,320,22.3,22.3,0,0,1,32,312a343.48,343.48,0,0,1,0-47.15c.28-4.36,1.07-9.42,4.72-11.56a12.38,12.38,0,0,1,8.07-.63c4.3.63,10.09,1.29,13.49,4.36,4.28,3.77,2,7.24,1,12.52a300.46,300.46,0,0,0-4.94,39.81Z"/><path id="Path_1428" data-name="Path 1428" class="cls-1" d="M23.91,123.24C18.26,135,15.05,147.83,10,159.86c-2.69,6.36-5.91,12.71-6.44,19.59-.39,5.09,3.85,8.35,7.5,12.06,1,1,5.41-7,7.06-6.42,5.79,1.65,6.15,9.52,8,3.51a44,44,0,0,0,.47-9.38c.28-7.54,3.83-14.42,6.86-21.18,6.85-15.55,14.34-35,16.13-52.18,1.17-11.48-8.07-5.3-12.79-.77A62.11,62.11,0,0,0,23.9,123.24Z"/><path id="Path_1429" data-name="Path 1429" class="cls-2" d="M35.85,26.45c-6.11,7.32,56.9,24.75,57.72,20.43q1.47-10.16,2-20.42a32.12,32.12,0,0,0-.29-7.65A19.24,19.24,0,0,0,81.11,4.25c-4-1-6-2.41-10-3.1-2.67-.46-7.44.3-10.15,0C53.27.38,36.86,6.72,35.85,26.45Z"/><path id="Path_1451" data-name="Path 1451" class="cls-3" d="M99.23,128.07a106.42,106.42,0,0,0,4,15.36c5.67,18.21,11.34,36.42,17.17,54.58a510.79,510.79,0,0,0,19.88,54.23c-21.24,10.36-44,20.84-67.21,17.65-8.19-1.13-16.14-4-24.35-5.07s-17-.4-25.45-1.14S6.05,260.5,0,254.26L12.26,229.1c4.48-9.2,9-18.41,12.61-28A173.77,173.77,0,0,0,36,143.66c.24-10.18-.41-20.52,1.63-30.5a24.27,24.27,0,0,1,6-12.83C48,96.1,54.18,95.12,60,94.53c8.39-.85,26.6-4.79,34,.87S97.87,119.69,99.23,128.07Z"/><path id="Path_1454" data-name="Path 1454" class="cls-1" d="M52.8,87.15c-.64,4.24-.5,9.36,2.7,12.12a11.12,11.12,0,0,0,4.42,2.12,12.39,12.39,0,0,0,3.63.46c4.44-.21,8.07-4.23,9.54-8.58A37.24,37.24,0,0,0,74,79.4a19.26,19.26,0,0,0-1.39-7.2,10.3,10.3,0,0,0-10.09-5.4C50.85,67.76,54.13,78.32,52.8,87.15Z"/><path id="Path_1456" data-name="Path 1456" class="cls-1" d="M46.16,68.43A31.33,31.33,0,0,0,52.28,78.5a18.43,18.43,0,0,0,14,5.57c8.28-.41,15.52-6.72,19.4-14.41S90.52,53,90.74,44.34A40.6,40.6,0,0,0,89,29.43,24.16,24.16,0,0,0,71.32,14.31a29,29,0,0,0-22.61,5.47,19.91,19.91,0,0,0-5.44,5.75,29.38,29.38,0,0,0-3,11.74,22.56,22.56,0,0,0-.18,8.11q.88,3.21,1.46,6.5A76,76,0,0,0,46.16,68.43Z"/><path id="Path_1459" data-name="Path 1459" class="cls-2" d="M103.74,320a107.23,107.23,0,0,1,8.92,7.87c1.35,1.19,2.86,2.57,2.86,4.41a4,4,0,0,1-2.16,3.35,10,10,0,0,1-3.89,1,73.77,73.77,0,0,1-19.18-.48,19.8,19.8,0,0,1-5.11-1.36,14.74,14.74,0,0,1-6.79-7.48C70.94,310.57,95.88,314.42,103.74,320Z"/><path id="Path_1460" data-name="Path 1460" class="cls-2" d="M30,320a109.67,109.67,0,0,0-9,7.87c-1.33,1.19-2.84,2.57-2.84,4.41a4,4,0,0,0,2.15,3.35,9.89,9.89,0,0,0,3.9,1,73.33,73.33,0,0,0,19.18-.49,19.22,19.22,0,0,0,5.1-1.35,14.88,14.88,0,0,0,6.8-7.48C62.73,310.57,37.8,314.42,30,320Z"/><path id="Path_1699" data-name="Path 1699" class="cls-2" d="M62.4,16.28s3,24-23.14,34.54c-3-16.25-5.46-21.6-.73-25.7S52,14.69,54,12.92s7.82-1.16,7.82-1.16Z"/><path id="Path_1700" data-name="Path 1700" class="cls-2" d="M61.31,16.44s3.41,24,31.31,26.51C91.19,26.47,92.2,20.6,86.57,18s-15.65-6.14-18-7.26-7.83,1.15-7.83,1.15Z"/></svg>