<svg id="Laag_1" data-name="Laag 1" xmlns="http://www.w3.org/2000/svg" viewBox="0 0 141 337"><defs><style>.cls-1{fill:#2f2e41;}.cls-2{fill:#f3bd8f;}.cls-3{fill:#b29dbe;}.cls-4{fill:#541295;}</style></defs><title>illustrations-scaled</title><g id="Kind_5" data-name="Kind 5"><path id="Path_1784" data-name="Path 1784" class="cls-1" d="M88.33,2.68c29.15,10,38.28,57.07,2.18,58.58C79,55.72,59.82,22.87,56.71,26.09s-4,10.66-7.23,14.16-7.38,12.7-2.26,17c4,3.33-20.1,1.27-18.18-21.83S59.18-7.33,88.33,2.68Z"/><path id="Path_1774" data-name="Path 1774" class="cls-2" d="M104.61,255.19l5.17,70.71s-8.47,3.5-13.63,1.41-17.67-72.82-17.67-72.82Z"/><path id="Path_1775" data-name="Path 1775" class="cls-2" d="M26.55,251.32,21.41,322s8.46,3.51,13.6,1.41,17.69-72.8,17.69-72.8Z"/><path id="Path_1776" data-name="Path 1776" class="cls-1" d="M108.79,205.88s7.85,109.56,5.27,112.37-23.21,0-23.21,0L65.94,233,40.18,318.25s-19.21,2.1-20.64,0,4.87-119.63,10.74-122.12S108.79,205.88,108.79,205.88Z"/><path id="Path_1778" data-name="Path 1778" class="cls-3" d="M79.49,82.66c10.37.87,21.29,1.93,29.66,7.88a44.83,44.83,0,0,1,11.93,13.85c7.12,11.67,11.5,20.47,18.15,32.39,3.55,6.38-18.91,19.11-18.91,19.11a11.17,11.17,0,0,1-5.59-5.6c-1.41,17.52-3.24,33.82-4.66,51.35a7.2,7.2,0,0,1-1.26,4.23c-1.68,1.93-4.82,1.78-72.75-7.53a6.55,6.55,0,0,1-7.26-5.67,5.79,5.79,0,0,1,.13-2V150.29c0-1-5,3.16-5,3.16S1.82,137.77,1.64,136.79c.12-1.28,7.31-33.71,15.92-43.62,6.52-7.7,11.25-2.85,20.39-8C53.57,83.88,61.93,81.22,79.49,82.66Z"/><path id="Path_1779" data-name="Path 1779" class="cls-2" d="M81.07,81.39c.72,4.4.56,9.64-3,12.39a12.69,12.69,0,0,1-5,2.12,15.6,15.6,0,0,1-4,.48c-5-.24-9-4.28-10.69-8.79a34.68,34.68,0,0,1-1-14.15,18,18,0,0,1,1.55-7.36,11.84,11.84,0,0,1,11.25-5.59C83.26,61.59,79.59,72.4,81.07,81.39Z"/><path id="Path_1780" data-name="Path 1780" class="cls-2" d="M93.18,65.31a31.73,31.73,0,0,1-6.87,10.31A21.83,21.83,0,0,1,70.6,81.29c-9.29-.42-17.44-6.86-21.77-14.71s-5.46-17-5.7-25.88a38.21,38.21,0,0,1,1.92-15.25A26.68,26.68,0,0,1,64.93,10a35.18,35.18,0,0,1,25.4,5.57,21.31,21.31,0,0,1,6.19,5.88,27.64,27.64,0,0,1,3.41,12,21.43,21.43,0,0,1,.22,8.29,66.42,66.42,0,0,0-1.66,6.64,70.91,70.91,0,0,1-5.31,16.92Z"/><path id="Path_1782" data-name="Path 1782" class="cls-4" d="M106.29,318.6a18.72,18.72,0,0,1,4.67.17,11.25,11.25,0,0,1,3.07,1.56l11.17,7.3c1.65,1.08,3.48,2.47,3.48,4.37a3.72,3.72,0,0,1-.88,2.33c-2.22,2.74-6.45,2.8-10.08,2.6L101.16,336a6.26,6.26,0,0,1-6.57-3.66c-2-3.28-5.76-8.4-3.06-12.14C94.82,315.73,101.85,318.6,106.29,318.6Z"/><path id="Path_1783" data-name="Path 1783" class="cls-4" d="M26.39,318.6a19,19,0,0,0-4.7.17,11.48,11.48,0,0,0-3.06,1.56l-11.17,7.3C5.8,328.71,4,330.1,4,332a3.74,3.74,0,0,0,.9,2.33c2.2,2.74,6.44,2.79,10.09,2.6L31.51,336a6.24,6.24,0,0,0,6.55-3.66c2-3.28,5.78-8.4,3.09-12.14C37.86,315.73,30.82,318.6,26.39,318.6Z"/><path id="Path_1798" data-name="Path 1798" class="cls-1" d="M39.08,30.46s44-9.83,46.14-14.41,4,10.74,16.62,22-6-27.93-6-27.93L68,4.81,45.68,16.06Z"/><g id="Group_332" data-name="Group 332"><path id="Rectangle_582" data-name="Rectangle 582" class="cls-1" d="M56,170.28h44.29a4.82,4.82,0,0,1,4.92,4.7v12.93a4.81,4.81,0,0,1-4.92,4.7H56a4.81,4.81,0,0,1-4.92-4.7V175A4.82,4.82,0,0,1,56,170.28Z"/><path id="Rectangle_583" data-name="Rectangle 583" class="cls-4" d="M54.79,170.28h4.92v22.33H54.79a3.6,3.6,0,0,1-3.69-3.52V173.81A3.61,3.61,0,0,1,54.79,170.28Z"/><path id="Rectangle_584" data-name="Rectangle 584" class="cls-4" d="M96.62,170.28h4.92a3.61,3.61,0,0,1,3.69,3.53v15.28a3.6,3.6,0,0,1-3.69,3.52H96.62V170.28Z"/></g><path id="Path_1785" data-name="Path 1785" class="cls-2" d="M33.89,185.05a34.16,34.16,0,0,0,9.27,7.66,12.21,12.21,0,0,0,11.74,0,12.8,12.8,0,0,0,4.91-7.84c1-3.72.95-8.13-2-10.74a28.5,28.5,0,0,0-6.48-3.19c-6.23-3-5.67.39-8.72-2.78-4.54-4.71-22.43-32-29.12-32.15-3.93,0-7.69,3.37-10.75,1-3.19,1.6-1.8,5-2,5.39-2.78,5.37,3,8.85,6.4,13C15.48,165.72,24.68,175.4,33.89,185.05Z"/><path id="Path_1777" data-name="Path 1777" class="cls-2" d="M115.84,185.88a33,33,0,0,1-7.23,9.45,12.12,12.12,0,0,1-11.45,2.49,13.14,13.14,0,0,1-6.62-6.58c-1.89-3.4-2.83-7.72-.58-10.89a27.48,27.48,0,0,1,5.56-4.5c5.36-4.27,8.8,2.93,10.89-3.45,1.34-4.1,10.29-28.78,16.49-30.26,1.6-.36,2.35,2.45,4.3,2.72,2.57.34,10.47-8.47,12.54-6.29,4,4.64-2.5,7.93-4.8,12.65C129.24,163.1,122.54,174.5,115.84,185.88Z"/></g></svg>