<svg id="Laag_1" data-name="Laag 1" xmlns="http://www.w3.org/2000/svg" viewBox="0 0 130 333"><defs><style>.cls-1{fill:#2f2e41;}.cls-2{fill:#f3bd8f;}.cls-3{fill:#b29dbe;}.cls-4{fill:#541295;}</style></defs><title>illustrations-scaled</title><g id="Kind_5" data-name="Kind 5"><path id="Path_1784" data-name="Path 1784" class="cls-1" d="M74.64,125.28c23.6,8.54,31,48.69,1.77,50-9.36-4.73-24.85-32.75-27.36-30s-3.23,9.09-5.85,12.08-6,10.84-1.84,14.49c3.2,2.84-16.26,1.09-14.71-18.62S51,116.74,74.64,125.28Z"/><path id="Path_1774" data-name="Path 1774" class="cls-2" d="M49.2,306.66l59.47,8.43s1.48,7.37-1.12,11.12-63.32,1.16-63.32,1.16Z"/><path id="Path_1775" data-name="Path 1775" class="cls-2" d="M26.94,315.75l-2,13.93a75.75,75.75,0,0,0,10.93-1.47c4-1.06,12-15.93,12-15.93Z"/><path id="Path_1778" data-name="Path 1778" class="cls-3" d="M67.49,193.52c8.39.74,17.24,1.64,24,6.72a37.82,37.82,0,0,1,9.66,11.81c5.76,10,9.3,17.47,14.69,27.64,2.87,5.44-15.31,16.3-15.31,16.3A9.25,9.25,0,0,1,96,251.21c-1.14,15-2.63,28.86-3.77,43.81a6.4,6.4,0,0,1-1,3.61c-1.35,1.65-3.9,1.52-58.89-6.42a5.38,5.38,0,0,1-5.88-4.84,5.57,5.57,0,0,1,.1-1.73V251.21c0-.84-4,2.7-4,2.7S4.61,240.53,4.46,239.7c.1-1.1,5.92-28.76,12.9-37.22,5.27-6.57,9.1-2.43,16.5-6.81C46.5,194.56,53.27,192.29,67.49,193.52Z"/><path id="Path_1779" data-name="Path 1779" class="cls-2" d="M68.76,192.44c.59,3.75.46,8.21-2.44,10.56a9.84,9.84,0,0,1-4,1.81,11.57,11.57,0,0,1-3.26.41c-4-.2-7.33-3.65-8.65-7.49a31.16,31.16,0,0,1-.84-12.08,16.12,16.12,0,0,1,1.26-6.28,9.42,9.42,0,0,1,9.11-4.76C70.54,175.54,67.57,184.76,68.76,192.44Z"/><path id="Path_1780" data-name="Path 1780" class="cls-2" d="M78.57,178.72A27.16,27.16,0,0,1,73,187.51a17.17,17.17,0,0,1-12.72,4.84c-7.52-.36-14.11-5.85-17.62-12.55s-4.42-14.49-4.61-22.07a34.31,34.31,0,0,1,1.54-13,21.86,21.86,0,0,1,16.1-13.18,27.31,27.31,0,0,1,20.57,4.75,17.71,17.71,0,0,1,5,5A24.4,24.4,0,0,1,84,151.55a19.1,19.1,0,0,1,.18,7.07c-.52,1.91-1,3.68-1.34,5.66a63.09,63.09,0,0,1-4.3,14.43Z"/><path id="Path_1782" data-name="Path 1782" class="cls-4" d="M108.42,317.2a14.79,14.79,0,0,1,2.59-2.77,9,9,0,0,1,2.63-1l10.6-2.78c1.57-.41,3.43-.76,4.65.3a3.34,3.34,0,0,1,1,1.85c.57,2.89-1.64,5.53-3.69,7.66l-9.39,9.66a5,5,0,0,1-5.83,2c-3.16-.59-8.43-1.15-9.38-4.9C100.49,322.65,106.06,319.93,108.42,317.2Z"/><path id="Path_1783" data-name="Path 1783" class="cls-4" d="M21.85,317.45A15.26,15.26,0,0,0,19,315a9.15,9.15,0,0,0-2.71-.73L5.42,312.57c-1.6-.25-3.48-.39-4.59.79A3.28,3.28,0,0,0,0,315.31c-.28,2.93,2.2,5.32,4.47,7.23l10.33,8.62a5,5,0,0,0,6,1.36c3.08-.92,8.27-2,8.84-5.85C30.3,322,24.48,319.92,21.85,317.45Z"/><path id="Path_1798" data-name="Path 1798" class="cls-1" d="M34.78,149s35.61-8.39,37.35-12.29,3.27,9.15,13.45,18.79-4.88-23.83-4.88-23.83L58.22,127.1l-18.1,9.6Z"/><g id="Group_332" data-name="Group 332"><path id="Rectangle_582" data-name="Rectangle 582" class="cls-1" d="M48.49,268.27H84.34a4,4,0,0,1,4,4v11a4,4,0,0,1-4,4H48.49a4,4,0,0,1-4-4v-11A4,4,0,0,1,48.49,268.27Z"/><path id="Rectangle_583" data-name="Rectangle 583" class="cls-4" d="M47.49,268.27h4v19.05h-4a3,3,0,0,1-3-3v-13A3,3,0,0,1,47.49,268.27Z"/><path id="Rectangle_584" data-name="Rectangle 584" class="cls-4" d="M81.35,268.27h4a3,3,0,0,1,3,3v13a3,3,0,0,1-3,3h-4V268.27Z"/></g><path id="Path_1785" data-name="Path 1785" class="cls-2" d="M30.57,280.87a28.13,28.13,0,0,0,7.51,6.54,9.44,9.44,0,0,0,9.5,0,11,11,0,0,0,4-6.68c.84-3.18.76-6.94-1.62-9.16a22.15,22.15,0,0,0-5.24-2.73c-5-2.57-4.59.34-7.06-2.36-3.68-4-18.15-27.33-23.57-27.43-3.19,0-6.23,2.87-8.7.86-2.59,1.37-1.46,4.28-1.64,4.6-2.25,4.59,2.46,7.56,5.18,11.06C15.67,264.38,23.12,272.63,30.57,280.87Z"/><path id="Path_1777" data-name="Path 1777" class="cls-2" d="M96.91,281.58a28.38,28.38,0,0,1-5.85,8.06,9.41,9.41,0,0,1-9.26,2.12,11,11,0,0,1-5.37-5.61c-1.53-2.9-2.29-6.59-.47-9.29a22.27,22.27,0,0,1,4.5-3.84c4.34-3.64,7.13,2.5,8.82-2.95,1.09-3.49,8.33-24.55,13.35-25.81,1.3-.31,1.9,2.09,3.48,2.32,2.09.29,8.48-7.23,10.15-5.37,3.22,4-2,6.77-3.89,10.8C107.76,262.14,102.34,271.87,96.91,281.58Z"/><path id="Path_1808" data-name="Path 1808" class="cls-1" d="M28.3,290S6.65,278.68,1.39,294.72s11.33,22.76,11.33,22.76,49.6,15.27,58.1,13.71,33.14-3,33.14-3l-2.09-8.72s34.91-6,22.49-23.16-33.92,2-33.92,2Z"/></g></svg>