<svg id="Laag_1" data-name="Laag 1" xmlns="http://www.w3.org/2000/svg" viewBox="0 0 141 337"><defs><style>.cls-1{fill:#e2d3ff;}.cls-2{fill:#2f2e41;}.cls-3{fill:#5c40d3;}</style></defs><title>illustrations-scaled</title><path id="Path_1688" data-name="Path 1688" class="cls-1" d="M39,256.34l-4.88,69.71s8,3.46,12.89,1.39,16.7-71.78,16.7-71.78Z"/><path id="Path_1689" data-name="Path 1689" class="cls-1" d="M112.83,252.53l4.86,69.71s-8,3.46-12.87,1.38-16.71-71.78-16.71-71.78Z"/><path id="Path_1690" data-name="Path 1690" class="cls-2" d="M35.08,207.73s-3.36,46.88-.92,49.66,31.69.7,31.69.7l9.74-23.59,9.74,26s28.59,0,30-2.07-.42-57.86-6-60.31S35.08,207.73,35.08,207.73Z"/><path id="Path_1692" data-name="Path 1692" class="cls-3" d="M62.77,86.25c-9.79.86-20.13,1.9-28,7.77a44,44,0,0,0-11.28,13.65c-6.73,11.51-10.86,20.19-17.16,31.94-3.35,6.29,17.88,18.84,17.88,18.84a10.76,10.76,0,0,0,5.28-5.52c1.34,17.28,3.07,33.34,4.41,50.62a7.3,7.3,0,0,0,1.2,4.18c1.58,1.9,4.55,1.75,7,1.41l61.74-8.83a6.27,6.27,0,0,0,6.87-5.59,6.18,6.18,0,0,0-.12-2l.74-47.47a39.18,39.18,0,0,1,1.41-11.7,34.21,34.21,0,0,1,5.93-9.89c4.25-5.47,6.42-1,11.28-5.93a5.45,5.45,0,0,0,1.91-3.26,5.3,5.3,0,0,0-1.58-3.33C124.11,103.53,79.38,84.83,62.77,86.25Z"/><path id="Path_1693" data-name="Path 1693" class="cls-1" d="M61.29,85c-.69,4.33-.54,9.49,2.86,12.21a11.56,11.56,0,0,0,4.69,2.09,14.37,14.37,0,0,0,3.81.48c4.71-.23,8.56-4.22,10.1-8.67a35.68,35.68,0,0,0,1-14,18.46,18.46,0,0,0-1.46-7.26,11.05,11.05,0,0,0-10.64-5.5C59.21,65.48,62.68,76.13,61.29,85Z"/><path id="Path_1691" data-name="Path 1691" class="cls-1" d="M20.74,194.46c1.64,3.52,10.64,10.91,13.5,11.84,3.64,1.92,11-.26,11-6.55s-11.12-5.54-11-8c0-1.29-.22-18.3-2.08-24.63a58.55,58.55,0,0,0-4.86-11.72c-3-5.55-7.42-10.92-13.53-12.56a12.34,12.34,0,0,0-12,3.48c-3.84,4.51-.59,8.91,1.5,13.61C8.47,171.76,14.6,183.12,20.74,194.46Z"/><path id="Path_1694" data-name="Path 1694" class="cls-1" d="M48.4,66.51a31.5,31.5,0,0,0,6.31,10.27,20.21,20.21,0,0,0,14.75,5.85c8.79-.27,16.61-6.48,20.84-14.15s5.45-16.65,5.83-25.41A39.36,39.36,0,0,0,94.59,28,25.47,25.47,0,0,0,76.06,12.46,32.2,32.2,0,0,0,52,17.53a20.59,20.59,0,0,0-6,5.7A28,28,0,0,0,42.57,35a21.82,21.82,0,0,0-.35,8.17,65.06,65.06,0,0,1,1.45,6.57A72.42,72.42,0,0,0,48.4,66.51Z"/><path id="Path_1697" data-name="Path 1697" class="cls-2" d="M37.44,318.86A16.79,16.79,0,0,0,33,319a10.12,10.12,0,0,0-2.9,1.54l-10.56,7.19c-1.56,1.07-3.3,2.43-3.3,4.31a3.84,3.84,0,0,0,.84,2.3c2.1,2.7,6.1,2.75,9.53,2.56L42.28,336a5.88,5.88,0,0,0,6.22-3.6c1.9-3.23,5.45-8.28,2.89-12C48.29,316,41.64,318.86,37.44,318.86Z"/><path id="Path_1698" data-name="Path 1698" class="cls-2" d="M113,318.86a16.93,16.93,0,0,1,4.44.17,10.63,10.63,0,0,1,2.9,1.54l10.56,7.19c1.56,1.07,3.28,2.43,3.3,4.31a3.73,3.73,0,0,1-.86,2.3c-2.08,2.7-6.08,2.75-9.53,2.57L108.14,336a5.84,5.84,0,0,1-6.19-3.6c-1.91-3.23-5.48-8.28-2.92-12C102.14,316,108.79,318.86,113,318.86Z"/><path id="Path_1702" data-name="Path 1702" class="cls-2" d="M84.87,8.86S79.48-.59,62.63,1.23,35.54,5.4,31.1,3.49s-12.52,5.16-7,13.13,14.47,10.12,25.49,4.84,31.1,3.76,34,7S84,43.6,90.13,42.52,96.89,55.17,92,59.31c-3.8,3.21-4.59,14.19-4.59,14.19s19.71-13.13,18.3-35.93S84.16,9.8,84.87,8.86Z"/><path id="Path_1793" data-name="Path 1793" class="cls-1" d="M124.26,187.36a32.41,32.41,0,0,1-5.64,10.08c-2.55,3-11.89,3.24-15.8,2.55-2.95-1-7.07-11.15,8.12-12.63-2.19-3.11-2.1-19.47-.91-26a58.59,58.59,0,0,1,3.6-12.16c2.44-5.83,6.22-11.63,12.13-13.9A12.3,12.3,0,0,1,138,137.55c4.29,4.08,1.53,8.79-.06,13.68C134.07,163.51,129.17,175.44,124.26,187.36Z"/><path id="Path_1794" data-name="Path 1794" class="cls-3" d="M62.78,86.25c-9.8.86-20.13,1.9-28,7.77a43.86,43.86,0,0,0-11.29,13.65C16.72,119.18,7.17,133.48.88,145.24c-3.36,6.28,23.3,13.21,23.3,13.21a10.84,10.84,0,0,0,5.28-5.52c1.33,17.28,81.57,41.74,81.86-7.7a39.12,39.12,0,0,1,1.41-11.69,34.62,34.62,0,0,1,5.93-9.9c4.25-5.46,6.43-1,11.29-5.92a5.46,5.46,0,0,0,1.9-3.27c-.11-1.26-19.62-21.07-20.53-22C105.17,84.9,79.38,84.83,62.78,86.25Z"/><path id="Path_1795" data-name="Path 1795" class="cls-3" d="M96.66,86.37c9.5,2.54,19.49,5.36,26.26,12.52a43.82,43.82,0,0,1,8.73,15.4c4.62,12.5,5.06,12.36,9.2,25,2.21,6.77-20.9,15.45-20.9,15.45a10.81,10.81,0,0,1-4.24-6.36C108.59,141.52,80.55,82.09,96.66,86.37Z"/></svg>