<svg id="Laag_1" data-name="Laag 1" xmlns="http://www.w3.org/2000/svg" viewBox="0 0 141 337"><defs><style>.cls-1{fill:#f3bd8f;}.cls-2{fill:#2f2e41;}.cls-3{fill:#b29dbe;}.cls-4{fill:#541295;}</style></defs><title>illustrations-scaled</title><path id="Path_1458" data-name="Path 1458" class="cls-1" d="M92.34,154.15c3.33,11.34,5.21,23.26,10.83,33.66a12.38,12.38,0,0,0,4.94,5.61c4.12,2.09,9.46-.42,11.83-4.32s2.67-8.7,2.64-13.25a144.49,144.49,0,0,0-22.75-76,9.79,9.79,0,0,0-4-4.09c-3.56-1.56-7.52,1.15-10.14,3.94-4.07,4.4,4,44.62,6.66,54.48Z"/><path id="Path_1796" data-name="Path 1796" class="cls-2" d="M38.16,12.18C43.53,3.66,55.11,0,63.85,0S76.34,1.89,76.34,1.89l2.12,6.3,3.67-6.3s16.25,3.6,17.2,18-1.7,20.25-1.7,20.25,9.84,13.53,10.49,30.46-3.7,23-3.7,23H91.75s-6.43-18.93-2.93-29.36A66.68,66.68,0,0,0,91.75,42.6L60.32,31.78,49.8,42.6V64.24s6.08,28.26-1.57,39.86-23-23.34-17.38-42.87,3.81-14,3.81-14S23.05,25.34,38.16,12.18Z"/><path id="Path_1426" data-name="Path 1426" class="cls-1" d="M107.12,311.22c.24,4.27.55,8.73-1.5,12.46a11.4,11.4,0,0,1-15.29,4.55,11.21,11.21,0,0,1-4.13-3.69,21.22,21.22,0,0,1-2.72-7.86,326.72,326.72,0,0,1-5.85-47.16c-.22-4.4,0-9.56,3.65-12.14A14.19,14.19,0,0,1,90,255.69c4.68.11,10.88,0,15,2.67,5,3.24,3,7,2.61,12.42a281.38,281.38,0,0,0-.46,40.44Z"/><path id="Path_1427" data-name="Path 1427" class="cls-1" d="M58.64,309.11c-.26,4.27-.5,8.73-3,12.2A11.48,11.48,0,0,1,39.85,324a11.1,11.1,0,0,1-3.58-4.09,21.36,21.36,0,0,1-1.75-8.11,324.61,324.61,0,0,1,0-47.5c.31-4.4,1.16-9.5,5.1-11.65a14.24,14.24,0,0,1,8.7-.64c4.64.64,10.89,1.3,14.57,4.39,4.61,3.8,2.17,7.3,1.09,12.62a282.38,282.38,0,0,0-5.34,40.12Z"/><path id="Path_1428" data-name="Path 1428" class="cls-1" d="M25.8,121.6c-6.1,11.82-9.56,24.78-15,36.9-2.9,6.4-6.38,12.8-7,19.74s2.81,14.94,9.62,17.07a12.1,12.1,0,0,0,14.68-7.85,42.11,42.11,0,0,0,.5-9.45c.3-7.6,4.13-14.54,7.4-21.35,7.4-15.66,15.48-35.27,17.41-52.58,1.27-11.57-8.7-5.34-13.8-.77A62.51,62.51,0,0,0,25.79,121.6Z"/><path id="Path_1451" data-name="Path 1451" class="cls-3" d="M107.08,126.47c1,5.25-6.29,52.18,0,70.46,6.07,18.62,21.06,36.23,29.29,54-22.92,10.44-32.4,21.64-57.48,18.42-8.84-1.13-17.41-4-26.27-5.1s-18.33-.41-27.48-1.15S6.53,259.91,0,253.62l13.24-25.36c4.83-9.26,21.68-21.66,25.62-31.33-.8-17.64-.49-34.93,0-54.76.26-10.27-.44-20.68,1.76-30.73A23.8,23.8,0,0,1,47.15,98.5c4.64-4.27,11.32-5.25,17.59-5.84,9.06-.86,23.84-2.39,31.81,3.3S105.62,118,107.08,126.47Z"/><path id="Path_1454" data-name="Path 1454" class="cls-1" d="M57,85.23c-.7,4.27-.54,9.43,2.92,12.21a12.2,12.2,0,0,0,4.76,2.13,14.41,14.41,0,0,0,3.92.47c4.8-.21,8.71-4.27,10.3-8.64a35.28,35.28,0,0,0,1-14,18.36,18.36,0,0,0-1.5-7.26,11.3,11.3,0,0,0-10.89-5.44C54.87,65.68,58.42,76.33,57,85.23Z"/><path id="Path_1456" data-name="Path 1456" class="cls-1" d="M49.82,66.37a31.39,31.39,0,0,0,6.59,10.14,20.65,20.65,0,0,0,15.12,5.61c8.93-.41,16.75-6.76,20.93-14.52s5.23-16.76,5.47-25.52a38.65,38.65,0,0,0-1.85-15A25.68,25.68,0,0,0,77,11.82a33,33,0,0,0-24.4,5.52,20.37,20.37,0,0,0-5.87,5.79A28.06,28.06,0,0,0,43.42,35a21.39,21.39,0,0,0-.19,8.17,64.35,64.35,0,0,1,1.58,6.55A72.3,72.3,0,0,0,49.82,66.37Z"/><path id="Path_1459" data-name="Path 1459" class="cls-4" d="M112,319.81a118.19,118.19,0,0,1,9.62,7.94c1.46,1.2,3.09,2.59,3.09,4.44a4,4,0,0,1-2.33,3.37,11.33,11.33,0,0,1-4.2,1,85.34,85.34,0,0,1-20.7-.49,22.24,22.24,0,0,1-5.51-1.37,15.31,15.31,0,0,1-7.34-7.53C76.56,310.37,103.47,314.25,112,319.81Z"/><path id="Path_1460" data-name="Path 1460" class="cls-4" d="M32.33,319.81a117.54,117.54,0,0,0-9.69,7.94c-1.44,1.2-3.07,2.59-3.07,4.44a4,4,0,0,0,2.33,3.37,11.28,11.28,0,0,0,4.2,1,85.34,85.34,0,0,0,20.7-.49,22.24,22.24,0,0,0,5.51-1.37,15.43,15.43,0,0,0,7.34-7.53C67.7,310.37,40.79,314.25,32.33,319.81Z"/><path id="Path_1699" data-name="Path 1699" class="cls-2" d="M89,7.06s4.43,22.73,4.48,23.4c.26,3.17-20.48-7.25-46.3,2.45C44,16.53,36.47,23.49,41.57,19.36S56.08,8.85,58.24,7.06,66.68,5.9,66.68,5.9Z"/><path id="Path_1797" data-name="Path 1797" class="cls-2" d="M107.08,196.93c6.07,18.62,25.69,36.38,33.92,54.17-22.92,10.44-37,21.49-62.11,18.27-8.84-1.13-17.41-4-26.27-5.1s-18.33-.41-27.48-1.15S6.53,259.91,0,253.62l13.24-25.36c4.83-9.26,21.68-21.66,25.62-31.33C66.48,197.35,79.1,196.79,107.08,196.93Z"/></svg>