<svg id="Laag_1" data-name="Laag 1" xmlns="http://www.w3.org/2000/svg" viewBox="0 0 130 333"><defs><style>.cls-1{fill:#2f2e41;}.cls-2{fill:#f3bd8f;}.cls-3{fill:#bdb6cb;}</style></defs><title>illustrations-scaled</title><g id="Kind_4" data-name="Kind 4"><path id="Path_1796" data-name="Path 1796" class="cls-1" d="M43.19,97.26c4.62-7.62,14.56-10.89,22.06-10.89S76,88.06,76,88.06l1.82,5.63L81,88.06s14,3.21,14.77,16.12-1.46,18.1-1.46,18.1,8.45,12.08,9,27.22S100.09,170,100.09,170H89.21s-5.52-16.91-2.52-26.24a61.61,61.61,0,0,0,2.52-19.33l-27-9.67-9,9.67v19.33s5.22,25.25-1.34,35.62-19.73-20.85-14.93-38.31,3.27-12.49,3.27-12.49S30.22,109,43.19,97.26Z"/><path id="Path_1426" data-name="Path 1426" class="cls-2" d="M96.38,306.28c3.74.19,7.65.34,10.72,2.48a10,10,0,0,1,2.59,13.76,9.71,9.71,0,0,1-3.59,3.24A18.37,18.37,0,0,1,99,327.4a286.43,286.43,0,0,1-41.63.68c-3.86-.22-8.34-.9-10.26-4.32a12.49,12.49,0,0,1-.68-7.75c.52-4.07,1-9.49,3.67-12.81,3.28-4.08,6.38-2,11.06-1.11a246.76,246.76,0,0,0,35.21,4.19Z"/><path id="Path_1427" data-name="Path 1427" class="cls-2" d="M66.46,304c3.75,0,7.66-.11,10.85,1.84a10.06,10.06,0,0,1,3.28,13.66,9.91,9.91,0,0,1-3.36,3.39,18.65,18.65,0,0,1-7,2,282.85,282.85,0,0,1-41.52,3c-3.86,0-8.37-.41-10.49-3.72a12.62,12.62,0,0,1-1.09-7.58c.29-4.09.49-9.59,3-13,3.05-4.28,6.25-2.36,11-1.74A247.92,247.92,0,0,0,66.46,304Z"/><path id="Path_1451" data-name="Path 1451" class="cls-3" d="M91.43,202.45c.89,4.7,0,42.56,5.45,58.9,5.2,16.63,17.7,32.37,24.77,48.27C102,319,93.82,329,72.29,326.08c-7.59-1-15-3.57-22.56-4.56s-15.74-.36-23.59-1-16-2.86-21.59-8.49l11.36-22.65c4.15-8.28,18.62-19.36,22-28-.68-15.76-.41-31.69,0-49.42.23-9.17,6.28-19.06,8.17-28a21.56,21.56,0,0,1,5.61-11.56c4-3.81,9.72-4.69,15.1-5.22,7.78-.77,13.82-1.08,20.66,4S90.18,194.9,91.43,202.45Z"/><path id="Path_1454" data-name="Path 1454" class="cls-2" d="M59.36,162.53c-.6,3.82-.47,8.43,2.5,10.91A10.45,10.45,0,0,0,66,175.35a12,12,0,0,0,3.37.42c4.11-.2,7.47-3.82,8.84-7.73A32.66,32.66,0,0,0,79,155.55a16.91,16.91,0,0,0-1.29-6.48,9.59,9.59,0,0,0-9.35-4.87C57.54,145.06,60.59,154.58,59.36,162.53Z"/><ellipse id="Ellipse_215" data-name="Ellipse 215" cx="70.3" cy="156.4" rx="10.29" ry="7.5"/><path id="Path_1456" data-name="Path 1456" class="cls-2" d="M53.2,145.68a28.1,28.1,0,0,0,5.67,9.06,17.4,17.4,0,0,0,13,5c7.67-.37,14.38-6,18-13s4.49-15,4.7-22.81a35.88,35.88,0,0,0-1.59-13.42A22.22,22.22,0,0,0,76.52,96.94a27.39,27.39,0,0,0-20.95,4.93,17.78,17.78,0,0,0-5,5.17,26.05,26.05,0,0,0-2.81,10.57,19.91,19.91,0,0,0-.16,7.3,58.52,58.52,0,0,1,1.35,5.86A67.16,67.16,0,0,0,53.2,145.68Z"/><path id="Path_1459" data-name="Path 1459" class="cls-1" d="M113.09,305.81a96.45,96.45,0,0,1,10.15-3.75c1.53-.57,3.28-1.19,4.69-.36a3.64,3.64,0,0,1,1.56,3.27,9.92,9.92,0,0,1-1,3.65,73.06,73.06,0,0,1-9.26,15.48,18.57,18.57,0,0,1-3.4,3.57,13.05,13.05,0,0,1-8.86,2.2C90.72,328.44,105.22,309.77,113.09,305.81Z"/><path id="Path_1460" data-name="Path 1460" class="cls-1" d="M16.15,310.88a97.84,97.84,0,0,0-10.83-.41c-1.62-.05-3.47-.09-4.56,1.15a3.65,3.65,0,0,0-.49,3.6,9.66,9.66,0,0,0,2.08,3.15,71.84,71.84,0,0,0,13.5,11.8,18.34,18.34,0,0,0,4.31,2.33,13.11,13.11,0,0,0,9.1-.71C44.26,325.34,24.82,312.14,16.15,310.88Z"/><path id="Path_1699" data-name="Path 1699" class="cls-1" d="M86.82,92.68s3.8,20.31,3.84,20.91c.22,2.83-17.58-6.48-39.75,2.19-2.74-14.64-9.16-8.42-4.78-12.11s12.45-9.39,14.3-11,7.26-1,7.26-1Z"/><path id="Path_1797" data-name="Path 1797" class="cls-1" d="M96.49,261.35c5.21,16.63,22.06,32.5,29.13,48.4-19.68,9.33-31.8,19.21-53.33,16.33-7.59-1-15-3.57-22.56-4.56s-15.74-.36-23.59-1-16-2.86-21.59-8.49l11.36-22.65c4.15-8.28,18.62-19.36,22-28C61.63,261.72,72.47,261.22,96.49,261.35Z"/><path id="Path_1428" data-name="Path 1428" class="cls-2" d="M31.29,214c-1.18,11.78.56,11.55,0,23.37-.31,6.25,3.83,11.24,5.55,17.2s.58,3.82,1.8,7.37c2.39-.25,11.23,0,11.23,0s4.61,7.44,4.42,4.22c1.19-7.43-4.34-16.48-5.49-19.06-2.14-6.43-3.19-17.35-2.7-24.06,1-15.39,11.12-30.87,7.24-45.91-2.62-10.05-8.66-1.72-11.31,3.69-3,6.14-10.14,26.36-10.74,33.18Z"/><path id="Path_1458" data-name="Path 1458" class="cls-2" d="M86.53,215.49C86,248,77.51,256.05,80,266.26c3.73,1.18,3.66-5.83,5.21-4.22,3.62-.13,5.88.15,11,0,1.93-1.3.7-8.14,1.64-12.1A133.56,133.56,0,0,0,95,179.19a8.67,8.67,0,0,0-2.46-4.39c-2.63-2.11-5.81-3.52-7.31,6.65s1.24,25,1.33,34Z"/></g></svg>