<svg id="Laag_1" data-name="Laag 1" xmlns="http://www.w3.org/2000/svg" viewBox="0 0 141 337"><defs><style>.cls-1{fill:#f3bd8f;}.cls-2{fill:#2f2e41;}.cls-3{fill:#b29dbe;}.cls-4{fill:#541295;}</style></defs><title>illustrations-scaled</title><path id="Path_1785" data-name="Path 1785" class="cls-1" d="M19.77,186.93a32.83,32.83,0,0,0,6.61,9.87A12.42,12.42,0,0,0,37.78,200a13.37,13.37,0,0,0,7.2-6.1c2.17-3.25,3.45-7.48,1.4-10.78a27.71,27.71,0,0,0-5.29-4.84c-5.11-4.6-5.9-11.85-7.54-18.33A57.52,57.52,0,0,0,29,147.92c-3-5.75-7.34-11.4-13.8-13.37a13.77,13.77,0,0,0-13,2.88c-4.37,4.34-1.14,8.94.84,13.79C7.9,163.4,13.83,175.17,19.77,186.93Z"/><path id="Path_1774" data-name="Path 1774" class="cls-1" d="M105.49,255.54l5.24,70.4s-8.59,3.5-13.83,1.41S79,254.85,79,254.85Z"/><path id="Path_1775" data-name="Path 1775" class="cls-1" d="M26.26,251.68,21,322.09s8.6,3.49,13.82,1.4S52.8,251,52.8,251Z"/><path id="Path_1776" data-name="Path 1776" class="cls-2" d="M109.72,206.44s8,109.09,5.35,111.89-23.55,0-23.55,0L66.24,233.48,40.1,318.33s-19.49,2.09-21,0,4.94-119.12,10.9-121.59S109.72,206.44,109.72,206.44Z"/><path id="Path_1777" data-name="Path 1777" class="cls-1" d="M127.37,187.92a31.94,31.94,0,0,1-4.89,10.72,12.21,12.21,0,0,1-10.72,4.87,13.79,13.79,0,0,1-8.13-5c-2.68-2.89-4.65-6.88-3.18-10.44a26.51,26.51,0,0,1,4.42-5.56c4.28-5.29,3.85-12.57,4.39-19.21a56.15,56.15,0,0,1,2.48-12.59c2-6.11,5.34-12.33,11.39-15.22a13.9,13.9,0,0,1,13.36.93c5,3.65,2.61,8.67,1.46,13.74C135.16,162.94,131.27,175.44,127.37,187.92Z"/><path id="Path_1778" data-name="Path 1778" class="cls-3" d="M80,83.75c10.52.87,21.61,1.92,30.1,7.85a44.76,44.76,0,0,1,12.11,13.78c7.22,11.63,11.66,20.39,18.41,32.26,3.6,6.35-19.19,19-19.19,19a11.25,11.25,0,0,1-5.67-5.58c-1.43,17.45-3.29,33.68-4.72,51.13a7.17,7.17,0,0,1-1.29,4.22c-1.7,1.91-4.89,1.76-73.82-7.5a6.65,6.65,0,0,1-7.38-5.65,6,6,0,0,1,.13-2V151.09c0-1-5,3.14-5,3.14S1.17,138.62,1,137.65c.13-1.28,7.42-33.56,16.17-43.43,6.6-7.68,11.41-2.84,20.68-8C53.68,85,62.17,82.31,80,83.75Z"/><path id="Path_1779" data-name="Path 1779" class="cls-1" d="M81.59,82.49c.74,4.37.57,9.59-3.07,12.33a12.82,12.82,0,0,1-5,2.11,15.7,15.7,0,0,1-4.1.48c-5-.24-9.18-4.26-10.84-8.75a33.92,33.92,0,0,1-1-14.09,17.73,17.73,0,0,1,1.57-7.33A12.09,12.09,0,0,1,70.5,61.68C83.82,62.77,80.1,73.53,81.59,82.49Z"/><path id="Path_1780" data-name="Path 1780" class="cls-1" d="M94.12,66.2a31.39,31.39,0,0,1-6.84,10.35A22.4,22.4,0,0,1,71.41,82.4C62,82.09,53.63,75.79,49.14,68S43.39,51.18,43,42.33a37.37,37.37,0,0,1,1.75-15.2,27,27,0,0,1,20-15.63,36.3,36.3,0,0,1,25.85,5.22A21.72,21.72,0,0,1,97,22.5a27.18,27.18,0,0,1,3.61,11.91,20.66,20.66,0,0,1,.32,8.25,66.66,66.66,0,0,0-1.59,6.63A70.2,70.2,0,0,1,94.13,66.2Z"/><path id="Path_1782" data-name="Path 1782" class="cls-4" d="M107.18,318.68a19.36,19.36,0,0,1,4.75.17A11.32,11.32,0,0,1,115,320.4l11.33,7.27c1.68,1.08,3.54,2.46,3.54,4.35a3.64,3.64,0,0,1-.9,2.32c-2.24,2.73-6.54,2.79-10.23,2.59L102,336a6.35,6.35,0,0,1-6.66-3.64c-2-3.26-5.85-8.36-3.11-12.08C95.54,315.82,102.68,318.68,107.18,318.68Z"/><path id="Path_1783" data-name="Path 1783" class="cls-4" d="M26.1,318.68a19.54,19.54,0,0,0-4.77.17,12.22,12.22,0,0,0-3.11,1.55L6.89,327.67c-1.68,1.07-3.52,2.46-3.54,4.35a3.61,3.61,0,0,0,.92,2.32c2.23,2.73,6.52,2.78,10.23,2.59L31.3,336A6.36,6.36,0,0,0,38,332.37c2-3.26,5.86-8.36,3.13-12.08C37.74,315.82,30.6,318.68,26.1,318.68Z"/><path id="Path_1784" data-name="Path 1784" class="cls-2" d="M55.82,7.63s6-9.45,24-7.32S105.2,26.49,93.48,21,60,24.22,56.87,27.43s-4,10.61-7.33,14.09-7.49,12.65-2.3,16.92c4,3.31-16.24.81-14.3-22.19S56.57,8.59,55.82,7.63Z"/></svg>