<svg id="Laag_1" data-name="Laag 1" xmlns="http://www.w3.org/2000/svg" viewBox="0 0 1186 483"><defs><style>.cls-1{fill:#5c40d3;}.cls-2{fill:#2f2e41;}.cls-3{fill:#313131;}.cls-4{fill:#d4d1ff;}.cls-5{fill:#f2eafa;}</style></defs><title>illustrations-scaled</title><g id="Kleine_auto" data-name="Kleine auto"><path id="Path_1711" data-name="Path 1711" class="cls-1" d="M330.22,51.38C412.81.16,509.53,1.2,509.53,1.2S606.1-8.94,679,29.74,815.63,142.22,815.63,142.22s10.14,12.92,23.22,14.77,55.73,17.34,99.95,58.47,76.93,106,76.93,106V424.65s6.49,0-125.29,2.12c-52.1-1.74-448.32-7.52-621.56-16.35-34.07-9.08-114.11-8.71-98.78-98.47S247.64,102.59,330.22,51.38Z"/><path id="Path_1717" data-name="Path 1717" d="M982.18,425.13c-8.6-33,14.11-156.13-125.7-156.13S736.23,371.16,728.34,422.57C860.55,431.8,854.83,428.35,982.18,425.13Z"/><path id="Path_1718" data-name="Path 1718" d="M449.6,418.7C441,389.91,484.58,268.59,329,268.59S219.67,386.31,220,397.26C230,413.63,324.36,412.1,449.6,418.7Z"/><path id="Path_1714" data-name="Path 1714" class="cls-2" d="M1011.78,322.25a400.3,400.3,0,0,1-47.47,2.08s6.34,62.34,5.44,102.13c15.75,4.16,45,2.15,45,2.15s2-6.79,2.72-29.67,0-65.79,0-65.79S1015.21,319.11,1011.78,322.25Z"/><path id="Path_1715" data-name="Path 1715" class="cls-2" d="M741.37,331.43c5.13-2.27-304.34,0-304.34,0s4.58,15.5,5.23,87.69c13.13-.25,293.52,4.28,293.52,4.28S728.17,370.29,741.37,331.43Z"/><ellipse id="Ellipse_225" data-name="Ellipse 225" class="cls-3" cx="329.81" cy="387.36" rx="94.39" ry="93.15"/><ellipse id="Ellipse_227" data-name="Ellipse 227" class="cls-3" cx="855.19" cy="388.61" rx="93.15" ry="94.39"/><circle id="Ellipse_224" data-name="Ellipse 224" class="cls-4" cx="331.05" cy="387.36" r="50.92"/><circle id="Ellipse_226" data-name="Ellipse 226" class="cls-4" cx="856.43" cy="388.61" r="52.16"/><path id="Path_1719" data-name="Path 1719" class="cls-5" d="M895.59,184.18s16,10.74,16,46.43,82.37,56.69,82.37,56.69S956.65,206.74,895.59,184.18Z"/><path id="Path_1788" data-name="Path 1788" class="cls-5" d="M771.55,123.93s-123-105.48-238.26-107C513.23,13,516.58,48.19,516.58,48.19L533.29,165.1l249,11.6Z"/><path id="Path_1789" data-name="Path 1789" class="cls-5" d="M469.62,30.41S393.56,52.23,357,82.06s-75.59,57-33.67,67.68,169.35,15.6,169.35,15.6Z"/><path id="Path_1790" data-name="Path 1790" class="cls-2" d="M171.13,303.46h55.8s-14.19,76,0,103.14C148.79,384.37,171.13,303.46,171.13,303.46Z"/></g></svg>