<svg id="Laag_1" data-name="Laag 1" xmlns="http://www.w3.org/2000/svg" viewBox="0 0 85 85"><defs><style>.cls-1,.cls-2{fill:#5c40d3;}.cls-2{stroke:#5c40d3;}.cls-3{fill:#fff;}</style></defs><title>illustrations-scaled</title><g id="Group_350" data-name="Group 350"><path id="Path_2323" data-name="Path 2323" class="cls-1" d="M42.1,85C39.17,81.79,36,78.48,33,75,25.54,66.33,18.88,57.13,14.45,46.5c-3.24-7.74-4.51-15.69-2.11-23.92a31.42,31.42,0,0,1,61.29,4.63c1,7.85-1,15.08-4.28,22-5.24,11.18-12.71,20.81-21,29.85C46.52,81.13,44.38,82.87,42.1,85Zm.06-2.1c.66-.58.92-.75,1.12-1,3.51-3.94,7.15-7.77,10.49-11.84,6.38-7.79,12-16.09,15.66-25.55,2.47-6.34,3.68-12.85,2-19.57C68.65,13.64,61.64,6,50.4,2.88S29.1,2.57,21.05,11C12.59,19.94,11,30.52,14.69,42c2.88,8.92,7.77,16.79,13.48,24.11C32.61,71.81,37.41,77.23,42.16,82.9Z"/><path id="Path_2324" data-name="Path 2324" class="cls-2" d="M42.16,82.9c-4.75-5.67-9.55-11.09-14-16.79C22.46,58.79,17.57,50.92,14.69,42,11,30.52,12.59,19.94,21.05,11,29.1,2.57,39.17-.22,50.4,2.88S68.65,13.64,71.45,25c1.66,6.72.45,13.24-2,19.58C65.75,54,60.15,62.3,53.77,70.09c-3.34,4.07-7,7.9-10.49,11.84C43.08,82.15,42.82,82.32,42.16,82.9Zm.34-27.56a23.86,23.86,0,1,0-23.82-24,23.58,23.58,0,0,0,23.82,24Z"/><path id="Path_2325" data-name="Path 2325" class="cls-2" d="M42.5,55.34a23.58,23.58,0,0,1-23.82-24,23.87,23.87,0,1,1,23.82,24Zm0-1.73A22.13,22.13,0,0,0,64.65,31.54a22.11,22.11,0,0,0-44.22-.15A22,22,0,0,0,42.15,53.6Z"/><path id="Path_2326" data-name="Path 2326" class="cls-1" d="M42.51,53.61A22,22,0,0,1,20.43,31.75v-.36A22.11,22.11,0,1,1,42.51,53.61Z"/><path id="Path_2327" data-name="Path 2327" class="cls-3" d="M29.54,27.93h3a16.87,16.87,0,0,1,1.36-4.61,12.37,12.37,0,0,1,2.4-3.51,9.86,9.86,0,0,1,3.29-2.22,10.6,10.6,0,0,1,4-.77,9.93,9.93,0,0,1,4.64,1,10.49,10.49,0,0,1,3.35,2.79L50.37,22a3.11,3.11,0,0,1-.32.31.67.67,0,0,1-.45.14,1.08,1.08,0,0,1-.72-.39,9,9,0,0,0-1-.85A6.61,6.61,0,0,0,43.76,20a6.55,6.55,0,0,0-4.91,2,10.92,10.92,0,0,0-2.6,5.92H47.33V29a.94.94,0,0,1-.27.66,1,1,0,0,1-.76.29H36l0,.82c0,.27,0,.54,0,.83v.63c0,.2,0,.4,0,.61h9.47V34a.93.93,0,0,1-.29.64,1,1,0,0,1-.77.29H36.16a11.23,11.23,0,0,0,2.52,6.27,6.4,6.4,0,0,0,4.9,2.08,7.82,7.82,0,0,0,1.93-.21A6.26,6.26,0,0,0,47,42.54a5.57,5.57,0,0,0,1-.7c.29-.25.55-.48.76-.7s.41-.39.58-.53a.75.75,0,0,1,.49-.21.5.5,0,0,1,.29.07,1.86,1.86,0,0,1,.28.21l1.52,1.42a10,10,0,0,1-3.53,3.21,10.32,10.32,0,0,1-5,1.15,10.83,10.83,0,0,1-4.24-.8,9.48,9.48,0,0,1-3.26-2.3,12.05,12.05,0,0,1-2.26-3.62,18.08,18.08,0,0,1-1.2-4.8H29.54V32.88h2.71c0-.21,0-.41,0-.61v-.63c0-.27,0-.55,0-.82l0-.83H29.54Z"/></g></svg>
