<svg xmlns="http://www.w3.org/2000/svg" xmlns:xlink="http://www.w3.org/1999/xlink" width="612" height="638" viewBox="0 0 612 638">
  <defs>
    <clipPath id="clip-Man">
      <rect width="612" height="638"/>
    </clipPath>
  </defs>
  <g id="Man" clip-path="url(#clip-Man)">
    <rect width="612" height="638" fill="#fff"/>
    <g id="Man-2" data-name="Man" transform="translate(233.406 47.692)">
      <path id="Path_1575" data-name="Path 1575" d="M283.022,381.146,281.73,399.8c1.988,5.356,7.109,4.157,12.611,5.695a17.254,17.254,0,0,0,15.028-3.071l-.949-22.431" transform="translate(-247.622 107.817)" fill="#f3bd8f"/>
      <path id="Path_1576" data-name="Path 1576" d="M251.59,388.216v14.892c2,5.357,5.83,7.932,11.336,9.471a17.254,17.254,0,0,0,15.011-3.089l-.949-22.431" transform="translate(-164.185 112.946)" fill="#f3bd8f"/>
      <path id="Path_1577" data-name="Path 1577" d="M267.2,258.829l8.9,222.253a20.911,20.911,0,0,0,11.733,4.089c8.2.466,9.68,1.07,15.529-4.314l25.881-233.106-62.029-1.311Z" transform="translate(-242.428 10.935)" fill="#606161"/>
      <path id="Path_1578" data-name="Path 1578" d="M267.2,258.829l8.9,222.253a20.911,20.911,0,0,0,11.733,4.089c8.2.466,9.68,1.07,15.529-4.314l25.881-233.106-62.029-1.311Z" transform="translate(-242.428 10.935)" fill="#2f2e41"/>
      <path id="Path_1579" data-name="Path 1579" d="M248.4,279.914l25.519,216.2s3.692,3.779,13.717,3.917c11.422.155,12.458-1.415,15.011-7.2l5.09-247.962-58.665,10.008Z" transform="translate(-188.481 9.797)" fill="#606161"/>
      <path id="Path_1580" data-name="Path 1580" d="M248.4,279.914l25.519,216.2s3.692,3.779,13.717,3.917c11.422.155,12.458-1.415,15.011-7.2l5.09-247.962-58.665,10.008Z" transform="translate(-188.481 9.797)" fill="#2f2e41"/>
      <path id="Path_1582" data-name="Path 1582" d="M314.236,154.847s16.219,4.21,27.779,12.63c7.143,5.176,2.191,150.613,2.191,150.613-.707-.138-31.765,12.475-61.8,7.281-25.571-4.417-34.854-16.409-34.854-16.409s-2.312-139.5,2.657-145.23c2.226-2.571,26.537-11.543,26.537-11.543S287.44,168.15,314.236,154.847Z" transform="translate(-224.226 -57.437)" fill="#b29dbe"/>
      <path id="Nek" d="M298.63,135l5.314,32.3s-11.888,17.41-26.9,14.821-11.284-9.611-11.284-9.611l1.95-27.3S281.272,147.63,298.63,135Z" transform="translate(-213.934 -69.907)" fill="#f3bd8f"/>
      <path id="Schaduw_nek" data-name="Schaduw nek" d="M299.754,146.363,297.89,135.01c-17.358,12.613-26.347,7.247-26.347,7.247l-4.193,14.666a13.993,13.993,0,0,0,8.92,4.279C284.587,161.806,293.007,155.3,299.754,146.363Z" transform="translate(-213.194 -69.9)" fill="rgba(0,0,0,0.24)"/>
      <path id="Path_1587" data-name="Path 1587" d="M321.584,158.566s-13.372,1.484-20.912,51.487c-7.005,46.311-5.473,87.92,8.813,95.1,19.722,9.9,10.524,0,10.524,0s16.348,1.891,6.807-2.475l-9.649-78.8S339.822,151.458,321.584,158.566Z" transform="translate(-293.741 -53.167)" fill="#b29dbe"/>
      <path id="Path_1589" data-name="Path 1589" d="M257.532,158.84s24.329,7.851,27.089,46.707c2.5,35.3,8.851,61.1,3.692,71.588C281.6,290.8,234.7,293.1,234.7,293.1a50.193,50.193,0,0,1,.828-20.481l25.726-10.249S257.17,164.879,257.532,158.84Z" transform="translate(-146.213 -52.613)" fill="#b29dbe"/>
      <path id="Path_1590" data-name="Path 1590" d="M304.987,173.89l-2.973,54.691V258.72l1.84,6.857c-.506,3.936,1.309,7.773,4.383,9.266,0,0-.4-44.312,0-46.261S305.867,179.88,304.987,173.89Z" transform="translate(-281.527 -41.695)" fill="rgba(0,0,0,0.16)"/>
      <path id="Hoofd" d="M319.139,137.88c-1.277,17.927-17.232,47.752-35.159,46.475S260.86,146,262.137,128.071s11.353-28.073,29.332-26.8c17.9,1.306,17.468,18.892,27.67,36.6Z" transform="translate(-223.268 -94.45)" fill="#f3bd8f"/>
      <path id="Haar" d="M319.83,105.169s-5.4-9.49-22.258-7.661-27.1,4.184-31.547,2.269S253.5,104.954,259,112.96s14.476,10.163,25.5,4.866,31.116,3.77,34,7.014.449,15.218,6.591,14.131,6.764,12.7,1.846,16.858c-3.8,3.227-4.59,14.252-4.59,14.252S342.071,156.9,340.656,134,319.112,106.111,319.83,105.169Z" transform="translate(-236.566 -97.274)" fill="#2f2e41"/>
      <path id="Path_1593" data-name="Path 1593" d="M30.02,21.934a12.561,12.561,0,0,1-8.627,3.658c-5.176-.1-9.68-1.933-17.254-2.467s-2.5-7.54-2.157-12.32S2.917,1.87,4.539.49,31.573.763,34.385,4.006C35.645,5.507,34.765,19.225,30.02,21.934Z" transform="matrix(-0.545, -0.839, 0.839, -0.545, 27.341, 279.318)" fill="#f3bd8f"/>
      <path id="Path_1683" data-name="Path 1683" d="M6338,684.3s13.188-.426,13.188,10.974S6338,706.251,6338,706.251" transform="translate(-6287.463 -464.977)" fill="none" stroke="#fff" stroke-width="5"/>
      <rect id="Rectangle_313" data-name="Rectangle 313" width="28" height="35" transform="translate(22.594 213.308)" fill="#fff"/>
      <path id="Path_1597" data-name="Path 1597" d="M202.784,159.82l7.454,68.275-8.748,4.055Z" transform="translate(-91.396 -20.74)" fill="rgba(0,0,0,0.22)"/>
      <path id="Path_1600" data-name="Path 1600" d="M298.237,226.6a77.293,77.293,0,0,1-9.421-2.64c-4.055-1.518-5.314-.638-11.267,0s-10.008,2.14-9.507,8.11,2.243,9.3,1.725,12.785.638,6.47,5.832,6.591,22.586-5.176,22.586-5.176" transform="translate(-212.799 -5.979)" fill="#f3bd8f"/>
      <path id="Path_1679" data-name="Path 1679" d="M0,16.352,22.141,23.08S52.294,19.6,58.483,10.75,55.159.573,55.159.573L3.178,0Z" transform="translate(63.866 528.21) rotate(169)" fill="#541295"/>
      <path id="Path_1680" data-name="Path 1680" d="M59.155,15.912,37.579,22.076S8.141,18.822,2.064,10.658s3.2-9.372,3.2-9.372L56.919,0Z" transform="translate(143.723 543.511) rotate(-172)" fill="#541295"/>
      <path id="Path_1704" data-name="Path 1704" d="M20.767.023A40.015,40.015,0,0,1,0,9.069c-.273,9.084,12.426,7.42,12.426,7.42s11.626-7.827,10.1-12.434S20.767.023,20.767.023Z" transform="matrix(0.998, -0.07, 0.07, 0.998, 24.341, 265.925)" fill="#2f2e41"/>
      <path id="Path_1705" data-name="Path 1705" d="M6324.239,671.139s-9.453-.784-7.214-8.423a18.48,18.48,0,0,1,4.072-7.212c2.017-2.354-1.173-5.914,0-9.355,10.345,14.016-2.625,7.87,3.142,17.221S6324.239,671.139,6324.239,671.139Z" transform="translate(-6284.468 -462.742)" fill="rgba(255,255,255,0.23)"/>
    </g>
  </g>
</svg>
