<svg id="Laag_1" data-name="Laag 1" xmlns="http://www.w3.org/2000/svg" viewBox="0 0 153 549"><defs><style>.cls-1{fill:#f3bd8f;}.cls-2{fill:#606161;}.cls-3{fill:#2f2e41;}.cls-4{fill:#b29dbe;}.cls-5{fill:#fff;}.cls-6{fill:none;stroke:#fff;stroke-width:5px;}.cls-7{fill:#541295;}</style></defs><title>illustrations-scaled</title><path id="Path_1575" data-name="Path 1575" class="cls-1" d="M35.12,495.73l-1.4,18.91c2.15,5.43,7.68,4.22,13.62,5.78a19.58,19.58,0,0,0,16.23-3.12l-1-22.74"/><path id="Path_1576" data-name="Path 1576" class="cls-1" d="M91.27,508.1v15.1c2.16,5.43,6.3,8,12.24,9.6a19.59,19.59,0,0,0,16.21-3.13l-1-22.74"/><path id="Path_1577" data-name="Path 1577" class="cls-2" d="M23.64,273.5l9.61,225.33A23.55,23.55,0,0,0,45.92,503c8.86.48,10.45,1.09,16.77-4.37l28-236.33-67-1.33Z"/><path id="Path_1578" data-name="Path 1578" class="cls-3" d="M23.64,273.5l9.61,225.33A23.55,23.55,0,0,0,45.92,503c8.86.48,10.45,1.09,16.77-4.37l28-236.33-67-1.33Z"/><path id="Path_1579" data-name="Path 1579" class="cls-2" d="M61.59,293.72,89.15,512.91s4,3.83,14.81,4c12.33.16,13.45-1.43,16.21-7.3l5.49-251.39L62.32,268.34Z"/><path id="Path_1580" data-name="Path 1580" class="cls-3" d="M61.59,293.72,89.15,512.91s4,3.83,14.81,4c12.33.16,13.45-1.43,16.21-7.3l5.49-251.39L62.32,268.34Z"/><path id="Path_1582" data-name="Path 1582" class="cls-4" d="M94.09,98.76s17.51,4.27,30,12.8c7.71,5.25,2.37,152.7,2.37,152.7-.77-.14-34.3,12.65-66.73,7.38C32.11,267.16,22.08,255,22.08,255S19.59,113.58,25,107.77c2.41-2.61,28.66-11.71,28.66-11.71S65.15,112.25,94.09,98.76Z"/><path id="Nek" class="cls-1" d="M88.35,66l5.74,32.75s-12.84,17.65-29,15S52.86,104,52.86,104L55,76.35S69.6,78.8,88.35,66Z"/><path id="Path_1587" data-name="Path 1587" class="cls-4" d="M27,106.86s-14.44,1.5-22.58,52.2C-3.18,206-1.53,248.19,13.9,255.47c21.29,10,11.36,0,11.36,0s17.65,1.92,7.35-2.51L22.19,173.07S46.65,99.65,27,106.86Z"/><path id="Path_1589" data-name="Path 1589" class="cls-4" d="M117.09,107.7s26.27,8,29.25,47.35c2.7,35.79,9.56,61.95,4,72.58-7.25,13.85-57.89,16.19-57.89,16.19a47.92,47.92,0,0,1,.89-20.77l27.78-10.39S116.7,113.82,117.09,107.7Z"/><path id="Path_1590" data-name="Path 1590" class="cls-5" d="M30.16,141.16l-6.4,35.37L23,196.12l.38,4.48c-.26,2.56.19,5.07,1.09,6.07,0,0,1-28.81,1.22-30.07S30.27,145.06,30.16,141.16Z"/><path id="Hoofd" class="cls-1" d="M100.41,44c-1.38,18.18-18.6,48.41-38,47.12s-25-38.89-23.58-57.06S51.12,5.62,70.54,6.92,89.4,26.07,100.41,44Z"/><path id="Haar" class="cls-3" d="M86.8,8S81-1.62,62.77.24,33.51,4.48,28.7,2.54,15.18,7.79,21.12,15.9s15.63,10.31,27.53,4.94S82.25,24.66,85.37,28s.48,15.43,7.11,14.32,7.31,12.88,2,17.1c-4.11,3.27-5,14.44-5,14.44s21.3-13.36,19.77-36.58S86,9,86.8,8Z"/><path id="Path_1593" data-name="Path 1593" class="cls-1" d="M28.62,245.53A13.58,13.58,0,0,1,37,250.85c3,4.45,4,9.3,7.92,16s-5.36,6.29-9.89,8.64-8.64,4.14-10.85,3.52S8.53,255.91,9.81,251.72C10.43,249.82,23.38,243,28.62,245.53Z"/><path id="Path_1683" data-name="Path 1683" class="cls-6" d="M51.46,222.36s14.24-.43,14.24,11.12-14.24,11.13-14.24,11.13"/><rect id="Rectangle_313" data-name="Rectangle 313" class="cls-5" x="25.78" y="216.26" width="25.75" height="35.48"/><path id="Path_1597" data-name="Path 1597" class="cls-5" d="M124.58,141l4.6,69.14-3,4.18Z"/><path id="Path_1600" data-name="Path 1600" class="cls-1" d="M89.15,223.67A85.87,85.87,0,0,1,79,221c-4.38-1.54-5.74-.65-12.17,0S56,223.17,56.55,229.22s2.42,9.43,1.86,13,.69,6.56,6.3,6.68,24.38-5.24,24.38-5.24"/><path id="Path_1679" data-name="Path 1679" class="cls-7" d="M62.49,519.25l-24.86-2.42s-31.24,9.3-36,19.31,5.62,9.48,5.62,9.48l55.22-9.48Z"/><path id="Path_1680" data-name="Path 1680" class="cls-7" d="M91.22,526.71l24-3.14s31,7.42,36.26,16.47-4.83,9-4.83,9l-55.43-6Z"/><path id="Path_1704" data-name="Path 1704" class="cls-3" d="M45.56,268.16a44.19,44.19,0,0,1-21.7,10.62c.4,9.21,14,6.63,14,6.63s11.93-8.75,9.94-13.3S45.56,268.16,45.56,268.16Z"/></svg>