<svg id="Laag_1" data-name="Laag 1" xmlns="http://www.w3.org/2000/svg" viewBox="0 0 1186 483"><defs><style>.cls-1{fill:#5c40d3;}.cls-2{fill:#f2eafa;}.cls-3{fill:#fff;}.cls-4{fill:#41357d;}.cls-5{fill:#313131;}.cls-6{fill:#2f2e41;}.cls-7{fill:#f7f7f7;}.cls-8{fill:#523c68;}</style></defs><title>illustrations-scaled</title><g id="Grote_auto" data-name="Grote auto"><path id="Path_1766" data-name="Path 1766" class="cls-1" d="M562.76,35.25,658,40.83S701,45,729.29,59.29,889,162.18,889,162.18L1124.87,197s29.64,3.81,39.09,24.25,21.09,98.46,21.09,98.46l-74,45.37-12.69,46.31L349.26,400,23.44,361.44,1.53,339.6v-41l21.91-28H59.49V162.19h-36s13.91-61.51,64.2-102.9c-3.56-8.17,39.5-18.45,39.5-18.45Z"/><path id="Path_1762" data-name="Path 1762" class="cls-2" d="M568.57,57.83V179.41h222.5V143.19L713.7,78.84s-37.1-20.28-64.21-21S568.57,57.83,568.57,57.83Z"/><path id="Path_1765" data-name="Path 1765" class="cls-3" d="M1145.27,221.51l6.93,82.07h32.7s-2.1-58.72-19.74-82.07A165,165,0,0,1,1145.27,221.51Z"/><path id="Path_1767" data-name="Path 1767" d="M853.83,411.38S846,256.21,979.75,256.21s142.4,155.17,142.4,155.17H853.83"/><path id="Path_1768" data-name="Path 1768" class="cls-4" d="M119.26,378.22s7.38-144.39,140.46-130.37S386.24,406.36,386.24,406.36l-267-28.14"/><ellipse id="Ellipse_240" data-name="Ellipse 240" class="cls-5" cx="976.84" cy="383.12" rx="100.01" ry="99.88"/><ellipse id="Ellipse_242" data-name="Ellipse 242" class="cls-5" cx="250.9" cy="383.12" rx="100.01" ry="99.88"/><path id="Path_1764" data-name="Path 1764" class="cls-6" d="M1081.85,303.09c-.25-3.38,103.27,0,103.27,0s2,22.62,0,40.77-8.93,13.71-8.93,13.71L1174,381.1l2.24,6.9s-4.91,15.9-9.23,15.9-2.81,9.68-2.81,9.68h-68.58V403.9S1096.51,336.34,1081.85,303.09Z"/><ellipse id="Ellipse_239" data-name="Ellipse 239" class="cls-7" cx="976.84" cy="383.12" rx="71.77" ry="71.68"/><ellipse id="Ellipse_241" data-name="Ellipse 241" class="cls-7" cx="250.9" cy="383.12" rx="71.77" ry="71.68"/><path id="Path_1769" data-name="Path 1769" class="cls-2" d="M323.43,75c-10.08,19.86-54.14,88.64-54.14,88.64l-15,9.46L59.81,169.8,120.9,61.52l191.89-2.13S331.13,61.66,323.43,75Z"/><path id="Path_1770" data-name="Path 1770" class="cls-8" d="M22.2,162.69h37V272.33h-37Z"/><path id="Path_1771" data-name="Path 1771" class="cls-2" d="M526.25,57.5H361.79v86.66l25.59,34.07H526.25Z"/><path id="Path_1772" data-name="Path 1772" class="cls-6" d="M361.79,311.44,872.72,320s-21.41,56.12-19.09,89.74c-58-6.83-478.06-6.52-478.06-6.52S380.32,335.35,361.79,311.44Z"/><path id="Path_1773" data-name="Path 1773" class="cls-5" d="M22.2,272.33H166.52s-44.34,55.17-43,100.87c-31.42-7.65-101.31-10-101.31-10L1.07,340.56V295.74Z"/></g></svg>