<svg id="Laag_1" data-name="Laag 1" xmlns="http://www.w3.org/2000/svg" viewBox="0 0 1186 483"><defs><style>.cls-1{fill:#5c40d3;}.cls-2{fill:#f2eafa;}.cls-3{fill:#313131;}.cls-4{fill:#d4d1ff;}.cls-5{fill:#fff;}</style></defs><title>illustrations-scaled</title><g id="middenklasse_auto" data-name="middenklasse auto"><g id="middelgrote_auto" data-name="middelgrote auto"><path id="Path_1711" data-name="Path 1711" class="cls-1" d="M25.2,195.13s22.77-30.55,99.05-35c46.81-10.53,80.87-40.59,80.87-40.59l51.44-29.8S296,65.65,365.39,59.88s174.3-6.77,174.3-6.77,93.42,4.46,162.78,36.62,128.59,80.66,128.59,80.66,9.66,10.74,22.1,12.28,72.92,4.61,72.92,4.61,108.54.92,171.71,30.79,66.34,71,66.34,71,2.7,24.2,11.83,27.24,9.21,8.4,9.21,8.4v51.75s-6,26.77-16,30.53-49.05,0-49.05,0l-17.72-5.48s-87.82-55.11-200.12,5.48c-59.68-1.73-531.81,0-531.81,0l-37.23-33.17-105.77-20-51.44,20L146.16,407s-69.32,5.07-121-46.94c-13-19.38-23.93-40.92-24-65.23-2-8.86,14.52-32.23,14.52-32.23Z"/><path id="Path_1717" data-name="Path 1717" d="M1121.57,407.68c-7.91-30.4,13-144-115.66-144S895.27,357.89,888,405.32C1009.66,413.84,1006.63,400.7,1121.57,407.68Z"/><path id="Path_1718" data-name="Path 1718" d="M373.17,407.68c-7.91-30.4,13-144-115.66-144s-110.64,94.26-117.9,141.69C261.25,413.84,258.23,400.7,373.17,407.68Z"/><path id="Path_1712" data-name="Path 1712" class="cls-2" d="M482.4,82.94l16.35,83.66L487.83,181H304.51s-48.27-12-47.74-44.8S361.58,82.94,361.58,82.94H431"/><path id="Path_1713" data-name="Path 1713" class="cls-2" d="M517.68,82.94h90.65S644.09,71,776.8,159.06C818,183,810,179.06,810,179.06H563.73l-25.15-22Z"/><path id="Path_1714" data-name="Path 1714" class="cls-3" d="M1177.17,315.71c-29.62,11.23-76.75,0-76.75,0s21.73,61.36,20.4,92.32a194.16,194.16,0,0,0,46.59,0s17-14.87,18.11-32.66,0-51.18,0-51.18S1182.17,313.28,1177.17,315.71Z"/><path id="Path_1715" data-name="Path 1715" class="cls-3" d="M903.2,321.05c7.5-1.78-547,0-547,0s15.14,30.64,16.1,86.79c19.18-.2,521.47-.22,521.47-.22S883.89,351.28,903.2,321.05Z"/><path id="Path_1716" data-name="Path 1716" class="cls-3" d="M157.94,320.25c-19.07,2.59-117.23,0-117.23,0S17.7,312.17,1,295.86C-9.34,353.69,66.13,390.8,66.13,390.8s45.81,19,77.18,16.68C147.87,387.56,143.48,343.61,157.94,320.25Z"/><ellipse id="Ellipse_222" data-name="Ellipse 222" class="cls-3" cx="1011.23" cy="387.14" rx="94.96" ry="95.86"/><circle id="Ellipse_225" data-name="Ellipse 225" class="cls-3" cx="261.52" cy="387.14" r="95.86"/><circle id="Ellipse_223" data-name="Ellipse 223" class="cls-4" cx="1011.23" cy="388.04" r="71.44"/><circle id="Ellipse_224" data-name="Ellipse 224" class="cls-4" cx="264.23" cy="388.04" r="71.44"/><path id="Path_1719" data-name="Path 1719" class="cls-5" d="M1106.26,222.85s45.32,15.75-57.1,21.32,108,23.46,108,23.46S1122.71,222.85,1106.26,222.85Z"/></g></g></svg>