<svg xmlns="http://www.w3.org/2000/svg" width="80.657" height="647.425" viewBox="0 0 80.657 647.425">
  <g id="Group_465" data-name="Group 465" opacity="0.3">
    <g id="Group_464" data-name="Group 464">
      <g id="Group_459" data-name="Group 459" transform="translate(5.3)">
        <g id="Group_451" data-name="Group 451">
          <g id="Group_450" data-name="Group 450">
            <g id="Group_449" data-name="Group 449">
              <g id="Group_448" data-name="Group 448">
                <path id="Path_1334" data-name="Path 1334" d="M825.7,208.291H756.295c-.2,0-.4-.012-.595-.019a23.935,23.935,0,0,1,1.129-2.27c1.156-2.275,2.33-4.541,3.5-6.808.255-.492.517-.99,1.244-.852.01.117-.036.249.1.333l-.1.281a.77.77,0,0,0-.373.427c-.361.69-.716,1.385-1.084,2.072q-1.522,2.843-3.052,5.684c-.266.5-.262.5.3.5q3.189,0,6.377-.006H816.88q3.667,0,7.334.011c.335,0,.3-.136.187-.349-.169-.307-.328-.619-.5-.927-.681-1.278-1.368-2.553-2.042-3.833-.608-1.154-1.2-2.314-1.807-3.471a.331.331,0,0,0,.2-.381v-.334c.288-.061.422.115.529.324.9,1.756,1.789,3.515,2.692,5.268q1.037,2.013,2.1,4.015A.634.634,0,0,1,825.7,208.291Z" transform="translate(-755.7 -198.292)" fill="#cab1e2"/>
                <path id="Path_1349" data-name="Path 1349" d="M1146.565,198.284v.626h-36.473l-.123-.178c.171-.289.4-.139.609-.178.18-.034.409.12.5-.268.224-.02.448-.055.673-.055h34.208C1146.157,198.23,1146.357,198.264,1146.565,198.284Z" transform="translate(-1082.058 -198.216)" fill="#cab1e2"/>
                <path id="Path_1350" data-name="Path 1350" d="M815.068,198.837c-.136-.154-.089-.4-.1-.611.2-.019.4-.056.6-.056h26.116a.844.844,0,0,1,.687.119c.038.293-.133.36-.2.546Z" transform="translate(-809.039 -198.143)" fill="#cab1e2"/>
                <path id="Path_1354" data-name="Path 1354" d="M1086.965,198.506c.061-.107.232-.145.195-.313a18.342,18.342,0,0,1,3.005-.038c-.073.218-.259.131-.406.15-.167.022-.355-.061-.494.1h0c-.068.033-.069.066,0,.1h0v.293h-.5c-.026-.05-.046-.138-.081-.144-.106-.021-.1.078-.119.15h-.2c.026-.346-.22-.3-.433-.3-.158,0-.362-.05-.279.237l-.688.056Q1086.965,198.653,1086.965,198.506Z" transform="translate(-1054.142 -198.11)" fill="#cab1e2"/>
                <path id="Path_1377" data-name="Path 1377" d="M799.383,204.476l.682-.054c.226.122.471.037.705.06h.9c.2,0,.4.008.594.008h27.812a1.568,1.568,0,0,1,.822.1q.9,1.723,1.806,3.446c.675,1.272,1.361,2.538,2.042,3.806.164.307.324.616.5.921.117.211.147.347-.187.346q-3.666-.012-7.331-.011H774.6q-3.188,0-6.375.006c-.562,0-.566,0-.3-.494q1.524-2.822,3.051-5.644c.367-.683.723-1.371,1.084-2.057a.767.767,0,0,1,.372-.424Zm2.18,7.672h23.529a.233.233,0,0,0,.183-.048.21.21,0,0,0,.079-.165c.119-.72.682-1.04,1.315-1.272a10.214,10.214,0,0,1,3.621-.612c.211,0,.409.023.236-.3a19.244,19.244,0,0,1-.96-1.959,1.291,1.291,0,0,0-1.417-.864,12.923,12.923,0,0,1-4-.723,2.343,2.343,0,0,1-1.252-.725.942.942,0,0,0-.892-.347q-11.625.008-23.25,0H780.971c-.208,0-.445-.061-.594.14a3.353,3.353,0,0,1-1.868,1.069,13.6,13.6,0,0,1-4.077.6.641.641,0,0,0-.708.436c-.313.756-.649,1.513-1.037,2.243-.213.4-.092.446.3.439a9.938,9.938,0,0,1,3.481.575,1.884,1.884,0,0,1,1.351,1.085c.127.445.35.428.686.428h23.058Z" transform="translate(-766.546 -203.789)" fill="#5d3ad2"/>
                <path id="Path_1384" data-name="Path 1384" d="M845.391,218.839H822.355c-.335,0-.559.017-.685-.423a1.878,1.878,0,0,0-1.349-1.071,10.031,10.031,0,0,0-3.476-.567c-.385.007-.506-.038-.3-.433.388-.718.722-1.462,1.036-2.212a.641.641,0,0,1,.707-.43,13.73,13.73,0,0,0,4.07-.586,3.359,3.359,0,0,0,1.866-1.055c.151-.2.388-.138.593-.138h40.968a.947.947,0,0,1,.89.342,2.343,2.343,0,0,0,1.251.715,13.04,13.04,0,0,0,4,.714,1.29,1.29,0,0,1,1.415.852,18.963,18.963,0,0,0,.958,1.933c.173.318-.025.3-.235.295a10.31,10.31,0,0,0-3.615.6c-.632.23-1.194.544-1.313,1.254a.207.207,0,0,1-.079.163.234.234,0,0,1-.183.047Zm-.07-5.425a11.754,11.754,0,0,0-2.017.1,8.361,8.361,0,0,0-2.806.811c-.86.484-.946,1.159-.1,1.74a4.472,4.472,0,0,0,1.532.621,15.762,15.762,0,0,0,5.525.265,6.986,6.986,0,0,0,2.843-.839c.906-.551.852-1.3-.111-1.779a10.719,10.719,0,0,0-4.868-.921Zm14.323,2.8a5.4,5.4,0,0,0,2.127-.326c.279-.107.62-.228.619-.589s-.3-.523-.609-.66a7.574,7.574,0,0,0-4.962-.057.606.606,0,0,0-.45.554.577.577,0,0,0,.409.528,6.543,6.543,0,0,0,2.867.552Zm-28.382.013a6.663,6.663,0,0,0,2.71-.513c.27-.132.541-.26.528-.6s-.28-.466-.563-.571a7.306,7.306,0,0,0-3.777-.223,3.251,3.251,0,0,0-1.414.5c-.406.3-.38.628.043.882a5.539,5.539,0,0,0,2.472.52Z" transform="translate(-810.371 -210.535)" fill="#cab1e2"/>
                <path id="Path_1385" data-name="Path 1385" d="M1058.123,227.953a10.3,10.3,0,0,1,4.925.986c.972.514,1.028,1.316.111,1.907a6.766,6.766,0,0,1-2.874.9,15.046,15.046,0,0,1-5.586-.284,4.381,4.381,0,0,1-1.549-.666c-.859-.622-.773-1.346.1-1.865a8.088,8.088,0,0,1,2.837-.869,11.214,11.214,0,0,1,2.036-.109Z" transform="translate(-1023.173 -225.192)" fill="#5d3ad2"/>
                <path id="Path_1386" data-name="Path 1386" d="M1223.262,238.319a6.286,6.286,0,0,1-2.9-.594.614.614,0,0,1-.413-.566.643.643,0,0,1,.455-.594,5.92,5.92,0,0,1,2.935-.4,5.993,5.993,0,0,1,2.081.461c.312.147.615.32.616.708s-.344.517-.626.632a5.178,5.178,0,0,1-2.148.353Z" transform="translate(-1173.971 -232.56)" fill="#5d3ad2"/>
                <path id="Path_1387" data-name="Path 1387" d="M940.659,238.348a5.33,5.33,0,0,1-2.5-.556c-.427-.273-.454-.628-.043-.946a3.17,3.17,0,0,1,1.429-.54,6.983,6.983,0,0,1,3.818.239c.286.11.556.256.569.612s-.26.5-.534.641a6.4,6.4,0,0,1-2.739.55Z" transform="translate(-919.784 -232.575)" fill="#5d3ad2"/>
              </g>
            </g>
          </g>
        </g>
      </g>
      <path id="Path_2592" data-name="Path 2592" d="M10086.475-2446.755l-18.8-1.84,18.8.217Z" transform="translate(-10011.175 2475.448)" fill="#cab1e2"/>
      <rect id="Rectangle_770" data-name="Rectangle 770" width="70" height="637.426" transform="translate(5.3 9.999)" fill="#5d35d2"/>
      <path id="Path_2583" data-name="Path 2583" d="M10067.676-2446.861l13.178-1.734-13.178.2Z" transform="translate(-10062.396 2618.935)" fill="#cab1e2"/>
      <path id="Path_2584" data-name="Path 2584" d="M10067.675-2447.639l35.021-.956-35.021.112Z" transform="translate(-10062.396 2579.354)" fill="#cab1e2"/>
      <path id="Path_2585" data-name="Path 2585" d="M10067.676-2446.755l18.8-1.84-18.8.217Z" transform="translate(-10062.396 2537.448)" fill="#cab1e2"/>
      <path id="Path_2590" data-name="Path 2590" d="M10115.554-2446.725l-47.877-1.87,47.877.22Z" transform="translate(-10040.256 2661.527)" fill="#cab1e2"/>
      <path id="Path_2593" data-name="Path 2593" d="M10081.516-2447.4l-13.84-1.19,13.84.14Z" transform="translate(-10006.217 2598.281)" fill="#cab1e2"/>
      <path id="Path_2594" data-name="Path 2594" d="M10091.16-2446.868l-23.485-1.727,23.485.2Z" transform="translate(-10015.862 2589.62)" fill="#cab1e2"/>
      <path id="Path_2595" data-name="Path 2595" d="M10100.8-2446.6l-33.119-2,33.119.235Z" transform="translate(-10025.497 2515.288)" fill="#cab1e2"/>
      <path id="Path_2586" data-name="Path 2586" d="M10067.676-2453.449l-3.38,7.5,22.083-4.026-18.7,1.6Z" transform="translate(-10062.396 2492.448)" fill="#cab1e2"/>
      <path id="Path_2587" data-name="Path 2587" d="M10082.929-2445.948v3.964l3.452-.779v-3.817Z" transform="translate(-10081.029 2492.448)" fill="#5d35d2"/>
      <path id="Path_2588" data-name="Path 2588" d="M10068.278-2453.449l-3.982,8.839,26.021-4.744-22.038,1.88Z" transform="translate(-10062.896 2630.055)" fill="#cab1e2"/>
      <path id="Path_2589" data-name="Path 2589" d="M10082.929-2445.835v4.67l4.067-.918v-4.5Z" transform="translate(-10081.529 2631.385)" fill="#5d35d2"/>
      <path id="Path_2596" data-name="Path 2596" d="M10093.312-2453.449l5.243,11.637-34.258-6.246,29.015,2.475Z" transform="translate(-10017.897 2643.262)" fill="#cab1e2"/>
      <path id="Path_2605" data-name="Path 2605" d="M10088.283-2445.6v6.149l-5.354-1.208v-5.921Z" transform="translate(-10007.627 2647.188)" fill="#5d35d2"/>
      <path id="Path_2597" data-name="Path 2597" d="M10083-2453.449l3.38,7.5-22.083-4.026,18.7,1.6Z" transform="translate(-10007.697 2542.448)" fill="#cab1e2"/>
      <path id="Path_2606" data-name="Path 2606" d="M10086.38-2445.948v3.964l-3.452-.779v-3.817Z" transform="translate(-10007.697 2542.448)" fill="#5d35d2"/>
      <path id="Path_2598" data-name="Path 2598" d="M10080.854-2446.861l-13.178-1.734,13.178.2Z" transform="translate(-10005.292 2825.957)" fill="#cab1e2"/>
      <path id="Path_2599" data-name="Path 2599" d="M10102.7-2447.639l-35.021-.956,35.021.112Z" transform="translate(-10026.918 2786.373)" fill="#cab1e2"/>
      <path id="Path_2600" data-name="Path 2600" d="M10086.475-2446.755l-18.8-1.84,18.8.217Z" transform="translate(-10011.376 2745.787)" fill="#cab1e2"/>
      <path id="Path_2601" data-name="Path 2601" d="M10067.677-2446.725l47.877-1.87-47.877.22Z" transform="translate(-10062.317 2868.55)" fill="#cab1e2"/>
      <path id="Path_2602" data-name="Path 2602" d="M10067.676-2447.4l13.84-1.19-13.84.14Z" transform="translate(-10062.317 2805.301)" fill="#cab1e2"/>
      <path id="Path_2603" data-name="Path 2603" d="M10067.676-2446.868l23.485-1.727-23.485.2Z" transform="translate(-10062.316 2796.642)" fill="#cab1e2"/>
      <path id="Path_2591" data-name="Path 2591" d="M10067.677-2446.6l33.119-2-33.119.235Z" transform="translate(-10062.318 2723.3)" fill="#cab1e2"/>
      <g id="Group_460" data-name="Group 460" transform="translate(56.537 246.655)">
        <path id="Path_2555" data-name="Path 2555" d="M10083-2453.449l3.38,7.5-22.083-4.026,18.7,1.6Z" transform="translate(-10064.297 2453.449)" fill="#cab1e2"/>
        <path id="Path_2556" data-name="Path 2556" d="M10086.38-2445.948v3.964l-3.452-.779v-3.817Z" transform="translate(-10064.297 2453.449)" fill="#5d35d2"/>
      </g>
      <g id="Group_461" data-name="Group 461" transform="translate(53.099 383.705)">
        <path id="Path_2555-2" data-name="Path 2555" d="M10086.335-2453.449l3.982,8.839-26.021-4.744,22.038,1.88Z" transform="translate(-10064.296 2453.449)" fill="#cab1e2"/>
        <path id="Path_2556-2" data-name="Path 2556" d="M10087-2445.835v4.67l-4.067-.918v-4.5Z" transform="translate(-10060.976 2454.674)" fill="#5d35d2"/>
      </g>
      <g id="Group_462" data-name="Group 462" transform="translate(0 396.941)">
        <path id="Path_2555-3" data-name="Path 2555" d="M10069.54-2453.449l-5.243,11.637,34.258-6.246-29.015,2.475Z" transform="translate(-10064.297 2453.449)" fill="#cab1e2"/>
        <path id="Path_2556-3" data-name="Path 2556" d="M10082.928-2445.6v6.149l5.354-1.208v-5.921Z" transform="translate(-10082.927 2457.236)" fill="#5d35d2"/>
      </g>
      <g id="Group_463" data-name="Group 463" transform="translate(1.975 297.407)">
        <path id="Path_2555-4" data-name="Path 2555" d="M10067.676-2453.449l-3.38,7.5,22.083-4.026-18.7,1.6Z" transform="translate(-10064.296 2453.449)" fill="#cab1e2"/>
        <path id="Path_2556-4" data-name="Path 2556" d="M10082.929-2445.948v3.964l3.452-.779v-3.817Z" transform="translate(-10082.929 2453.449)" fill="#5d35d2"/>
      </g>
      <path id="Path_2604" data-name="Path 2604" d="M10086.475-2446.755l-18.8-1.84,18.8.217Z" transform="translate(-10011.175 2912.217)" fill="#cab1e2"/>
      <path id="Path_2616" data-name="Path 2616" d="M10067.676-2446.861l13.178-1.734-13.178.2Z" transform="translate(-10062.396 3055.874)" fill="#cab1e2"/>
      <path id="Path_2613" data-name="Path 2613" d="M10067.675-2447.639l35.021-.956-35.021.112Z" transform="translate(-10062.396 3016.874)" fill="#cab1e2"/>
      <path id="Path_2610" data-name="Path 2610" d="M10067.676-2446.755l18.8-1.84-18.8.217Z" transform="translate(-10062.396 2976.874)" fill="#cab1e2"/>
      <path id="Path_2614" data-name="Path 2614" d="M10081.516-2447.4l-13.84-1.19,13.84.14Z" transform="translate(-10006.217 3035.524)" fill="#cab1e2"/>
      <path id="Path_2615" data-name="Path 2615" d="M10091.16-2446.868l-23.485-1.727,23.485.2Z" transform="translate(-10015.862 3026.987)" fill="#cab1e2"/>
      <path id="Path_2607" data-name="Path 2607" d="M10100.8-2446.6l-33.119-2,33.119.235Z" transform="translate(-10025.497 2952.649)" fill="#cab1e2"/>
      <path id="Path_2608" data-name="Path 2608" d="M10067.676-2453.449l-3.38,7.5,22.083-4.026-18.7,1.6Z" transform="translate(-10062.396 2929.46)" fill="#cab1e2"/>
      <path id="Path_2609" data-name="Path 2609" d="M10082.929-2445.948v3.964l3.452-.779v-3.817Z" transform="translate(-10081.029 2929.53)" fill="#5d35d2"/>
      <path id="Path_2617" data-name="Path 2617" d="M10068.278-2453.449l-3.982,8.839,26.021-4.744-22.038,1.88Z" transform="translate(-10062.896 3066.874)" fill="#cab1e2"/>
      <path id="Path_2618" data-name="Path 2618" d="M10082.929-2445.835v4.67l4.067-.918v-4.5Z" transform="translate(-10081.529 3068.098)" fill="#5d35d2"/>
      <path id="Path_2619" data-name="Path 2619" d="M10093.312-2453.449l5.243,11.637-34.258-6.246,29.015,2.475Z" transform="translate(-10017.897 3079.874)" fill="#cab1e2"/>
      <path id="Path_2620" data-name="Path 2620" d="M10088.283-2445.6v6.149l-5.354-1.208v-5.921Z" transform="translate(-10007.627 3083.661)" fill="#5d35d2"/>
      <path id="Path_2611" data-name="Path 2611" d="M10083-2453.449l3.38,7.5-22.083-4.026,18.7,1.6Z" transform="translate(-10007.697 2981.874)" fill="#cab1e2"/>
      <path id="Path_2612" data-name="Path 2612" d="M10086.38-2445.948v3.964l-3.452-.779v-3.817Z" transform="translate(-10007.697 2981.874)" fill="#5d35d2"/>
    </g>
  </g>
</svg>
