<svg id="Laag_1" data-name="Laag 1" xmlns="http://www.w3.org/2000/svg" viewBox="0 0 85 85"><defs><style>.cls-1,.cls-2{fill:#5c40d3;}.cls-2{stroke:#5c40d3;}</style></defs><title>illustrations-scaled</title><g id="Group_364" data-name="Group 364"><path id="Path_2394" data-name="Path 2394" class="cls-1" d="M76.78,35.9c-4,1.59-7.7,3-11.38,4.51C58.18,43.27,51,46.16,43.74,49a3.79,3.79,0,0,1-2.53,0q-20-7.87-40-15.88a5.07,5.07,0,0,1-1.18-1,4.9,4.9,0,0,1,1.18-1q20.07-8,40.17-15.94a3.57,3.57,0,0,1,2.39,0Q63.66,23,83.53,30.9a1.79,1.79,0,0,1,.51.22c.34.28.64.6,1,.9-.34.33-.61.8-1,1-1.45.65-2.93,1.24-4.42,1.77a1.51,1.51,0,0,0-1.21,1.72c.08,2.29,0,4.59.05,6.89a1.69,1.69,0,0,0,.65,1.15,3.34,3.34,0,0,1,1,5A2.3,2.3,0,0,0,79.8,51c.3,1.94.7,3.86,1,5.79.13.84-.31,1.32-1.22,1.31-1.36,0-2.72,0-4.08,0-.9,0-1.34-.44-1.2-1.31.28-1.89.56-3.78,1-5.65A1.68,1.68,0,0,0,75,49.38c-1.32-1.65-.86-3.63,1-4.81.32-.2.76-.54.77-.83C76.81,41.23,76.78,38.71,76.78,35.9ZM82,32.1c-.67-.3-1-.47-1.34-.6Q62,24.11,43.43,16.75a3.19,3.19,0,0,0-2.09.1Q25.47,23.08,9.63,29.39c-2.11.83-4.19,1.69-6.52,2.63.6.3.92.48,1.26.61Q23,40,41.56,47.37a3.16,3.16,0,0,0,2.1-.09Q56.61,42.21,69.5,37.05ZM79.32,56.4c-.39-1.76-.73-3.37-1.13-5a.66.66,0,0,0-.73-.58.64.64,0,0,0-.58.58c-.42,1.59-.77,3.2-1.17,5Zm-1.5-10.83-.66,0c-.42.62-1.13,1.2-1.2,1.86A1.41,1.41,0,0,0,77.57,49c1,0,1.67-.65,1.49-1.6-.13-.65-.81-1.2-1.24-1.8Z"/><path id="Path_2395" data-name="Path 2395" class="cls-1" d="M19.14,50.58V44.67c0-2.07.32-2.29,2.19-1.53,6.68,2.69,13.35,5.42,20.05,8a3.73,3.73,0,0,0,2.49,0c6.74-2.65,13.45-5.39,20.18-8.11,1.65-.67,2-.45,2,1.35,0,3.52-.1,7,.1,10.54a9.24,9.24,0,0,1-3.4,7.67A27.72,27.72,0,0,1,49,69.38,31.15,31.15,0,0,1,23.74,64a16.15,16.15,0,0,1-2.57-2.39,7.35,7.35,0,0,1-2.05-5.36C19.2,54.33,19.14,52.45,19.14,50.58Zm1.59-5.95c0,4,.05,7.74,0,11.44a5.85,5.85,0,0,0,1.55,4.23A17,17,0,0,0,25.12,63,29.54,29.54,0,0,0,50,67.51a24.26,24.26,0,0,0,12.74-7.26,6.51,6.51,0,0,0,1.78-4.86c-.1-1.87-.07-3.75-.08-5.63,0-1.62,0-3.25,0-5a11.31,11.31,0,0,0-1.23.37c-6.33,2.56-12.67,5.11-19,7.71a3.78,3.78,0,0,1-3.09,0C36.5,51,31.85,49.11,27.21,47.24l-6.48-2.61Z"/><path id="Path_2396" data-name="Path 2396" class="cls-2" d="M82,32.1,69.5,37.05Q56.59,42.18,43.66,47.28a3.16,3.16,0,0,1-2.1.09Q22.94,40.05,4.37,32.63C4,32.5,3.71,32.32,3.11,32c2.33-.94,4.42-1.8,6.52-2.63q15.84-6.3,31.71-12.54a3.19,3.19,0,0,1,2.09-.1Q62,24.07,80.62,31.5C81,31.63,81.29,31.8,82,32.1Z"/><path id="Path_2397" data-name="Path 2397" class="cls-2" d="M79.32,56.4H75.71c.4-1.76.75-3.37,1.17-5a.65.65,0,0,1,.72-.58.64.64,0,0,1,.58.58C78.59,53,78.93,54.64,79.32,56.4Z"/><path id="Path_2398" data-name="Path 2398" class="cls-2" d="M77.82,45.57c.43.6,1.11,1.15,1.24,1.8.18,1-.49,1.58-1.49,1.6s-1.71-.61-1.61-1.52c.07-.66.78-1.24,1.2-1.86Z"/><path id="Path_2399" data-name="Path 2399" class="cls-2" d="M20.73,44.63l6.48,2.61c4.64,1.88,9.29,3.74,13.91,5.65a3.77,3.77,0,0,0,3.1,0c6.31-2.6,12.65-5.15,19-7.71.33-.14.69-.21,1.23-.37,0,1.75,0,3.38,0,5,0,1.87,0,3.75.08,5.62a6.56,6.56,0,0,1-1.79,4.87A24.32,24.32,0,0,1,50,67.52,29.59,29.59,0,0,1,25.11,63a17.28,17.28,0,0,1-2.86-2.68,5.76,5.76,0,0,1-1.55-4.23C20.78,52.37,20.73,48.67,20.73,44.63Z"/></g></svg>
