<svg id="Laag_1" data-name="Laag 1" xmlns="http://www.w3.org/2000/svg" viewBox="0 0 85 85"><defs><style>.cls-1{fill:#5c40d3;stroke:#5c40d3;}.cls-2{fill:#fff;}</style></defs><title>illustrations-scaled</title><g id="Overige_lasten" data-name="Overige lasten"><g id="Group_366" data-name="Group 366"><path id="Path_2403" data-name="Path 2403" class="cls-1" d="M73.64,42.59V75.71c0,2-.47,2.2-2.62,1.23-1.59-.72-3.13-1.52-4.78-2.13a3.63,3.63,0,0,0-2.21,0A49.34,49.34,0,0,0,59.11,77,3.16,3.16,0,0,1,56,77a53.53,53.53,0,0,0-4.92-2.24,3.27,3.27,0,0,0-2,0A49.42,49.42,0,0,0,44.11,77a3.21,3.21,0,0,1-3.25,0,45.58,45.58,0,0,0-4.78-2.15,3.59,3.59,0,0,0-2.2,0A49.51,49.51,0,0,0,29,77a3.12,3.12,0,0,1-3.1,0c-1.6-.8-3.23-1.57-4.93-2.23a3.27,3.27,0,0,0-2.05,0c-1.79.71-3.49,1.58-5.24,2.36s-2.27.44-2.28-1c0-4.72,0-9.43,0-14.15V9.57c0-2.21.5-2.58,2.94-1.44,3.82,1.76,7.42,1.92,11.14,0a4.2,4.2,0,0,1,4,0,11.31,11.31,0,0,0,11.1,0,4.15,4.15,0,0,1,4,0,11.31,11.31,0,0,0,11.1,0,4.22,4.22,0,0,1,4,0,11.08,11.08,0,0,0,11,0,4.42,4.42,0,0,1,1.12-.41c1.32-.32,2,0,2,1.2-.07,3.67,0,7.35,0,11ZM13.41,75.33c1.67-.76,3.09-1.32,4.41-2a4.09,4.09,0,0,1,4.09,0c1.8.89,3.72,2.26,5.57,2.25s3.76-1.41,5.56-2.29a4,4,0,0,1,3.79,0c1.81.88,3.7,2.31,5.56,2.3s3.87-1.39,5.74-2.27a4,4,0,0,1,3.79,0c1.8.88,3.71,2.29,5.56,2.28s3.88-1.39,5.74-2.27a4,4,0,0,1,3.79,0c1.41.72,2.91,1.33,4.56,2.06V9.78a2.33,2.33,0,0,0-.59,0,37.4,37.4,0,0,1-4.08,1.34,6,6,0,0,1-3.32,0,12.78,12.78,0,0,0-12,0,4.41,4.41,0,0,1-3.12,0,12.45,12.45,0,0,0-11.82,0,4.61,4.61,0,0,1-3.29,0,12.52,12.52,0,0,0-11.83,0,5.89,5.89,0,0,1-3.31,0,50,50,0,0,1-4.8-1.59Z"/><path id="Path_2404" data-name="Path 2404" class="cls-1" d="M13.4,74.84V10.06a48.89,48.89,0,0,0,4.8,1.57,6,6,0,0,0,3.31,0,12.69,12.69,0,0,1,11.83,0,4.61,4.61,0,0,0,3.29,0,12.62,12.62,0,0,1,11.82,0,4.47,4.47,0,0,0,3.12,0,13,13,0,0,1,12,0,6,6,0,0,0,3.32,0A36.6,36.6,0,0,0,71,10.29a2.33,2.33,0,0,1,.59,0V74.8c-1.65-.73-3.14-1.33-4.56-2a4,4,0,0,0-3.79,0C61.35,73.65,59.4,75,57.47,75s-3.75-1.38-5.56-2.25a4.06,4.06,0,0,0-3.79,0C46.26,73.65,44.3,75,42.38,75s-3.74-1.4-5.55-2.26a4,4,0,0,0-3.79,0c-1.81.87-3.7,2.25-5.57,2.26s-3.77-1.35-5.56-2.22a4.19,4.19,0,0,0-4.1,0C16.5,73.54,15.08,74.09,13.4,74.84ZM38.64,27.12c4.79,0,9.57,0,14.35,0a5.4,5.4,0,0,0,1.79-.68c-.58-.28-1.17-.8-1.76-.81q-14.27-.07-28.53,0c-.59,0-1.18.51-1.77.78a5.2,5.2,0,0,0,1.74.71c4.73.06,9.46,0,14.18,0ZM31,36c2.36,0,4.72,0,7.08,0a4.46,4.46,0,0,0,1.57-.73c-.5-.27-1-.76-1.49-.77q-6.91-.09-13.82,0c-.54,0-1.06.47-1.6.73a5,5,0,0,0,1.7.77c2.18.09,4.37,0,6.56,0Zm.24,8.83c2.24,0,4.48,0,6.71,0a5,5,0,0,0,1.7-.8A4.56,4.56,0,0,0,38,43.29q-6.88-.07-13.78,0c-.52,0-1,.48-1.54.74.53.26,1.05.73,1.6.75,2.29.09,4.59,0,6.89,0Zm-2,8.73c1.78,0,3.55.05,5.32,0,.5,0,1-.46,1.44-.71C35.5,52.53,35,52,34.57,52c-3.48-.07-7-.07-10.45,0-.48,0-.94.49-1.4.75.45.26.88.72,1.35.75,1.71.09,3.42,0,5.14,0Z"/><path id="Path_2406" data-name="Path 2406" class="cls-2" d="M38.64,27.16c-4.72,0-9.45,0-14.17,0-.59,0-1.17-.59-1.75-.9.59-.35,1.18-1,1.78-1q14.27-.11,28.53,0c.58,0,1.17.66,1.75,1-.59.3-1.18.86-1.78.87C48.21,27.19,43.43,27.16,38.64,27.16Z"/><path id="Path_2407" data-name="Path 2407" class="cls-2" d="M31,36.12c-2.19,0-4.38.07-6.56,0-.58,0-1.13-.64-1.7-1,.53-.32,1.06-.92,1.59-.93q6.91-.1,13.82,0c.51,0,1,.64,1.5,1-.52.33-1,.91-1.57.93C35.69,36.17,33.33,36.12,31,36.12Z"/><path id="Path_2408" data-name="Path 2408" class="cls-2" d="M31.21,45c-2.3,0-4.6.07-6.89-.05-.55,0-1.07-.62-1.6-.95.51-.32,1-.93,1.54-.94q6.89-.11,13.78,0c.53,0,1.06.57,1.58.87-.56.36-1.11,1-1.7,1C35.69,45.1,33.45,45,31.21,45Z"/><path id="Path_2409" data-name="Path 2409" class="cls-2" d="M29.21,53.85c-1.72,0-3.43.07-5.14-.05-.47,0-.9-.61-1.35-.94.46-.34.92-1,1.4-1,3.48-.08,7-.08,10.45,0,.47,0,.93.65,1.39,1-.48.32-.94.87-1.44.9C32.75,53.92,31,53.85,29.21,53.85Z"/><path id="Path_2327" data-name="Path 2327" class="cls-2" d="M49.67,52.5h2a11.58,11.58,0,0,1,.92-3.09,8.36,8.36,0,0,1,1.6-2.35,6.64,6.64,0,0,1,2.21-1.49,7,7,0,0,1,2.72-.52,6.61,6.61,0,0,1,3.12.68,7,7,0,0,1,2.24,1.88l-.83.92a1.1,1.1,0,0,1-.22.21.39.39,0,0,1-.29.09.72.72,0,0,1-.49-.26A5.18,5.18,0,0,0,62,48a4.47,4.47,0,0,0-1.08-.57,4.58,4.58,0,0,0-1.68-.26,4.38,4.38,0,0,0-3.3,1.36,7.32,7.32,0,0,0-1.75,4h7.44v.75a.67.67,0,0,1-.18.44.69.69,0,0,1-.51.19H54c0,.18,0,.37,0,.55s0,.36,0,.55v.43c0,.13,0,.27,0,.4h6.35v.76a.57.57,0,0,1-.19.43.65.65,0,0,1-.51.2H54.12a7.53,7.53,0,0,0,1.69,4.2,4.29,4.29,0,0,0,3.29,1.41,5.1,5.1,0,0,0,1.29-.14,4.62,4.62,0,0,0,1-.36,3.73,3.73,0,0,0,.7-.47c.2-.17.37-.33.51-.47s.28-.27.39-.36a.53.53,0,0,1,.33-.15.38.38,0,0,1,.19,0,.7.7,0,0,1,.19.15l1,.95a6.58,6.58,0,0,1-2.36,2.15,6.88,6.88,0,0,1-3.36.77,7.1,7.1,0,0,1-2.84-.53,6.36,6.36,0,0,1-2.19-1.54,8.13,8.13,0,0,1-1.52-2.44,12.71,12.71,0,0,1-.81-3.21H49.67V55.82H51.5c0-.13,0-.27,0-.41V55c0-.18,0-.36,0-.55s0-.37,0-.55H49.67Z"/></g></g></svg>