<svg id="Laag_1" data-name="Laag 1" xmlns="http://www.w3.org/2000/svg" viewBox="0 0 85 85"><defs><style>.cls-1,.cls-2{fill:#5c40d3;}.cls-2{stroke:#5c40d3;}</style></defs><title>illustrations-scaled</title><g id="Group_360" data-name="Group 360"><path id="Path_2366" data-name="Path 2366" class="cls-1" d="M46.32,29.76a2.7,2.7,0,0,0-.37,1.7c3.72,11.69,7.5,23.35,11.26,35,1.15,3.56,2.29,7.13,3.36,10.72.14.48-.21,1.1-.34,1.66-.37-.38-.93-.71-1.09-1.17q-1.53-4.44-2.9-8.94a1.39,1.39,0,0,0-1.57-1.19q-12.66,0-25.34,0a1.31,1.31,0,0,0-1.48,1.1c-.9,3-1.85,5.9-2.8,8.84-.2.64-.27,1.6-1.23,1.28-.26-.08-.41-1.24-.23-1.79q7.1-22.57,14.3-45.11a1.84,1.84,0,0,0-.47-2.2,6.07,6.07,0,0,1-.76-7.41A6.13,6.13,0,0,1,48,25.55,6.69,6.69,0,0,1,46.32,29.76Zm5.23,24.49Q47.82,42.61,44.24,31.5H39.69C37.3,39,34.91,46.56,32.47,54.25ZM55.2,65.93c-.12-.48-.18-.88-.3-1.26-.82-2.54-1.68-5.06-2.44-7.61a1.37,1.37,0,0,0-1.57-1.17h0q-8.87,0-17.72,0A1.41,1.41,0,0,0,31.54,57c-.77,2.6-1.61,5.17-2.42,7.76a8.77,8.77,0,0,0-.2,1.14ZM41.85,30a4.58,4.58,0,0,0,4.57-4.53A4.66,4.66,0,0,0,41.84,21a4.6,4.6,0,0,0-4.47,4.5A4.51,4.51,0,0,0,41.82,30Z"/><path id="Path_2367" data-name="Path 2367" class="cls-1" d="M73.43,25.69a30.21,30.21,0,0,1-7,19c-.3.38-1,.46-1.48.68.08-.56,0-1.28.29-1.67a29,29,0,0,0,6.56-18.15A28.58,28.58,0,0,0,65.68,8.1c-.23-.3-.47-.59-.69-.89-.4-.51-1-1.09-.24-1.62.25-.17,1.13.22,1.43.58A30.42,30.42,0,0,1,73.43,25.69Z"/><path id="Path_2368" data-name="Path 2368" class="cls-1" d="M10.77,25.56A30.9,30.9,0,0,1,17.92,6.28c.2-.26.4-.6.67-.7a1.13,1.13,0,0,1,1,.07,1,1,0,0,1,.09.94c-.5.79-1.12,1.5-1.66,2.26-7.72,10.76-7.45,24,.66,34.42.42.55,1.56,1.19.64,1.95s-1.45-.41-1.91-1A30.32,30.32,0,0,1,10.77,25.56Z"/><path id="Path_2369" data-name="Path 2369" class="cls-1" d="M64.42,25.42a19.32,19.32,0,0,1-4.63,12.46c-.28.34-1,.36-1.46.53.09-.53,0-1.18.29-1.55q8.61-11.55-.29-23.06c-.27-.34-.21-1-.3-1.43.51.14,1.21.12,1.5.45A19.34,19.34,0,0,1,64.42,25.42Z"/><path id="Path_2370" data-name="Path 2370" class="cls-1" d="M19.85,25.25A19.29,19.29,0,0,1,24.61,13c.33-.38,1.05-.43,1.59-.63-.11.53,0,1.2-.34,1.57a18.11,18.11,0,0,0-4.4,11A17.54,17.54,0,0,0,25.32,36.4c.44.59,1.44,1.27.52,2s-1.34-.47-1.77-1A19.44,19.44,0,0,1,19.85,25.25Z"/><path id="Path_2371" data-name="Path 2371" class="cls-1" d="M56.76,25.37a8.43,8.43,0,0,1-2.21,5.77c-.3.31-.94.3-1.42.45.07-.49,0-1.11.24-1.46,2.4-3.27,2.39-6.19,0-9.38-.27-.35-.2-1-.29-1.45.5.14,1.17.14,1.48.46A8.24,8.24,0,0,1,56.76,25.37Z"/><path id="Path_2372" data-name="Path 2372" class="cls-1" d="M27.34,25.4a8.3,8.3,0,0,1,2.4-5.82c.27-.26.86-.21,1.3-.31,0,.46.07,1-.16,1.36-2.59,3.62-2.6,5.94-.07,9.57.24.33.14.9.19,1.36-.48-.13-1.12-.11-1.42-.42A8.26,8.26,0,0,1,27.34,25.4Z"/><path id="Path_2373" data-name="Path 2373" class="cls-2" d="M51.55,54.25H32.47C34.91,46.56,37.3,39,39.69,31.5h4.55Q47.81,42.6,51.55,54.25Z"/><path id="Path_2374" data-name="Path 2374" class="cls-2" d="M55.2,65.93H28.92a8.62,8.62,0,0,1,.2-1.13c.8-2.59,1.65-5.17,2.42-7.77a1.41,1.41,0,0,1,1.62-1.14q8.87,0,17.72,0A1.39,1.39,0,0,1,52.46,57h0c.76,2.56,1.62,5.08,2.44,7.62C55,65.05,55.08,65.45,55.2,65.93Z"/><path id="Path_2375" data-name="Path 2375" class="cls-2" d="M41.85,30a4.52,4.52,0,0,1-4.48-4.55v0A4.58,4.58,0,0,1,41.83,21a4.66,4.66,0,0,1,4.59,4.55A4.6,4.6,0,0,1,41.85,30Z"/></g></svg>
