<svg id="Laag_1" data-name="Laag 1" xmlns="http://www.w3.org/2000/svg" viewBox="0 0 1510 1245"><defs><style>.cls-1{fill:#5c40d3;}.cls-2{fill:#f2eafa;}.cls-3{fill:#2f2e41;}.cls-4{fill:#9d68fd;}.cls-5{fill:#fff;}.cls-6{opacity:0.5;}</style></defs><title>illustrations-scaled</title><g id="Tussenwoning"><g id="Group_317" data-name="Group 317"><path id="Path_1498" data-name="Path 1498" class="cls-1" d="M1007.55,520V734.72H503.28V518.39l434.57,1.34Z"/><path id="Path_1730" data-name="Path 1730" class="cls-2" d="M1007.55,736.05v476.17H503.28V732.6l434.57,3Z"/><rect id="Rectangle_296" data-name="Rectangle 296" class="cls-3" x="503.28" y="1201.05" width="503.8" height="43.95"/><rect id="Rectangle_428" data-name="Rectangle 428" class="cls-1" x="508" y="1197.41" width="499.08" height="3.93"/><rect id="Rectangle_297" data-name="Rectangle 297" class="cls-4" x="739.48" y="1001.19" width="213.72" height="146.2"/><rect id="Rectangle_298" data-name="Rectangle 298" class="cls-5" x="739.48" y="1001.19" width="213.72" height="146.2"/><rect id="Rectangle_328" data-name="Rectangle 328" class="cls-5" x="588.27" y="766.78" width="114.49" height="130.17"/><rect id="Rectangle_364" data-name="Rectangle 364" class="cls-5" x="700.1" y="568.33" width="114.49" height="130.17"/><rect id="Rectangle_339" data-name="Rectangle 339" class="cls-5" x="804.06" y="766.78" width="114.49" height="130.17"/><rect id="Rectangle_299" data-name="Rectangle 299" class="cls-3" x="549.42" y="1017.16" width="119.71" height="184.97"/><rect id="Rectangle_301" data-name="Rectangle 301" class="cls-5" x="560.81" y="1035.35" width="96.9" height="151.97"/><path id="Path_1501" data-name="Path 1501" class="cls-1" d="M1007.55,500.31v33.92H502.45V500.31"/><rect id="Rectangle_303" data-name="Rectangle 303" class="cls-3" x="733.33" y="993.23" width="226.01" height="7.97"/><rect id="Rectangle_326" data-name="Rectangle 326" class="cls-3" x="582.12" y="757.24" width="129.93" height="9.54"/><rect id="Rectangle_365" data-name="Rectangle 365" class="cls-1" x="693.95" y="558.78" width="129.93" height="9.54"/><rect id="Rectangle_338" data-name="Rectangle 338" class="cls-3" x="797.91" y="757.24" width="129.93" height="9.54"/><rect id="Rectangle_304" data-name="Rectangle 304" class="cls-3" x="893.89" y="1001.19" width="7.2" height="141.89"/><rect id="Rectangle_305" data-name="Rectangle 305" class="cls-3" x="842.73" y="1001.19" width="7.2" height="141.89"/><rect id="Rectangle_306" data-name="Rectangle 306" class="cls-3" x="791.58" y="1001.19" width="7.2" height="141.89"/><rect id="Rectangle_332" data-name="Rectangle 332" class="cls-3" x="640.37" y="766.78" width="7.2" height="115.4"/><rect id="Rectangle_367" data-name="Rectangle 367" class="cls-3" x="752.2" y="568.33" width="7.2" height="115.4"/><rect id="Rectangle_336" data-name="Rectangle 336" class="cls-3" x="856.16" y="766.78" width="7.2" height="115.4"/><rect id="Rectangle_307" data-name="Rectangle 307" class="cls-3" x="739.48" y="1072.98" width="213.72" height="6.08"/><rect id="Rectangle_308" data-name="Rectangle 308" class="cls-3" x="726.67" y="1132.62" width="239.29" height="20.92" rx="5.83"/><rect id="Rectangle_333" data-name="Rectangle 333" class="cls-3" x="575.46" y="882.19" width="136.91" height="20.92" rx="5.83"/><rect id="Rectangle_368" data-name="Rectangle 368" class="cls-1" x="687.29" y="683.73" width="136.91" height="20.92" rx="5.83"/><rect id="Rectangle_335" data-name="Rectangle 335" class="cls-3" x="791.25" y="882.19" width="136.91" height="20.92" rx="5.83"/><rect id="Rectangle_334" data-name="Rectangle 334" class="cls-3" x="587.89" y="822.33" width="115.31" height="7.2"/><rect id="Rectangle_366" data-name="Rectangle 366" class="cls-3" x="699.72" y="623.87" width="115.31" height="7.2"/><rect id="Rectangle_294" data-name="Rectangle 294" class="cls-3" x="930.18" y="472.52" width="36.54" height="106.28"/><rect id="Rectangle_337" data-name="Rectangle 337" class="cls-3" x="803.68" y="822.33" width="115.31" height="7.2"/></g></g><g id="Tussenwoning-2" class="cls-6"><g id="Group_317-2" data-name="Group 317-2"><path id="Path_1498-2" data-name="Path 1498-2" class="cls-1" d="M505.1,520V734.72H.83V518.39l434.57,1.34Z"/><path id="Path_1730-2" data-name="Path 1730-2" class="cls-2" d="M505.1,736.05v476.17H.83V732.6l434.57,3Z"/><rect id="Rectangle_296-2" data-name="Rectangle 296-2" class="cls-3" x="0.83" y="1201.05" width="503.8" height="43.95"/><rect id="Rectangle_428-2" data-name="Rectangle 428-2" class="cls-1" x="5.55" y="1197.41" width="499.08" height="3.93"/><rect id="Rectangle_297-2" data-name="Rectangle 297-2" class="cls-4" x="237.03" y="1001.19" width="213.72" height="146.2"/><rect id="Rectangle_298-2" data-name="Rectangle 298-2" class="cls-5" x="237.03" y="1001.19" width="213.72" height="146.2"/><rect id="Rectangle_328-2" data-name="Rectangle 328-2" class="cls-5" x="85.82" y="766.78" width="114.49" height="130.17"/><rect id="Rectangle_364-2" data-name="Rectangle 364-2" class="cls-5" x="197.65" y="568.33" width="114.49" height="130.17"/><rect id="Rectangle_339-2" data-name="Rectangle 339-2" class="cls-5" x="301.61" y="766.78" width="114.49" height="130.17"/><rect id="Rectangle_299-2" data-name="Rectangle 299-2" class="cls-3" x="46.98" y="1017.16" width="119.71" height="184.97"/><rect id="Rectangle_301-2" data-name="Rectangle 301-2" class="cls-5" x="58.36" y="1035.35" width="96.9" height="151.97"/><path id="Path_1501-2" data-name="Path 1501-2" class="cls-1" d="M505.1,500.31v33.92H0V500.31"/><rect id="Rectangle_303-2" data-name="Rectangle 303-2" class="cls-3" x="230.88" y="993.23" width="226.01" height="7.97"/><rect id="Rectangle_326-2" data-name="Rectangle 326-2" class="cls-3" x="79.67" y="757.24" width="129.93" height="9.54"/><rect id="Rectangle_365-2" data-name="Rectangle 365-2" class="cls-1" x="191.5" y="558.78" width="129.93" height="9.54"/><rect id="Rectangle_338-2" data-name="Rectangle 338-2" class="cls-3" x="295.46" y="757.24" width="129.93" height="9.54"/><rect id="Rectangle_304-2" data-name="Rectangle 304-2" class="cls-3" x="391.44" y="1001.19" width="7.2" height="141.89"/><rect id="Rectangle_305-2" data-name="Rectangle 305-2" class="cls-3" x="340.28" y="1001.19" width="7.2" height="141.89"/><rect id="Rectangle_306-2" data-name="Rectangle 306-2" class="cls-3" x="289.13" y="1001.19" width="7.2" height="141.89"/><rect id="Rectangle_332-2" data-name="Rectangle 332-2" class="cls-3" x="137.92" y="766.78" width="7.2" height="115.4"/><rect id="Rectangle_367-2" data-name="Rectangle 367-2" class="cls-3" x="249.75" y="568.33" width="7.2" height="115.4"/><rect id="Rectangle_336-2" data-name="Rectangle 336-2" class="cls-3" x="353.71" y="766.78" width="7.2" height="115.4"/><rect id="Rectangle_307-2" data-name="Rectangle 307-2" class="cls-3" x="237.03" y="1072.98" width="213.72" height="6.08"/><rect id="Rectangle_308-2" data-name="Rectangle 308-2" class="cls-3" x="224.22" y="1132.62" width="239.29" height="20.92" rx="5.83"/><rect id="Rectangle_333-2" data-name="Rectangle 333-2" class="cls-3" x="73.02" y="882.19" width="136.91" height="20.92" rx="5.83"/><rect id="Rectangle_368-2" data-name="Rectangle 368-2" class="cls-1" x="184.85" y="683.73" width="136.91" height="20.92" rx="5.83"/><rect id="Rectangle_335-2" data-name="Rectangle 335-2" class="cls-3" x="288.8" y="882.19" width="136.91" height="20.92" rx="5.83"/><rect id="Rectangle_334-2" data-name="Rectangle 334-2" class="cls-3" x="85.44" y="822.33" width="115.31" height="7.2"/><rect id="Rectangle_366-2" data-name="Rectangle 366-2" class="cls-3" x="197.27" y="623.87" width="115.31" height="7.2"/><rect id="Rectangle_294-2" data-name="Rectangle 294-2" class="cls-3" x="427.74" y="472.52" width="36.54" height="106.28"/><rect id="Rectangle_337-2" data-name="Rectangle 337-2" class="cls-3" x="301.23" y="822.33" width="115.31" height="7.2"/></g></g><g id="Tussenwoning-3" class="cls-6"><g id="Group_317-3" data-name="Group 317-3"><path id="Path_1498-3" data-name="Path 1498-3" class="cls-1" d="M1510,520V734.72H1005.72V518.39l434.58,1.34Z"/><path id="Path_1730-3" data-name="Path 1730-3" class="cls-2" d="M1510,736.05v476.17H1005.72V732.6l434.58,3Z"/><rect id="Rectangle_296-3" data-name="Rectangle 296-3" class="cls-3" x="1005.72" y="1201.05" width="503.8" height="43.95"/><rect id="Rectangle_428-3" data-name="Rectangle 428-3" class="cls-1" x="1010.45" y="1197.41" width="499.08" height="3.93"/><rect id="Rectangle_297-3" data-name="Rectangle 297-3" class="cls-4" x="1241.92" y="1001.19" width="213.72" height="146.2"/><rect id="Rectangle_298-3" data-name="Rectangle 298-3" class="cls-5" x="1241.92" y="1001.19" width="213.72" height="146.2"/><rect id="Rectangle_328-3" data-name="Rectangle 328-3" class="cls-5" x="1090.72" y="766.78" width="114.49" height="130.17"/><rect id="Rectangle_364-3" data-name="Rectangle 364-3" class="cls-5" x="1202.55" y="568.33" width="114.49" height="130.17"/><rect id="Rectangle_339-3" data-name="Rectangle 339-3" class="cls-5" x="1306.5" y="766.78" width="114.49" height="130.17"/><rect id="Rectangle_299-3" data-name="Rectangle 299-3" class="cls-3" x="1051.87" y="1017.16" width="119.71" height="184.97"/><rect id="Rectangle_301-3" data-name="Rectangle 301-3" class="cls-5" x="1063.26" y="1035.35" width="96.9" height="151.97"/><path id="Path_1501-3" data-name="Path 1501-3" class="cls-1" d="M1510,500.31v33.92H1004.9V500.31"/><rect id="Rectangle_303-3" data-name="Rectangle 303-3" class="cls-3" x="1235.78" y="993.23" width="226.01" height="7.97"/><rect id="Rectangle_326-3" data-name="Rectangle 326-3" class="cls-3" x="1084.57" y="757.24" width="129.93" height="9.54"/><rect id="Rectangle_365-3" data-name="Rectangle 365-3" class="cls-1" x="1196.4" y="558.78" width="129.93" height="9.54"/><rect id="Rectangle_338-3" data-name="Rectangle 338-3" class="cls-3" x="1300.35" y="757.24" width="129.93" height="9.54"/><rect id="Rectangle_304-3" data-name="Rectangle 304-3" class="cls-3" x="1396.33" y="1001.19" width="7.2" height="141.89"/><rect id="Rectangle_305-3" data-name="Rectangle 305-3" class="cls-3" x="1345.18" y="1001.19" width="7.2" height="141.89"/><rect id="Rectangle_306-3" data-name="Rectangle 306-3" class="cls-3" x="1294.02" y="1001.19" width="7.2" height="141.89"/><rect id="Rectangle_332-3" data-name="Rectangle 332-3" class="cls-3" x="1142.82" y="766.78" width="7.2" height="115.4"/><rect id="Rectangle_367-3" data-name="Rectangle 367-3" class="cls-3" x="1254.65" y="568.33" width="7.2" height="115.4"/><rect id="Rectangle_336-3" data-name="Rectangle 336-3" class="cls-3" x="1358.6" y="766.78" width="7.2" height="115.4"/><rect id="Rectangle_307-3" data-name="Rectangle 307-3" class="cls-3" x="1241.92" y="1072.98" width="213.72" height="6.08"/><rect id="Rectangle_308-3" data-name="Rectangle 308-3" class="cls-3" x="1229.12" y="1132.62" width="239.29" height="20.92" rx="5.83"/><rect id="Rectangle_333-3" data-name="Rectangle 333-3" class="cls-3" x="1077.91" y="882.19" width="136.91" height="20.92" rx="5.83"/><rect id="Rectangle_368-3" data-name="Rectangle 368-3" class="cls-1" x="1189.74" y="683.73" width="136.91" height="20.92" rx="5.83"/><rect id="Rectangle_335-3" data-name="Rectangle 335-3" class="cls-3" x="1293.7" y="882.19" width="136.91" height="20.92" rx="5.83"/><rect id="Rectangle_334-3" data-name="Rectangle 334-3" class="cls-3" x="1090.34" y="822.33" width="115.31" height="7.2"/><rect id="Rectangle_366-3" data-name="Rectangle 366-3" class="cls-3" x="1202.17" y="623.87" width="115.31" height="7.2"/><rect id="Rectangle_294-3" data-name="Rectangle 294-3" class="cls-3" x="1432.63" y="472.52" width="36.54" height="106.28"/><rect id="Rectangle_337-3" data-name="Rectangle 337-3" class="cls-3" x="1306.13" y="822.33" width="115.31" height="7.2"/></g></g></svg>