<svg id="Laag_1" data-name="Laag 1" xmlns="http://www.w3.org/2000/svg" viewBox="0 0 1510 1245"><defs><style>.cls-1{fill:#5c40d3;}.cls-2{fill:#f2eafa;}.cls-3{fill:#2f2e41;}.cls-4{fill:#9d68fd;}.cls-5{fill:#fff;}.cls-6{opacity:0.5;}</style></defs><title>illustrations-scaled</title><g id="Tussenwoning"><g id="Group_317" data-name="Group 317"><path id="Path_1498" data-name="Path 1498" class="cls-1" d="M1066.59,349.08V614.39H443.64V347.15l536.85,1.66Z"/><path id="Path_1730" data-name="Path 1730" class="cls-2" d="M1066.59,616v588.24H443.64V611.78l536.85,3.67Z"/><rect id="Rectangle_296" data-name="Rectangle 296" class="cls-3" x="443.64" y="1190.47" width="622.37" height="54.29"/><rect id="Rectangle_428" data-name="Rectangle 428" class="cls-1" x="449.47" y="1185.98" width="616.53" height="4.85"/><rect id="Rectangle_297" data-name="Rectangle 297" class="cls-4" x="735.43" y="943.58" width="264.01" height="180.61"/><rect id="Rectangle_298" data-name="Rectangle 298" class="cls-5" x="735.43" y="943.58" width="264.01" height="180.61"/><rect id="Rectangle_328" data-name="Rectangle 328" class="cls-5" x="548.64" y="654.01" width="141.43" height="160.81"/><rect id="Rectangle_364" data-name="Rectangle 364" class="cls-5" x="686.78" y="408.84" width="141.43" height="160.81"/><rect id="Rectangle_339" data-name="Rectangle 339" class="cls-5" x="815.2" y="654.01" width="141.43" height="160.81"/><rect id="Rectangle_299" data-name="Rectangle 299" class="cls-3" x="500.65" y="963.31" width="147.89" height="228.51"/><rect id="Rectangle_301" data-name="Rectangle 301" class="cls-5" x="514.72" y="985.78" width="119.71" height="187.74"/><path id="Path_1501" data-name="Path 1501" class="cls-1" d="M1066.59,324.82v41.9h-624v-41.9"/><rect id="Rectangle_303" data-name="Rectangle 303" class="cls-3" x="727.83" y="933.74" width="279.2" height="9.84"/><rect id="Rectangle_326" data-name="Rectangle 326" class="cls-3" x="541.04" y="642.22" width="160.51" height="11.79"/><rect id="Rectangle_365" data-name="Rectangle 365" class="cls-1" x="679.19" y="397.05" width="160.51" height="11.79"/><rect id="Rectangle_338" data-name="Rectangle 338" class="cls-3" x="807.61" y="642.22" width="160.51" height="11.79"/><rect id="Rectangle_304" data-name="Rectangle 304" class="cls-3" x="926.18" y="943.58" width="8.9" height="175.28"/><rect id="Rectangle_305" data-name="Rectangle 305" class="cls-3" x="862.98" y="943.58" width="8.9" height="175.28"/><rect id="Rectangle_306" data-name="Rectangle 306" class="cls-3" x="799.79" y="943.58" width="8.9" height="175.28"/><rect id="Rectangle_332" data-name="Rectangle 332" class="cls-3" x="613" y="654.01" width="8.9" height="142.56"/><rect id="Rectangle_367" data-name="Rectangle 367" class="cls-3" x="751.15" y="408.84" width="8.9" height="142.56"/><rect id="Rectangle_336" data-name="Rectangle 336" class="cls-3" x="879.57" y="654.01" width="8.9" height="142.56"/><rect id="Rectangle_307" data-name="Rectangle 307" class="cls-3" x="735.43" y="1032.27" width="264.01" height="7.51"/><rect id="Rectangle_308" data-name="Rectangle 308" class="cls-3" x="719.61" y="1105.94" width="295.61" height="25.84" rx="7.2"/><rect id="Rectangle_333" data-name="Rectangle 333" class="cls-3" x="532.81" y="796.57" width="169.14" height="25.84" rx="7.2"/><rect id="Rectangle_368" data-name="Rectangle 368" class="cls-1" x="670.96" y="551.4" width="169.14" height="25.84" rx="7.2"/><rect id="Rectangle_335" data-name="Rectangle 335" class="cls-3" x="799.38" y="796.57" width="169.14" height="25.84" rx="7.2"/><rect id="Rectangle_334" data-name="Rectangle 334" class="cls-3" x="548.17" y="722.62" width="142.45" height="8.9"/><rect id="Rectangle_366" data-name="Rectangle 366" class="cls-3" x="686.32" y="477.46" width="142.45" height="8.9"/><rect id="Rectangle_294" data-name="Rectangle 294" class="cls-3" x="971.02" y="290.48" width="45.14" height="131.29"/><rect id="Rectangle_337" data-name="Rectangle 337" class="cls-3" x="814.74" y="722.62" width="142.45" height="8.9"/></g></g><g id="Tussenwoning-2" class="cls-6"><g id="Group_317-2" data-name="Group 317-2"><path id="Path_1498-2" data-name="Path 1498-2" class="cls-1" d="M445.9,349.08V614.39H.73V347.15l383.64,1.66Z"/><path id="Path_1730-2" data-name="Path 1730-2" class="cls-2" d="M445.9,616v588.24H.73V611.78l383.64,3.67Z"/><rect id="Rectangle_296-2" data-name="Rectangle 296-2" class="cls-3" x="0.73" y="1190.47" width="444.75" height="54.29"/><rect id="Rectangle_428-2" data-name="Rectangle 428-2" class="cls-1" x="4.9" y="1185.98" width="440.57" height="4.85"/><rect id="Rectangle_297-2" data-name="Rectangle 297-2" class="cls-4" x="209.24" y="943.58" width="188.66" height="180.61"/><rect id="Rectangle_298-2" data-name="Rectangle 298-2" class="cls-5" x="209.24" y="943.58" width="188.66" height="180.61"/><rect id="Rectangle_328-2" data-name="Rectangle 328-2" class="cls-5" x="75.76" y="654.01" width="101.07" height="160.81"/><rect id="Rectangle_364-2" data-name="Rectangle 364-2" class="cls-5" x="174.48" y="408.84" width="101.07" height="160.81"/><rect id="Rectangle_339-2" data-name="Rectangle 339-2" class="cls-5" x="266.25" y="654.01" width="101.07" height="160.81"/><rect id="Rectangle_299-2" data-name="Rectangle 299-2" class="cls-3" x="41.47" y="963.31" width="105.68" height="228.51"/><rect id="Rectangle_301-2" data-name="Rectangle 301-2" class="cls-5" x="51.52" y="985.78" width="85.54" height="187.74"/><path id="Path_1501-2" data-name="Path 1501-2" class="cls-1" d="M445.9,324.82v41.9H0v-41.9"/><rect id="Rectangle_303-2" data-name="Rectangle 303-2" class="cls-3" x="203.82" y="933.74" width="199.52" height="9.84"/><rect id="Rectangle_326-2" data-name="Rectangle 326-2" class="cls-3" x="70.33" y="642.22" width="114.7" height="11.79"/><rect id="Rectangle_365-2" data-name="Rectangle 365-2" class="cls-1" x="169.06" y="397.05" width="114.7" height="11.79"/><rect id="Rectangle_338-2" data-name="Rectangle 338-2" class="cls-3" x="260.82" y="642.22" width="114.7" height="11.79"/><rect id="Rectangle_304-2" data-name="Rectangle 304-2" class="cls-3" x="345.55" y="943.58" width="6.36" height="175.28"/><rect id="Rectangle_305-2" data-name="Rectangle 305-2" class="cls-3" x="300.4" y="943.58" width="6.36" height="175.28"/><rect id="Rectangle_306-2" data-name="Rectangle 306-2" class="cls-3" x="255.24" y="943.58" width="6.36" height="175.28"/><rect id="Rectangle_332-2" data-name="Rectangle 332-2" class="cls-3" x="121.76" y="654.01" width="6.36" height="142.56"/><rect id="Rectangle_367-2" data-name="Rectangle 367-2" class="cls-3" x="220.48" y="408.84" width="6.36" height="142.56"/><rect id="Rectangle_336-2" data-name="Rectangle 336-2" class="cls-3" x="312.25" y="654.01" width="6.36" height="142.56"/><rect id="Rectangle_307-2" data-name="Rectangle 307-2" class="cls-3" x="209.24" y="1032.27" width="188.66" height="7.51"/><path id="Rectangle_308-2" data-name="Rectangle 308-2" class="cls-3" d="M203.08,1105.94H404c2.84,0,5.14,3.23,5.14,7.2v11.45c0,4-2.3,7.2-5.14,7.2h-201c-2.84,0-5.14-3.23-5.14-7.2v-11.45C197.94,1109.17,200.24,1105.94,203.08,1105.94Z"/><path id="Rectangle_333-2" data-name="Rectangle 333-2" class="cls-3" d="M69.6,796.57H180.18c2.84,0,5.14,3.22,5.14,7.2v11.44c0,4-2.3,7.2-5.14,7.2H69.6c-2.84,0-5.14-3.22-5.14-7.2V803.77C64.46,799.79,66.76,796.57,69.6,796.57Z"/><path id="Rectangle_368-2" data-name="Rectangle 368-2" class="cls-1" d="M168.32,551.4H278.9c2.84,0,5.14,3.23,5.14,7.2v11.45c0,4-2.3,7.2-5.14,7.2H168.32c-2.84,0-5.14-3.23-5.14-7.2V558.6C163.18,554.63,165.48,551.4,168.32,551.4Z"/><path id="Rectangle_335-2" data-name="Rectangle 335-2" class="cls-3" d="M260.09,796.57H370.67c2.84,0,5.14,3.22,5.14,7.2v11.44c0,4-2.3,7.2-5.14,7.2H260.09c-2.84,0-5.14-3.22-5.14-7.2V803.77C255,799.79,257.25,796.57,260.09,796.57Z"/><rect id="Rectangle_334-2" data-name="Rectangle 334-2" class="cls-3" x="75.43" y="722.62" width="101.79" height="8.9"/><rect id="Rectangle_366-2" data-name="Rectangle 366-2" class="cls-3" x="174.15" y="477.46" width="101.79" height="8.9"/><rect id="Rectangle_294-2" data-name="Rectangle 294-2" class="cls-3" x="377.6" y="290.48" width="32.26" height="131.29"/><rect id="Rectangle_337-2" data-name="Rectangle 337-2" class="cls-3" x="265.92" y="722.62" width="101.79" height="8.9"/></g></g><g id="Tussenwoning-2-2" data-name="Tussenwoning-2" class="cls-6"><g id="Group_317-2-2" data-name="Group 317-2"><path id="Path_1498-2-2" data-name="Path 1498-2" class="cls-1" d="M1510,349.31V614.62H1064.83V347.38L1448.47,349Z"/><path id="Path_1730-2-2" data-name="Path 1730-2" class="cls-2" d="M1510,616.27v588.24H1064.83V612l383.64,3.68Z"/><rect id="Rectangle_296-2-2" data-name="Rectangle 296-2" class="cls-3" x="1064.83" y="1190.71" width="444.75" height="54.29"/><rect id="Rectangle_428-2-2" data-name="Rectangle 428-2" class="cls-1" x="1069.01" y="1186.21" width="440.57" height="4.85"/><rect id="Rectangle_297-2-2" data-name="Rectangle 297-2" class="cls-4" x="1273.35" y="943.82" width="188.66" height="180.61"/><rect id="Rectangle_298-2-2" data-name="Rectangle 298-2" class="cls-5" x="1273.35" y="943.82" width="188.66" height="180.61"/><rect id="Rectangle_328-2-2" data-name="Rectangle 328-2" class="cls-5" x="1139.87" y="654.24" width="101.07" height="160.81"/><rect id="Rectangle_364-2-2" data-name="Rectangle 364-2" class="cls-5" x="1238.59" y="409.07" width="101.07" height="160.81"/><rect id="Rectangle_339-2-2" data-name="Rectangle 339-2" class="cls-5" x="1330.36" y="654.24" width="101.07" height="160.81"/><rect id="Rectangle_299-2-2" data-name="Rectangle 299-2" class="cls-3" x="1105.57" y="963.54" width="105.68" height="228.51"/><rect id="Rectangle_301-2-2" data-name="Rectangle 301-2" class="cls-5" x="1115.63" y="986.02" width="85.54" height="187.74"/><path id="Path_1501-2-2" data-name="Path 1501-2" class="cls-1" d="M1510,325.05V367H1064.1v-41.9"/><rect id="Rectangle_303-2-2" data-name="Rectangle 303-2" class="cls-3" x="1267.92" y="933.97" width="199.52" height="9.84"/><rect id="Rectangle_326-2-2" data-name="Rectangle 326-2" class="cls-3" x="1134.44" y="642.45" width="114.7" height="11.79"/><rect id="Rectangle_365-2-2" data-name="Rectangle 365-2" class="cls-1" x="1233.16" y="397.29" width="114.7" height="11.79"/><rect id="Rectangle_338-2-2" data-name="Rectangle 338-2" class="cls-3" x="1324.93" y="642.45" width="114.7" height="11.79"/><rect id="Rectangle_304-2-2" data-name="Rectangle 304-2" class="cls-3" x="1409.66" y="943.82" width="6.36" height="175.28"/><rect id="Rectangle_305-2-2" data-name="Rectangle 305-2" class="cls-3" x="1364.5" y="943.82" width="6.36" height="175.28"/><rect id="Rectangle_306-2-2" data-name="Rectangle 306-2" class="cls-3" x="1319.34" y="943.82" width="6.36" height="175.28"/><rect id="Rectangle_332-2-2" data-name="Rectangle 332-2" class="cls-3" x="1185.86" y="654.24" width="6.36" height="142.56"/><rect id="Rectangle_367-2-2" data-name="Rectangle 367-2" class="cls-3" x="1284.58" y="409.07" width="6.36" height="142.56"/><rect id="Rectangle_336-2-2" data-name="Rectangle 336-2" class="cls-3" x="1376.35" y="654.24" width="6.36" height="142.56"/><rect id="Rectangle_307-2-2" data-name="Rectangle 307-2" class="cls-3" x="1273.35" y="1032.5" width="188.66" height="7.51"/><path id="Rectangle_308-2-2" data-name="Rectangle 308-2" class="cls-3" d="M1267.19,1106.18h201c2.84,0,5.15,3.22,5.15,7.2v11.44c0,4-2.31,7.2-5.15,7.2h-201c-2.84,0-5.15-3.22-5.15-7.2v-11.44C1262,1109.4,1264.35,1106.18,1267.19,1106.18Z"/><path id="Rectangle_333-2-2" data-name="Rectangle 333-2" class="cls-3" d="M1133.71,796.8h110.57c2.84,0,5.15,3.22,5.15,7.2v11.44c0,4-2.31,7.2-5.15,7.2H1133.71c-2.85,0-5.15-3.22-5.15-7.2V804C1128.56,800,1130.86,796.8,1133.71,796.8Z"/><path id="Rectangle_368-2-2" data-name="Rectangle 368-2" class="cls-1" d="M1232.43,551.63H1343c2.84,0,5.15,3.23,5.15,7.2v11.45c0,4-2.31,7.2-5.15,7.2H1232.43c-2.84,0-5.15-3.23-5.15-7.2V558.83C1227.28,554.86,1229.59,551.63,1232.43,551.63Z"/><path id="Rectangle_335-2-2" data-name="Rectangle 335-2" class="cls-3" d="M1324.2,796.8h110.57c2.84,0,5.15,3.22,5.15,7.2v11.44c0,4-2.31,7.2-5.15,7.2H1324.2c-2.84,0-5.15-3.22-5.15-7.2V804C1319.05,800,1321.36,796.8,1324.2,796.8Z"/><rect id="Rectangle_334-2-2" data-name="Rectangle 334-2" class="cls-3" x="1139.53" y="722.85" width="101.79" height="8.9"/><rect id="Rectangle_366-2-2" data-name="Rectangle 366-2" class="cls-3" x="1238.25" y="477.69" width="101.79" height="8.9"/><rect id="Rectangle_294-2-2" data-name="Rectangle 294-2" class="cls-3" x="1441.7" y="290.71" width="32.26" height="131.29"/><rect id="Rectangle_337-2-2" data-name="Rectangle 337-2" class="cls-3" x="1330.02" y="722.85" width="101.79" height="8.9"/></g></g></svg>