<svg id="Laag_1" data-name="Laag 1" xmlns="http://www.w3.org/2000/svg" viewBox="0 0 1510 1245"><defs><style>.cls-1{fill:#9972be;}.cls-2{fill:#d2bce6;}.cls-3{fill:#ecdafd;}.cls-4{fill:#c8b3dc;}.cls-5{fill:#d2bbe6;}.cls-6{fill:#b38ed8;}.cls-7{fill:#541295;}.cls-8{fill:#9d68fd;}.cls-9{fill:#dfc1fd;}.cls-10{fill:#a27fc5;}</style></defs><title>illustrations-scaled</title><path id="Path_1736-2" data-name="Path 1736-2" class="cls-1" d="M440.3,345.75V612.12H.72V343.82l378.83,1.66Z"/><path id="Path_1737-2" data-name="Path 1737-2" class="cls-2" d="M443.05,613.77v590.58H3.47V609.49l378.82,3.69Z"/><path id="Path_1742-2" data-name="Path 1742-2" class="cls-1" d="M2.09,1190.49H460.48V1245H2.09Z"/><rect id="Rectangle_422-2" data-name="Rectangle 422-2" class="cls-3" x="74.81" y="651.89" width="99.8" height="161.45"/><rect id="Rectangle_410-2" data-name="Rectangle 410-2" class="cls-3" x="163.73" y="405.75" width="99.8" height="161.45"/><rect id="Rectangle_402-2" data-name="Rectangle 402-2" class="cls-3" x="241.98" y="651.89" width="99.8" height="161.45"/><rect id="Rectangle_424-2" data-name="Rectangle 424-2" class="cls-4" x="40.95" y="962.42" width="104.36" height="229.41"/><rect id="Rectangle_425-2" data-name="Rectangle 425-2" class="cls-3" x="50.88" y="984.99" width="84.47" height="188.48"/><path id="Path_1738-2" data-name="Path 1738-2" class="cls-5" d="M440.3,321.39v42.07H0V321.39"/><path id="Path_1739-2" data-name="Path 1739-2" class="cls-1" d="M440.3,604.87v14.5H0v-14.5"/><rect id="Rectangle_420-2" data-name="Rectangle 420-2" class="cls-4" x="69.45" y="640.06" width="113.26" height="11.84"/><rect id="Rectangle_411-2" data-name="Rectangle 411-2" class="cls-6" x="158.37" y="393.92" width="113.26" height="11.84"/><rect id="Rectangle_404-2" data-name="Rectangle 404-2" class="cls-4" x="236.62" y="640.06" width="113.26" height="11.84"/><rect id="Rectangle_426-2" data-name="Rectangle 426-2" class="cls-4" x="120.23" y="651.89" width="6.28" height="143.13"/><rect id="Rectangle_419-2" data-name="Rectangle 419-2" class="cls-6" x="209.15" y="405.75" width="6.28" height="143.13"/><rect id="Rectangle_407-2" data-name="Rectangle 407-2" class="cls-4" x="287.4" y="651.89" width="6.28" height="143.13"/><path id="Rectangle_421-2" data-name="Rectangle 421-2" class="cls-4" d="M68.73,795H177.92c2.8,0,5.08,3.24,5.08,7.23v11.49c0,4-2.28,7.23-5.08,7.23H68.73c-2.81,0-5.08-3.24-5.08-7.23V802.25C63.65,798.26,65.92,795,68.73,795Z"/><path id="Rectangle_413-2" data-name="Rectangle 413-2" class="cls-6" d="M157.65,548.88H266.84c2.8,0,5.08,3.24,5.08,7.23V567.6c0,4-2.28,7.23-5.08,7.23H157.65c-2.81,0-5.08-3.24-5.08-7.23V556.11C152.57,552.12,154.84,548.88,157.65,548.88Z"/><path id="Rectangle_408-2" data-name="Rectangle 408-2" class="cls-4" d="M235.9,795H345.09c2.8,0,5.08,3.24,5.08,7.23v11.49c0,4-2.28,7.23-5.08,7.23H235.9c-2.81,0-5.08-3.24-5.08-7.23V802.25C230.82,798.26,233.09,795,235.9,795Z"/><rect id="Rectangle_423-2" data-name="Rectangle 423-2" class="cls-4" x="74.48" y="720.78" width="100.52" height="8.94"/><rect id="Rectangle_414-2" data-name="Rectangle 414-2" class="cls-6" x="163.4" y="474.64" width="100.52" height="8.94"/><rect id="Rectangle_398-2" data-name="Rectangle 398-2" class="cls-4" x="372.86" y="286.92" width="31.85" height="131.81"/><rect id="Rectangle_409-2" data-name="Rectangle 409-2" class="cls-4" x="241.65" y="720.78" width="100.52" height="8.94"/><rect id="Rectangle_402-2-2" data-name="Rectangle 402-2" class="cls-3" x="241.98" y="993.41" width="99.8" height="161.45"/><rect id="Rectangle_404-2-2" data-name="Rectangle 404-2" class="cls-4" x="236.62" y="981.57" width="113.26" height="11.84"/><rect id="Rectangle_407-2-2" data-name="Rectangle 407-2" class="cls-4" x="287.4" y="993.41" width="6.28" height="143.13"/><path id="Rectangle_408-2-2" data-name="Rectangle 408-2" class="cls-4" d="M235.9,1136.54H345.09c2.8,0,5.08,3.23,5.08,7.23v11.49c0,4-2.28,7.22-5.08,7.22H235.9c-2.81,0-5.08-3.23-5.08-7.22v-11.49C230.82,1139.77,233.09,1136.54,235.9,1136.54Z"/><rect id="Rectangle_409-2-2" data-name="Rectangle 409-2" class="cls-4" x="241.65" y="1062.3" width="100.52" height="8.94"/><path id="Rectangle_399-2" data-name="Rectangle 399-2" class="cls-2" d="M364.48,264.7h48.65c1.76,0,3.18,2,3.18,4.53v34.16c0,2.51-1.42,4.53-3.18,4.53H364.48c-1.76,0-3.19-2-3.19-4.53V269.23C361.29,266.72,362.72,264.7,364.48,264.7Z"/><path id="Path_1736-2-2" data-name="Path 1736-2" class="cls-1" d="M1489.82,345.75V612.12H1050.24V343.82l378.82,1.66Z"/><path id="Path_1737-2-2" data-name="Path 1737-2" class="cls-2" d="M1492.57,613.77v590.58H1053V609.49l378.83,3.69Z"/><path id="Path_1742-2-2" data-name="Path 1742-2" class="cls-1" d="M1051.61,1190.49H1510V1245H1051.61Z"/><rect id="Rectangle_422-2-2" data-name="Rectangle 422-2" class="cls-3" x="1124.33" y="651.89" width="99.8" height="161.45"/><rect id="Rectangle_410-2-2" data-name="Rectangle 410-2" class="cls-3" x="1213.25" y="405.75" width="99.8" height="161.45"/><rect id="Rectangle_402-2-3" data-name="Rectangle 402-2" class="cls-3" x="1291.5" y="651.89" width="99.8" height="161.45"/><rect id="Rectangle_424-2-2" data-name="Rectangle 424-2" class="cls-4" x="1090.47" y="962.42" width="104.36" height="229.41"/><rect id="Rectangle_425-2-2" data-name="Rectangle 425-2" class="cls-3" x="1100.39" y="984.99" width="84.47" height="188.48"/><path id="Path_1738-2-2" data-name="Path 1738-2" class="cls-5" d="M1489.82,321.39v42.07h-440.3V321.39"/><path id="Path_1739-2-2" data-name="Path 1739-2" class="cls-1" d="M1489.82,604.87v14.5h-440.3v-14.5"/><rect id="Rectangle_420-2-2" data-name="Rectangle 420-2" class="cls-4" x="1118.97" y="640.06" width="113.26" height="11.84"/><rect id="Rectangle_411-2-2" data-name="Rectangle 411-2" class="cls-6" x="1207.89" y="393.92" width="113.26" height="11.84"/><rect id="Rectangle_404-2-3" data-name="Rectangle 404-2" class="cls-4" x="1286.14" y="640.06" width="113.26" height="11.84"/><rect id="Rectangle_426-2-2" data-name="Rectangle 426-2" class="cls-4" x="1169.74" y="651.89" width="6.28" height="143.13"/><rect id="Rectangle_419-2-2" data-name="Rectangle 419-2" class="cls-6" x="1258.67" y="405.75" width="6.28" height="143.13"/><rect id="Rectangle_407-2-3" data-name="Rectangle 407-2" class="cls-4" x="1336.92" y="651.89" width="6.28" height="143.13"/><path id="Rectangle_421-2-2" data-name="Rectangle 421-2" class="cls-4" d="M1118.24,795h109.19c2.81,0,5.08,3.24,5.08,7.23v11.49c0,4-2.27,7.23-5.08,7.23H1118.24c-2.8,0-5.08-3.24-5.08-7.23V802.25C1113.16,798.26,1115.44,795,1118.24,795Z"/><path id="Rectangle_413-2-2" data-name="Rectangle 413-2" class="cls-6" d="M1207.16,548.88h109.19c2.81,0,5.08,3.24,5.08,7.23V567.6c0,4-2.27,7.23-5.08,7.23H1207.16c-2.8,0-5.08-3.24-5.08-7.23V556.11C1202.08,552.12,1204.36,548.88,1207.16,548.88Z"/><path id="Rectangle_408-2-3" data-name="Rectangle 408-2" class="cls-4" d="M1285.41,795H1394.6c2.81,0,5.08,3.24,5.08,7.23v11.49c0,4-2.27,7.23-5.08,7.23H1285.41c-2.8,0-5.08-3.24-5.08-7.23V802.25C1280.33,798.26,1282.61,795,1285.41,795Z"/><rect id="Rectangle_423-2-2" data-name="Rectangle 423-2" class="cls-4" x="1124" y="720.78" width="100.52" height="8.94"/><rect id="Rectangle_414-2-2" data-name="Rectangle 414-2" class="cls-6" x="1212.92" y="474.64" width="100.52" height="8.94"/><rect id="Rectangle_398-2-2" data-name="Rectangle 398-2" class="cls-4" x="1422.38" y="286.92" width="31.85" height="131.81"/><rect id="Rectangle_409-2-3" data-name="Rectangle 409-2" class="cls-4" x="1291.17" y="720.78" width="100.52" height="8.94"/><rect id="Rectangle_402-2-4" data-name="Rectangle 402-2" class="cls-3" x="1291.5" y="993.41" width="99.8" height="161.45"/><rect id="Rectangle_404-2-4" data-name="Rectangle 404-2" class="cls-4" x="1286.14" y="981.57" width="113.26" height="11.84"/><rect id="Rectangle_407-2-4" data-name="Rectangle 407-2" class="cls-4" x="1336.92" y="993.41" width="6.28" height="143.13"/><path id="Rectangle_408-2-4" data-name="Rectangle 408-2" class="cls-4" d="M1285.41,1136.54H1394.6c2.81,0,5.08,3.23,5.08,7.23v11.49c0,4-2.27,7.22-5.08,7.22H1285.41c-2.8,0-5.08-3.23-5.08-7.22v-11.49C1280.33,1139.77,1282.61,1136.54,1285.41,1136.54Z"/><rect id="Rectangle_409-2-4" data-name="Rectangle 409-2" class="cls-4" x="1291.17" y="1062.3" width="100.52" height="8.94"/><path id="Rectangle_399-2-2" data-name="Rectangle 399-2" class="cls-2" d="M1414,264.7h48.64c1.76,0,3.19,2,3.19,4.53v34.16c0,2.51-1.43,4.53-3.19,4.53H1414c-1.76,0-3.19-2-3.19-4.53V269.23C1410.81,266.72,1412.24,264.7,1414,264.7Z"/><g id="Group_317" data-name="Group 317"><path id="Path_1498" data-name="Path 1498" class="cls-7" d="M1053,345.75V612.12H427.55V343.82l539,1.66Z"/><path id="Path_1730" data-name="Path 1730" class="cls-6" d="M1053,613.77v590.58H427.55V609.49l539,3.69Z"/><rect id="Rectangle_296" data-name="Rectangle 296" class="cls-7" x="427.55" y="1190.49" width="624.84" height="54.51"/><rect id="Rectangle_428" data-name="Rectangle 428" class="cls-6" x="433.41" y="1185.98" width="618.98" height="4.87"/><rect id="Rectangle_297" data-name="Rectangle 297" class="cls-8" x="720.5" y="942.62" width="265.06" height="181.33"/><rect id="Rectangle_298" data-name="Rectangle 298" class="cls-9" x="720.5" y="942.62" width="265.06" height="181.33"/><rect id="Rectangle_328" data-name="Rectangle 328" class="cls-9" x="532.97" y="651.89" width="141.99" height="161.45"/><rect id="Rectangle_364" data-name="Rectangle 364" class="cls-9" x="671.66" y="405.75" width="141.99" height="161.45"/><rect id="Rectangle_339" data-name="Rectangle 339" class="cls-9" x="800.59" y="651.89" width="141.99" height="161.45"/><rect id="Rectangle_299" data-name="Rectangle 299" class="cls-10" x="484.79" y="962.42" width="148.48" height="229.41"/><rect id="Rectangle_301" data-name="Rectangle 301" class="cls-9" x="498.91" y="984.99" width="120.18" height="188.48"/><path id="Path_1501" data-name="Path 1501" class="cls-6" d="M1053,321.39v42.07H426.52V321.39"/><path id="Path_1729" data-name="Path 1729" class="cls-7" d="M1053,604.87v14.5H426.52v-14.5"/><rect id="Rectangle_303" data-name="Rectangle 303" class="cls-10" x="712.87" y="932.74" width="280.31" height="9.88"/><rect id="Rectangle_326" data-name="Rectangle 326" class="cls-10" x="525.34" y="640.06" width="161.15" height="11.84"/><rect id="Rectangle_365" data-name="Rectangle 365" class="cls-6" x="664.04" y="393.92" width="161.15" height="11.84"/><rect id="Rectangle_338" data-name="Rectangle 338" class="cls-10" x="792.97" y="640.06" width="161.15" height="11.84"/><rect id="Rectangle_304" data-name="Rectangle 304" class="cls-6" x="912.01" y="942.62" width="8.94" height="175.98"/><rect id="Rectangle_305" data-name="Rectangle 305" class="cls-6" x="848.56" y="942.62" width="8.94" height="175.98"/><rect id="Rectangle_306" data-name="Rectangle 306" class="cls-6" x="785.12" y="942.62" width="8.94" height="175.98"/><rect id="Rectangle_332" data-name="Rectangle 332" class="cls-6" x="597.58" y="651.89" width="8.94" height="143.13"/><rect id="Rectangle_367" data-name="Rectangle 367" class="cls-6" x="736.28" y="405.75" width="8.94" height="143.13"/><rect id="Rectangle_336" data-name="Rectangle 336" class="cls-6" x="865.21" y="651.89" width="8.94" height="143.13"/><rect id="Rectangle_307" data-name="Rectangle 307" class="cls-6" x="720.5" y="1031.66" width="265.06" height="7.54"/><rect id="Rectangle_308" data-name="Rectangle 308" class="cls-10" x="704.62" y="1105.62" width="296.78" height="25.95" rx="7.23"/><rect id="Rectangle_333" data-name="Rectangle 333" class="cls-10" x="517.08" y="795.02" width="169.81" height="25.95" rx="7.23"/><rect id="Rectangle_368" data-name="Rectangle 368" class="cls-6" x="655.78" y="548.88" width="169.81" height="25.95" rx="7.23"/><rect id="Rectangle_335" data-name="Rectangle 335" class="cls-10" x="784.71" y="795.02" width="169.81" height="25.95" rx="7.23"/><rect id="Rectangle_334" data-name="Rectangle 334" class="cls-6" x="532.5" y="720.78" width="143.01" height="8.94"/><rect id="Rectangle_366" data-name="Rectangle 366" class="cls-6" x="671.2" y="474.64" width="143.01" height="8.94"/><rect id="Rectangle_294" data-name="Rectangle 294" class="cls-10" x="957.03" y="286.92" width="45.32" height="131.81"/><rect id="Rectangle_337" data-name="Rectangle 337" class="cls-6" x="800.13" y="720.78" width="143.01" height="8.94"/><rect id="Rectangle_295" data-name="Rectangle 295" class="cls-6" x="940.57" y="264.7" width="78.28" height="43.23" rx="4.53"/></g></svg>