<svg id="Laag_1" data-name="Laag 1" xmlns="http://www.w3.org/2000/svg" viewBox="0 0 85 85"><defs><style>.cls-1,.cls-2,.cls-3{fill:#5c40d3;}.cls-2,.cls-3,.cls-5{stroke:#5c40d3;}.cls-3{stroke-width:6px;}.cls-4,.cls-5{fill:none;}</style></defs><title>illustrations-scaled</title><g id="Group_362" data-name="Group 362"><path id="Path_2379" data-name="Path 2379" class="cls-1" d="M73.68,25.79c6.73-1.28,9.47-.4,10.85,3.38s-.21,6.65-4.65,9a52.88,52.88,0,0,1,1.64,6.16,39,39,0,0,1,.12,5.92c0,3.67-.09,7.33-.15,11,0,2.69-.08,5.39-.17,8.09-.11,3.53-2,5.31-5.47,5.31-2.49,0-5,0-7.48,0q-5.36,0-5.62-5.38c0-.7,0-1.4,0-2.44a188.23,188.23,0,0,1-41.64,0c-.13,1.29-.23,2.34-.35,3.38a4.7,4.7,0,0,1-4.9,4.45c-2.54,0-5.1-.11-7.64,0-4.15.23-5.93-2.21-6-6,0-2.9,0-5.81,0-8.71,0-3.82,0-7.64-.08-11.46a21.67,21.67,0,0,1,2-9.58c-4-3.7-4.89-6.1-3.38-9.3s3.75-4,9.68-3.25c1.45-3.35,3-6.73,4.37-10.15A3.8,3.8,0,0,1,17,14a51.63,51.63,0,0,1,14.82-3.36,93.57,93.57,0,0,1,30.62,2.05c5.63,1.37,5.63,1.4,8.09,6.54C71.61,21.44,72.65,23.63,73.68,25.79ZM38.37,66.29a187.68,187.68,0,0,0,40-3.76c1.11-.22,1.48-.72,1.46-1.85a87.82,87.82,0,0,1,.12-9.46c.41-4.48,0-8.73-2.13-12.73a1.16,1.16,0,0,1,.79-1.88c.39-.12.79-.22,1.17-.36a5,5,0,0,0-2.83-9.51l-.17.05a19.84,19.84,0,0,0-2.61.84c-1,.41-1.51.11-1.93-.8-.91-2-1.85-3.95-2.79-5.93-2.6-5.47-2.61-5.45-8.54-6.78a92.12,92.12,0,0,0-28.82-1.74A45.71,45.71,0,0,0,18,15.59a3.54,3.54,0,0,0-1.64,1.58C15,20,13.8,22.94,12.55,25.83s-1.24,2.85-4.23,2a4.94,4.94,0,0,0-6.21,3,4.85,4.85,0,0,0,2.77,6.26h0c1.4.56,1.29,1.21.89,2.45a32.06,32.06,0,0,0-1.88,7.62c-.29,4.56,0,9.16,0,13.74,0,1.07.35,1.46,1.42,1.69a177.28,177.28,0,0,0,33,3.69Zm26,.45a33.2,33.2,0,0,0,.45,4A2.77,2.77,0,0,0,67.69,73c3,0,5.9,0,8.85,0a2.52,2.52,0,0,0,2.71-2c.35-2.22.41-4.48.6-6.89ZM3.83,64.12c.14,2.29.14,4.37.42,6.41a2.71,2.71,0,0,0,2.9,2.41q4.42.06,8.85,0A2.92,2.92,0,0,0,19,70.54c.18-.84.19-1.71.3-2.57s-.29-1.28-1.15-1.4c-2.21-.33-4.41-.71-6.62-1.09-2.44-.42-4.87-.86-7.65-1.36Z"/><path id="Path_2380" data-name="Path 2380" class="cls-2" d="M38.36,66.29a177.48,177.48,0,0,1-33-3.69c-1.06-.23-1.42-.62-1.42-1.69,0-4.58-.24-9.18,0-13.74a31.61,31.61,0,0,1,1.89-7.62c.4-1.24.51-1.89-.9-2.45a4.83,4.83,0,0,1-2.83-6.22l0-.05a4.94,4.94,0,0,1,6.21-3c3,.84,3,.84,4.22-2S15,20,16.35,17.17A3.49,3.49,0,0,1,18,15.59a45.36,45.36,0,0,1,14.06-3.21,92.18,92.18,0,0,1,28.83,1.74c5.93,1.33,5.93,1.31,8.54,6.78.94,2,1.88,3.94,2.79,5.93a1.28,1.28,0,0,0,1.93.8,19.84,19.84,0,0,1,2.61-.84A4.94,4.94,0,0,1,83,30l.06.17a5,5,0,0,1-3.27,6.07c-.38.14-.78.24-1.16.36a1.17,1.17,0,0,0-.8,1.88c2.18,4,2.54,8.25,2.13,12.73a90.48,90.48,0,0,0-.11,9.46c0,1.13-.36,1.63-1.46,1.85A187.78,187.78,0,0,1,38.36,66.29Zm3.36-34.76,0-.59c4.83,0,9.67.21,14.48-.07a100.79,100.79,0,0,0,11.3-1.62c1.89-.32,2-.79,1.18-2.45a51.06,51.06,0,0,1-2.64-5.15c-.94-2.48-2.71-3.49-5.16-4.08a80.56,80.56,0,0,0-27.84-2c-4.16.44-8.23,1.69-12.32,2.65a2.52,2.52,0,0,0-1.53,1.12c-1.45,2.85-2.8,5.75-4.15,8.65-.47,1,0,1.54,1,1.71,1.3.2,2.6.52,3.91.6,7.25.44,14.51.81,21.76,1.2ZM67.48,56.31a7.22,7.22,0,0,0,7.27-7.2V49a7.23,7.23,0,0,0-14.45.08h0a7.21,7.21,0,0,0,7.18,7.2Zm-44-7.26a7.25,7.25,0,0,0-7.22-7.18A7.34,7.34,0,0,0,9,49.09a7.22,7.22,0,0,0,14.44,0ZM42,51.53c-4.43,0-8.86,0-13.28,0-.5,0-1,.54-1.47.84.5.28,1,.8,1.52.81q13.27.08,26.56,0c.48,0,1-.56,1.45-.86-.5-.27-1-.78-1.5-.79-4.43-.07-8.85,0-13.28,0Zm0-2.32H54.71a3,3,0,0,0,1.2-.06c.36-.15.61-.54.91-.82a6.28,6.28,0,0,0-.91-.8c-.19-.11-.5,0-.75,0H29a1.89,1.89,0,0,0-.75,0,7,7,0,0,0-1,.73,5.41,5.41,0,0,0,1,.91,2.65,2.65,0,0,0,1.05,0Z"/><path id="Path_2381" data-name="Path 2381" class="cls-3" d="M64.34,68.56l15.51-2.72c-.19,2.41-.25,4.68-.6,6.89a2.5,2.5,0,0,1-2.71,2c-3,0-5.9,0-8.85,0a2.76,2.76,0,0,1-2.9-2.22A33.43,33.43,0,0,1,64.34,68.56Z"/><path id="Path_2382" data-name="Path 2382" class="cls-3" d="M3.83,65.94c2.78.49,5.21.94,7.65,1.36,2.21.38,4.41.75,6.62,1.08.86.13,1.26.52,1.15,1.41s-.12,1.73-.3,2.57A2.94,2.94,0,0,1,16,74.76q-4.42.06-8.85,0a2.72,2.72,0,0,1-2.9-2.42C4,70.31,4,68.23,3.83,65.94Z"/><path id="Path_2383" data-name="Path 2383" class="cls-1" d="M41.72,31.53c-7.25-.39-14.51-.76-21.76-1.2-1.31-.08-2.6-.4-3.91-.6-1-.17-1.46-.72-1-1.71,1.35-2.9,2.7-5.8,4.15-8.65a2.52,2.52,0,0,1,1.53-1.12c4.09-1,8.16-2.21,12.32-2.65a80.55,80.55,0,0,1,27.84,2c2.45.6,4.22,1.6,5.16,4.08A53.22,53.22,0,0,0,68.7,26.8c.86,1.66.72,2.13-1.18,2.45a98.53,98.53,0,0,1-11.3,1.62c-4.81.28-9.65.07-14.48.07Zm25.51-3.74C66,25.42,64.91,23.47,64,21.46a3.16,3.16,0,0,0-2.23-1.83A77.57,77.57,0,0,0,38.19,17,51.14,51.14,0,0,0,22,19.62c-.47.16-1.1.34-1.29.71-1.29,2.51-2.48,5.06-3.91,8.05,17,1.43,33.56,2.06,50.42-.59Z"/><path id="Path_2384" data-name="Path 2384" class="cls-1" d="M67.48,56.31a7.22,7.22,0,0,1,0-14.43A7.31,7.31,0,0,1,74.75,49a7.22,7.22,0,0,1-7.19,7.28Zm.08-1.72A5.62,5.62,0,0,0,73,49.15a5.51,5.51,0,1,0-11-.07,5.58,5.58,0,0,0,5.54,5.51Z"/><path id="Path_2385" data-name="Path 2385" class="cls-1" d="M23.48,49.05A7.22,7.22,0,0,1,9,49.09a7.34,7.34,0,0,1,7.22-7.22A7.25,7.25,0,0,1,23.48,49.05Zm-1.73,0a5.5,5.5,0,1,0-5.46,5.57A5.49,5.49,0,0,0,21.75,49Z"/><path id="Path_2386" data-name="Path 2386" class="cls-1" d="M42,51.53c4.43,0,8.85,0,13.28,0,.5,0,1,.51,1.5.79-.49.3-1,.85-1.45.86q-13.29.08-26.56,0c-.51,0-1-.53-1.52-.81.49-.3,1-.83,1.47-.84C33.18,51.5,37.61,51.53,42,51.53Z"/><path id="Path_2387" data-name="Path 2387" class="cls-1" d="M42,49.21H29.34a2.48,2.48,0,0,1-1.05,0,5.08,5.08,0,0,1-1-.91,7.89,7.89,0,0,1,1-.73,1.89,1.89,0,0,1,.75,0H55.16c.25,0,.56-.07.75,0a6.21,6.21,0,0,1,.91.79c-.3.29-.55.68-.91.83a3.23,3.23,0,0,1-1.2.05Z"/><path id="Path_2388" data-name="Path 2388" class="cls-4" d="M67.22,27.79c-16.85,2.65-33.42,2-50.42.59,1.44-3,2.63-5.54,3.92-8.06.18-.36.82-.54,1.28-.7A51.53,51.53,0,0,1,38.18,17a78,78,0,0,1,23.55,2.68A3.2,3.2,0,0,1,64,21.46C64.91,23.47,66,25.42,67.22,27.79Z"/><path id="Path_2389" data-name="Path 2389" class="cls-5" d="M67.56,54.59A5.58,5.58,0,0,1,62,49.08a5.51,5.51,0,1,1,5.54,5.51Z"/><path id="Path_2390" data-name="Path 2390" class="cls-5" d="M21.75,49a5.54,5.54,0,0,1-5.46,5.57,5.62,5.62,0,0,1-5.53-5.39,5.5,5.5,0,1,1,11-.18Z"/></g></svg>