<svg id="Laag_1" data-name="Laag 1" xmlns="http://www.w3.org/2000/svg" viewBox="0 0 85 85"><defs><style>.cls-1{fill:#fff;}.cls-2,.cls-3{fill:#5c40d3;}.cls-3{stroke:#5c40d3;}</style></defs><title>illustrations-scaled</title><rect id="Rectangle_764" data-name="Rectangle 764" class="cls-1" x="3.58" y="37.8" width="12.49" height="8.74" rx="1.25"/><g id="Group_357" data-name="Group 357"><g id="Group_356" data-name="Group 356"><path id="Path_2348" data-name="Path 2348" class="cls-2" d="M43.47,7.09c3,.47,6,.68,8.75,1.4C69,12.87,78.92,23.93,82.84,40.54c.84,3.57.79,7.35,1,11,0,.54-.6,1.13-.92,1.7-.33-.5-.85-1-1-1.5A6.12,6.12,0,0,0,78.49,47,10.82,10.82,0,0,0,70,46.6a6.27,6.27,0,0,0-4.54,5.47c0,.43-.57.81-.88,1.21-.35-.31-.92-.57-1-1C61.79,45.55,51.09,44.06,46,48.56a6.9,6.9,0,0,0-2.53,5.54c.07,8.46,0,16.91,0,25.36a3.05,3.05,0,0,0,2,3.25,3.83,3.83,0,0,0,4.18-.58c.56-.54.7-1.49,1.13-2.2a4.65,4.65,0,0,1,1-.93c.28.36.85.75.81,1.08a6.68,6.68,0,0,1-.75,2.58c-1.14,2-4,2.79-6.57,2.1a4.89,4.89,0,0,1-3.71-4.94q0-12.25,0-24.5c0-5.14-2.13-7.87-7.22-9a12.41,12.41,0,0,0-7.88.7,8.63,8.63,0,0,0-4.93,5.16c-.16.45-.7.75-1.07,1.12-.3-.4-.81-.78-.87-1.22-.44-3.2-2.42-4.93-5.38-5.7a10.92,10.92,0,0,0-6.89.33A6.21,6.21,0,0,0,3,52c-.06.47-.62.87-.95,1.31-.32-.45-.89-.9-.91-1.36C.27,30.26,14.71,10.84,36.34,7.79c.68-.1,1.35-.23,2-.28,3.17-.2,3.17-.19,3.17-3.45a18.85,18.85,0,0,1,.05-2.91c.07-.42.62-.77.95-1.15.31.4.86.79.88,1.2C43.52,3.18,43.47,5.17,43.47,7.09Zm-.9,42.36a12.61,12.61,0,0,1,10.68-5.37,13.23,13.23,0,0,1,11,4.89,9.8,9.8,0,0,1,8.2-4.85,12.37,12.37,0,0,1,9.19,2.6C81.1,29.77,67,9,42,9.29,17.36,9.59,3.82,30.38,3.4,46.75a12.21,12.21,0,0,1,9.2-2.64,10,10,0,0,1,8.18,4.8c5.17-6.59,16.86-6.47,21.79.54Z"/><path id="Path_2349" data-name="Path 2349" class="cls-3" d="M42.57,49.45c-4.93-7-16.62-7.13-21.79-.54a10,10,0,0,0-8.17-4.79A12.22,12.22,0,0,0,3.4,46.75C3.82,30.39,17.36,9.59,42,9.29,67,9,81.1,29.77,81.65,46.72a12.37,12.37,0,0,0-9.19-2.6A9.79,9.79,0,0,0,64.27,49a13.24,13.24,0,0,0-11-4.9A12.64,12.64,0,0,0,42.57,49.45Z"/></g></g><path id="Path_2410" data-name="Path 2410" class="cls-3" d="M42.5,7.26V53.78h.82a9.18,9.18,0,0,1,9.62-8.06c8.82,0,10.94,6.92,10.94,6.92l.71.55.89-1,.39-1.77s.76-4.52,8.12-4.67,8.35,6.08,8.35,6.08L83,53.19l.82-1.63S84.52,38.45,78,28,63.88,13.45,63.88,13.45A48.66,48.66,0,0,0,42.5,7.26Z"/></svg>
