<svg id="Laag_1" data-name="Laag 1" xmlns="http://www.w3.org/2000/svg" viewBox="0 0 1510 1245"><defs><style>.cls-1{fill:#9d68fd;}.cls-2{fill:#541295;}.cls-3{fill:#b38ed8;}.cls-4{fill:#dfc1fd;}.cls-5{fill:#a27fc5;}</style></defs><title>illustrations-scaled</title><rect id="Rectangle_293" data-name="Rectangle 293" class="cls-1" x="793.37" y="125.35" width="119.6" height="298.94"/><rect id="Rectangle_294" data-name="Rectangle 294" class="cls-2" x="793.37" y="125.35" width="119.6" height="298.94"/><rect id="Rectangle_295" data-name="Rectangle 295" class="cls-3" x="768.91" y="82.96" width="168.46" height="57.29" rx="6.01"/><path id="Path_1498" data-name="Path 1498" class="cls-3" d="M491.92,50.61l-431,429v687H972.71V520.15Z"/><rect id="Rectangle_296" data-name="Rectangle 296" class="cls-2" x="25.48" y="1172.63" width="982.75" height="72.24"/><rect id="Rectangle_319" data-name="Rectangle 319" class="cls-3" x="25.48" y="1166.65" width="982.75" height="6.46"/><rect id="Rectangle_297" data-name="Rectangle 297" class="cls-1" x="176.17" y="710.14" width="351.26" height="291.46"/><rect id="Rectangle_298" data-name="Rectangle 298" class="cls-4" x="176.17" y="710.14" width="351.26" height="291.46"/><rect id="Rectangle_299" data-name="Rectangle 299" class="cls-5" x="646.98" y="702.22" width="231.66" height="469.61"/><rect id="Rectangle_300" data-name="Rectangle 300" class="cls-1" x="665.75" y="726.94" width="194.17" height="415.37"/><rect id="Rectangle_301" data-name="Rectangle 301" class="cls-4" x="665.75" y="732.12" width="194.17" height="415.37"/><path id="Path_1501" data-name="Path 1501" class="cls-2" d="M483.8,20.89,8.56,483.08a29.9,29.9,0,0,0,20.63,50.83h0a29.54,29.54,0,0,0,20.45-8.2L484,112.38c5.36-5.11,20.38-20.9,20.38-20.9s14.35,15.12,20.41,20.9L959.19,525.71a29.47,29.47,0,0,0,20.39,8.2h0a29.9,29.9,0,0,0,20.63-50.83L525.05,20.89C519.66,15.64,504.4,0,504.4,0S489.88,14.94,483.8,20.89Z"/><rect id="Rectangle_303" data-name="Rectangle 303" class="cls-5" x="166.07" y="697.04" width="371.48" height="13.1"/><rect id="Rectangle_304" data-name="Rectangle 304" class="cls-5" x="261.81" y="710.14" width="11.84" height="267.18"/><rect id="Rectangle_305" data-name="Rectangle 305" class="cls-5" x="345.89" y="710.14" width="11.84" height="267.18"/><rect id="Rectangle_306" data-name="Rectangle 306" class="cls-5" x="429.96" y="710.14" width="11.84" height="267.18"/><rect id="Rectangle_307" data-name="Rectangle 307" class="cls-5" x="176.17" y="850.9" width="351.26" height="9.99"/><path id="Path_1709" data-name="Path 1709" class="cls-3" d="M1268,814.29l-248.81,82.42v348.15h491V896.71Z"/><rect id="Rectangle_320" data-name="Rectangle 320" class="cls-4" x="1066.71" y="929.42" width="393.51" height="314.41"/><rect id="Rectangle_321" data-name="Rectangle 321" class="cls-3" x="1066.41" y="949.83" width="392.68" height="7.4"/><rect id="Rectangle_322" data-name="Rectangle 322" class="cls-3" x="1066.41" y="975.72" width="392.68" height="7.4"/><rect id="Rectangle_323" data-name="Rectangle 323" class="cls-3" x="1066.41" y="1001.61" width="392.68" height="7.4"/><rect id="Rectangle_324" data-name="Rectangle 324" class="cls-3" x="1066.41" y="1027.5" width="392.68" height="7.4"/><rect id="Rectangle_325" data-name="Rectangle 325" class="cls-3" x="1066.41" y="1053.38" width="392.68" height="7.4"/><rect id="Rectangle_325-2" data-name="Rectangle 325-2" class="cls-3" x="1066.41" y="1079.27" width="392.68" height="7.4"/><rect id="Rectangle_325-3" data-name="Rectangle 325-3" class="cls-3" x="1066.41" y="1105.16" width="392.68" height="7.4"/><rect id="Rectangle_325-4" data-name="Rectangle 325-4" class="cls-3" x="1066.41" y="1131.05" width="392.68" height="7.4"/><rect id="Rectangle_325-5" data-name="Rectangle 325-5" class="cls-3" x="1066.41" y="1156.94" width="392.68" height="7.4"/><rect id="Rectangle_325-6" data-name="Rectangle 325-6" class="cls-3" x="1066.41" y="1182.82" width="392.68" height="7.4"/><rect id="Rectangle_325-7" data-name="Rectangle 325-7" class="cls-3" x="1066.41" y="1208.71" width="392.68" height="7.4"/><rect id="Rectangle_308" data-name="Rectangle 308" class="cls-5" x="155.18" y="977.32" width="393.3" height="34.38" rx="9.58"/></svg>