<svg id="Laag_1" data-name="Laag 1" xmlns="http://www.w3.org/2000/svg" viewBox="0 0 1510 1245"><defs><style>.cls-1{fill:#9d68fd;}.cls-2{fill:#2f2e41;}.cls-3{fill:#f2eafa;}.cls-4{fill:#5c40d3;}.cls-5{fill:#f7f7f7;}</style></defs><title>illustrations-scaled</title><rect id="Rectangle_293" data-name="Rectangle 293" class="cls-1" x="786.45" y="125.37" width="119.88" height="298.97"/><rect id="Rectangle_294" data-name="Rectangle 294" class="cls-2" x="786.45" y="125.37" width="119.88" height="298.97"/><path id="Path_1498" data-name="Path 1498" class="cls-3" d="M484.3,50.61l-432,429.05v687.11h913.9V520.21Z"/><path id="Path_1709" data-name="Path 1709" class="cls-4" d="M1267.23,814.38l-249.38,82.43V1245H1510V896.81Z"/><rect id="Rectangle_296" data-name="Rectangle 296" class="cls-2" x="16.78" y="1172.75" width="985.03" height="72.25"/><rect id="Rectangle_319" data-name="Rectangle 319" class="cls-4" x="16.78" y="1166.77" width="985.03" height="6.46"/><rect id="Rectangle_297" data-name="Rectangle 297" class="cls-1" x="167.83" y="710.21" width="352.08" height="291.5"/><rect id="Rectangle_298" data-name="Rectangle 298" class="cls-5" x="167.69" y="710.21" width="352.08" height="291.5"/><rect id="Rectangle_299" data-name="Rectangle 299" class="cls-2" x="639.72" y="702.29" width="232.2" height="469.66"/><rect id="Rectangle_301" data-name="Rectangle 301" class="cls-5" x="658.54" y="724.43" width="194.62" height="423.18"/><rect id="Rectangle_320" data-name="Rectangle 320" class="cls-3" x="1065.5" y="929.52" width="394.42" height="314.44"/><path id="Path_1501" data-name="Path 1501" class="cls-4" d="M476.16,20.89-.18,483.13C12.53,497,32.39,518.14,41,525.77L476.39,112.39c5.37-5.11,20.42-20.9,20.42-20.9s14.39,15.12,20.46,20.9l458,433.41c6.49-8,32.82-31.73,41.12-42.64L517.51,20.89C512.11,15.64,496.81,0,496.81,0S482.26,14.94,476.16,20.89Z"/><rect id="Rectangle_303" data-name="Rectangle 303" class="cls-2" x="157.7" y="697.12" width="372.34" height="13.1"/><rect id="Rectangle_304" data-name="Rectangle 304" class="cls-2" x="338.95" y="710.21" width="11.87" height="267.21"/><rect id="Rectangle_307" data-name="Rectangle 307" class="cls-2" x="167.83" y="850.99" width="352.08" height="9.99"/><rect id="Rectangle_321" data-name="Rectangle 321" class="cls-2" x="1065.2" y="949.93" width="393.6" height="7.4"/><rect id="Rectangle_322" data-name="Rectangle 322" class="cls-2" x="1065.2" y="975.82" width="393.6" height="7.4"/><rect id="Rectangle_323" data-name="Rectangle 323" class="cls-2" x="1065.2" y="1001.72" width="393.6" height="7.4"/><rect id="Rectangle_324" data-name="Rectangle 324" class="cls-2" x="1065.2" y="1027.61" width="393.6" height="7.4"/><rect id="Rectangle_325" data-name="Rectangle 325" class="cls-2" x="1065.2" y="1053.5" width="393.6" height="7.4"/><rect id="Rectangle_325-2" data-name="Rectangle 325-2" class="cls-2" x="1065.2" y="1079.39" width="393.6" height="7.4"/><rect id="Rectangle_325-3" data-name="Rectangle 325-3" class="cls-2" x="1065.2" y="1105.28" width="393.6" height="7.4"/><rect id="Rectangle_325-4" data-name="Rectangle 325-4" class="cls-2" x="1065.2" y="1131.17" width="393.6" height="7.4"/><rect id="Rectangle_325-5" data-name="Rectangle 325-5" class="cls-2" x="1065.2" y="1157.06" width="393.6" height="7.4"/><rect id="Rectangle_325-6" data-name="Rectangle 325-6" class="cls-2" x="1065.2" y="1182.95" width="393.6" height="7.4"/><rect id="Rectangle_325-7" data-name="Rectangle 325-7" class="cls-2" x="1065.2" y="1208.84" width="393.6" height="7.4"/><path id="Rectangle_308" data-name="Rectangle 308" class="cls-2" d="M156.39,977.43h375A9.59,9.59,0,0,1,541,987v15.23a9.59,9.59,0,0,1-9.6,9.58h-375a9.59,9.59,0,0,1-9.6-9.58V987A9.59,9.59,0,0,1,156.39,977.43Z"/></svg>