<svg id="Laag_1" data-name="Laag 1" xmlns="http://www.w3.org/2000/svg" viewBox="0 0 1510 1245"><defs><style>.cls-1{fill:#9d68fd;}.cls-2{fill:#2f2e41;}.cls-3{fill:#f2eafa;}.cls-4{fill:#5c40d3;}.cls-5{fill:#f7f7f7;}</style></defs><title>illustrations-scaled</title><rect id="Rectangle_293" data-name="Rectangle 293" class="cls-1" x="787.17" y="126.46" width="119.5" height="298.68"/><rect id="Rectangle_294" data-name="Rectangle 294" class="cls-2" x="787.17" y="126.46" width="119.5" height="298.68"/><path id="Path_1498" data-name="Path 1498" class="cls-3" d="M486,51.78,55.38,480.41v686.44h911V520.92Z"/><path id="Path_1709" data-name="Path 1709" class="cls-4" d="M1265,814.8l-248.59,82.35V1245H1507V897.15Z"/><rect id="Rectangle_296" data-name="Rectangle 296" class="cls-2" x="19.95" y="1172.83" width="981.89" height="72.17"/><rect id="Rectangle_319" data-name="Rectangle 319" class="cls-4" x="19.95" y="1166.85" width="981.89" height="6.45"/><rect id="Rectangle_297" data-name="Rectangle 297" class="cls-1" x="170.51" y="710.74" width="350.96" height="291.21"/><rect id="Rectangle_298" data-name="Rectangle 298" class="cls-5" x="170.38" y="710.74" width="350.96" height="291.21"/><rect id="Rectangle_299" data-name="Rectangle 299" class="cls-2" x="640.91" y="702.83" width="231.46" height="469.2"/><rect id="Rectangle_301" data-name="Rectangle 301" class="cls-5" x="659.67" y="724.94" width="194" height="422.77"/><rect id="Rectangle_320" data-name="Rectangle 320" class="cls-3" x="1063.88" y="929.83" width="393.16" height="314.13"/><path id="Path_1501" data-name="Path 1501" class="cls-4" d="M477.87,22.09,3,483.87c12.67,13.9,32.47,35,41.05,42.61l434-413c5.35-5.1,20.36-20.88,20.36-20.88s14.34,15.1,20.39,20.88l456.55,433c6.47-8,32.72-31.71,41-42.6L519.08,22.09c-5.38-5.25-20.63-20.87-20.63-20.87S483.94,16.15,477.87,22.09Z"/><rect id="Rectangle_303" data-name="Rectangle 303" class="cls-2" x="160.42" y="697.65" width="371.15" height="13.09"/><rect id="Rectangle_304" data-name="Rectangle 304" class="cls-2" x="341.09" y="710.74" width="11.83" height="266.95"/><rect id="Rectangle_307" data-name="Rectangle 307" class="cls-2" x="170.51" y="851.38" width="350.96" height="9.98"/><rect id="Rectangle_321" data-name="Rectangle 321" class="cls-2" x="1063.58" y="950.22" width="392.34" height="7.39"/><rect id="Rectangle_322" data-name="Rectangle 322" class="cls-2" x="1063.58" y="976.09" width="392.34" height="7.39"/><rect id="Rectangle_323" data-name="Rectangle 323" class="cls-2" x="1063.58" y="1001.95" width="392.34" height="7.39"/><rect id="Rectangle_324" data-name="Rectangle 324" class="cls-2" x="1063.58" y="1027.82" width="392.34" height="7.39"/><rect id="Rectangle_325" data-name="Rectangle 325" class="cls-2" x="1063.58" y="1053.68" width="392.34" height="7.39"/><rect id="Rectangle_325-2" data-name="Rectangle 325-2" class="cls-2" x="1063.58" y="1079.55" width="392.34" height="7.39"/><rect id="Rectangle_325-3" data-name="Rectangle 325-3" class="cls-2" x="1063.58" y="1105.41" width="392.34" height="7.39"/><rect id="Rectangle_325-4" data-name="Rectangle 325-4" class="cls-2" x="1063.58" y="1131.28" width="392.34" height="7.39"/><rect id="Rectangle_325-5" data-name="Rectangle 325-5" class="cls-2" x="1063.58" y="1157.15" width="392.34" height="7.39"/><rect id="Rectangle_325-6" data-name="Rectangle 325-6" class="cls-2" x="1063.58" y="1183.01" width="392.34" height="7.39"/><rect id="Rectangle_325-7" data-name="Rectangle 325-7" class="cls-2" x="1063.58" y="1208.88" width="392.34" height="7.39"/><rect id="Rectangle_308" data-name="Rectangle 308" class="cls-2" x="149.54" y="977.69" width="392.96" height="34.35" rx="9.57"/></svg>