<svg xmlns="http://www.w3.org/2000/svg" xmlns:xlink="http://www.w3.org/1999/xlink" width="612" height="638" viewBox="0 0 612 638">
  <defs>
    <clipPath id="clip-Vrouw">
      <rect width="612" height="638"/>
    </clipPath>
  </defs>
  <g id="Vrouw" clip-path="url(#clip-Vrouw)">
    <rect width="612" height="638" fill="#fff"/>
    <g id="Vrouw-2" data-name="Vrouw" transform="translate(206.516 58.14)">
      <path id="Path_1543" data-name="Path 1543" d="M253.42,291.339l.964,133.622-14.09,1.331s-13.421-71.654-11.241-80.419-11.706-42.486-11.247-50.655a27.537,27.537,0,0,1,5.484-14.227Z" transform="translate(-140.498 68.348)" fill="#f3bd8f"/>
      <path id="Path_1544" data-name="Path 1544" d="M243.487,286.95s2.18,58.1,0,63.194,0,66.468,0,66.468h-15.74s-14.342-64.213-8.037-80.665c-6.684-10.8-6.559-51.566-6.559-51.566Z" transform="translate(-189.287 72.737)" fill="#f3bd8f"/>
      <path id="Path_1545" data-name="Path 1545" d="M202.276,166.96c-.551-6.2,4.979-20.689,6.2-27.252,2.065-11.221,27.168-9.57,37.93-5.761,7.209,2.252,30.112,15.369,31.777,36.641-2.414,22.136-4.347,4.011,5.268,33.623,17.574,23.476,2.253,40.7-9.3,62.545-9.315-3.213-33.246-10.485-43.021-18.448-6.54-5.324-11.474-14.434-17.968-19-29.364-22.487-10.3-54.133-10.808-61.315Z" transform="translate(-169.073 -131.082)" fill="#2f2e41"/>
      <path id="Path_1551" data-name="Path 1551" d="M263.914,244.527a22.009,22.009,0,0,0,2.524,5.416,21.41,21.41,0,0,0,8.078,5.966c12.3,6.333,31.139,13.126,41.511,22.259a11.474,11.474,0,0,1,3.1,3.694c1.492,3.236,0,6.884-1.377,10.258a11.039,11.039,0,0,1-3.19,4.773c-2.662,1.928-6.356,1.1-9.5.161a353.4,353.4,0,0,1-35.821-12.759,156.051,156.051,0,0,1-19-9.179,14.319,14.319,0,0,1-8.514-11.772,289.311,289.311,0,0,1-4.452-35.614l-2.295-28.11c-.436-5.416-16.889-24.3-11.932-28.042,9.684-7.274,23.819,12.529,26.045,16.591C255.309,199.6,261.481,237.6,263.914,244.527Z" transform="translate(-134.906 -75.371)" fill="#9d68fd"/>
      <path id="Path_1552" data-name="Path 1552" d="M263.914,244.527a22.009,22.009,0,0,0,2.524,5.416,21.41,21.41,0,0,0,8.078,5.966c12.3,6.333,31.139,13.126,41.511,22.259a11.474,11.474,0,0,1,3.1,3.694c1.492,3.236,0,6.884-1.377,10.258a11.039,11.039,0,0,1-3.19,4.773c-2.662,1.928-6.356,1.1-9.5.161a353.4,353.4,0,0,1-35.821-12.759,156.051,156.051,0,0,1-19-9.179,14.319,14.319,0,0,1-8.514-11.772,289.311,289.311,0,0,1-4.452-35.614l-2.295-28.11c-.436-5.416-16.889-24.3-11.932-28.042,9.684-7.274,23.819,12.529,26.045,16.591C255.309,199.6,261.481,237.6,263.914,244.527Z" transform="translate(-134.906 -75.371)" fill="#b29dbe"/>
      <path id="Path_1553" data-name="Path 1553" d="M300.742,328.246a10.442,10.442,0,0,1-1.606,6.471,9.753,9.753,0,0,1-4.773,2.662c-9.179,2.891-87.2,5.829-101.771,3.121-5.668-20.928-5.874-43.049-3.029-64.551,1.124-8.376,2.777-16.912,7.205-24.095a14.227,14.227,0,0,1,4.589-4.888,17.669,17.669,0,0,1,9.018-1.675c22.488-.229,45.367-.757,67.717,2.432,6.884.987,10.625,3.167,13.057,9.982a173.3,173.3,0,0,1,7.3,33.044A237.12,237.12,0,0,1,300.742,328.246Z" transform="translate(-179.376 21.895)" fill="#2f2e41"/>
      <path id="Path_1703" data-name="Path 1703" d="M409.342,317.7s2.76,18.927-5.32,34.81,33.067,3.338,33.067,3.338-13.687-15.791-14.165-30.713S409.342,317.7,409.342,317.7Z" transform="translate(-355.2 -253.428)" fill="#f3bd8f"/>
      <path id="Path_1744" data-name="Path 1744" d="M57.135,62.773l-.684,6.1s3.405,10.014,13.194,9.2,10.409-9.995,10.409-9.995Z" transform="translate(-1.574 -0.778)" fill="#ba916d"/>
      <path id="Path_1554" data-name="Path 1554" d="M192.627,339.673l3.488.6a28.089,28.089,0,0,0,2.432-1.423,13.08,13.08,0,0,0,4.7-4.452,13.767,13.767,0,0,0,1.193-6.035c.643-17.325-2.662-34.926.872-51.907,1.262-6.1,3.786-11.611,5.576-17.486,1.652-5.37-2.019-8.582-6.356-11.726a14.7,14.7,0,0,0-2.432-1.491l-.78.39a13.769,13.769,0,0,0-4.589,4.888c-4.452,7.182-6.1,15.719-7.228,24.095C186.752,296.6,186.936,318.745,192.627,339.673Z" transform="translate(-179.365 22.721)" fill="#2f2e41"/>
      <path id="Path_1556" data-name="Path 1556" d="M247.372,171.312a28.685,28.685,0,0,1-.8,9.592c-2.295,7.435-10.166,12.231-17.945,12.552a14.388,14.388,0,0,1-7.412-1.4,19.137,19.137,0,0,1-3.626-2.754c-5.438-4.98-10.441-10.923-12.093-18.105a34.67,34.67,0,0,1-.711-8.307,32.724,32.724,0,0,1,2.065-12,21.433,21.433,0,0,1,16.82-12.8c7.55-.964,14.594,2.845,20.1,7.573,2.754,2.295,2.295,7.045,2.685,10.579C246.867,161.262,247.212,166.287,247.372,171.312Z" transform="translate(-157.374 -116.87)" fill="#f3bd8f"/>
      <path id="Path_1557" data-name="Path 1557" d="M197.239,354.8a28.156,28.156,0,0,0,11.657,4.59,155.444,155.444,0,0,0,67.763-.115c4.589-1.079,9.844-2.777,11.864-7.137a16.544,16.544,0,0,0,1.01-7.5q-.78-36-1.606-72.054c-.6-27.307-1.193-54.706-5.209-81.715a45.9,45.9,0,0,0-6.517-15.65c-2.616-3.557-14.411-1.652-24.255-8.032-2.708-1.744,3.167,7.3-5.668,11.038s-19.367-14.342-24.967-7.045c-3.144,4.085-13.08,1.056-16.224,5.117-2.524,3.259-4.085,10.166-5.071,18.473-2.111,17.669-1.583,41.649-2.042,50.369-1.652,30.52.918,69.461-9.179,94.68C186.637,345.278,192.673,351.2,197.239,354.8Z" transform="translate(-178.63 -79.285)" fill="#b29dbe"/>
      <path id="Path_1564" data-name="Path 1564" d="M201.431,337.626c-25.9-8.937-18.294-66.957-17.17-73.344a356.923,356.923,0,0,1,4.36-56.817c1.629-10.28,3.947-21,10.831-28.822,10.234-11.611,28.982-11.978,30.589,5.094.842,8.4-24.292,68.475-24.292,68.475S218.612,342.7,201.431,337.626Z" transform="translate(-182.361 -76.01)" fill="#b29dbe"/>
      <path id="Path_1566" data-name="Path 1566" d="M284.771,226.7a17.923,17.923,0,0,1,3.671,7.848,7.939,7.939,0,0,1-.138,4.085,7.045,7.045,0,0,1-6.678,4.222,16.522,16.522,0,0,1-7.94-2.455A105.749,105.749,0,0,1,261,231.75a10.988,10.988,0,0,1-2.295-2.042,6.288,6.288,0,0,1,1.01-7.779C266.368,215.274,279.838,220.575,284.771,226.7Z" transform="translate(-88.711 -12.111)" fill="#f3bd8f"/>
      <path id="Path_1573" data-name="Path 1573" d="M222.706,150.775c6.15,3.672,13.768,2.914,20.974,2.019A18.794,18.794,0,0,0,237.6,141.78a25.469,25.469,0,0,0-7.894-5.186c-4.016-1.629-14.686-3.717-17.325,1.308C210.223,142.009,219.608,148.939,222.706,150.775Z" transform="translate(-147.922 -121.001)" fill="#2f2e40"/>
      <path id="Path_1681" data-name="Path 1681" d="M0,3.063,15.756,0s9.061,13.671,12.98,22.521,5.384,8.018-6.59,10.357S2.027,19.526,2.027,19.526Z" transform="translate(39.183 485.079) rotate(11)" fill="#541295"/>
      <path id="Path_1682" data-name="Path 1682" d="M0,2.459,12.648,0S42.8,3.48,48.99,12.33s-3.324,10.178-3.324,10.178L3.2,18.922Z" transform="translate(98.577 490.164) rotate(11)" fill="#541295"/>
      <path id="Path_1706" data-name="Path 1706" d="M30.02,21.934a12.561,12.561,0,0,1-8.627,3.658c-5.176-.1-9.68-1.933-17.254-2.467s-2.5-7.54-2.157-12.32S2.917,1.87,4.539.49,31.573.763,34.385,4.006C35.645,5.507,34.765,19.225,30.02,21.934Z" transform="matrix(-0.545, -0.839, 0.839, -0.545, 25.739, 283.45)" fill="#f3bd8f"/>
    </g>
  </g>
</svg>
