<svg id="Laag_1" data-name="Laag 1" xmlns="http://www.w3.org/2000/svg" viewBox="0 0 153 522"><defs><style>.cls-1{fill:#f3bd8f;}.cls-2{fill:#b29dbe;}.cls-3{fill:#2f2e41;}.cls-4{fill:#2e2d40;}.cls-5{fill:#2f2e40;}.cls-6{fill:#541295;}.cls-7{fill:#fff;}</style></defs><title>illustrations-scaled</title><g id="Vrouw"><path id="Path_1706" data-name="Path 1706" class="cls-1" d="M25.8,246.45a12.55,12.55,0,0,1,7.39,5.77c2.42,4.58,3,9.41,6.21,16.29s-5.39,5.85-9.74,7.87-8.27,3.51-10.26,2.76S6.53,255.35,8,251.32C8.7,249.49,21.13,243.61,25.8,246.45Z"/><path id="Path_1564" data-name="Path 1564" class="cls-2" d="M16.05,261.3c-25.22-10.73-13.57-68.1-12-74.4a357.88,357.88,0,0,1,8.32-56.4c2.35-10.14,5.41-20.68,12.83-28,11-10.87,29.76-9.93,30.17,7.22.26,8.44-20.15,66.95-20.15,66.95S32.84,267.57,16.05,261.3Z"/><path id="Path_1543" data-name="Path 1543" class="cls-1" d="M121,359.69l1,133.62-14.09,1.33S94.41,423,96.59,414.22s-11.71-42.49-11.25-50.66a27.5,27.5,0,0,1,5.48-14.22Z"/><path id="Path_1544" data-name="Path 1544" class="cls-1" d="M62.23,359.69s2.18,58.1,0,63.19,0,66.47,0,66.47H46.49s-14.34-64.22-8-80.67c-6.69-10.8-6.56-51.56-6.56-51.56Z"/><path id="Path_1545" data-name="Path 1545" class="cls-3" d="M41.24,35.88c-.55-6.2,5-20.69,6.2-27.25C49.5-2.6,74.6-.94,85.37,2.86c7.21,2.26,30.11,15.37,31.77,36.65-2.41,22.13-4.34,4,5.27,33.62,17.58,23.47,2.25,40.7-9.3,62.54-9.31-3.21-33.24-10.48-43-18.44-6.54-5.33-11.47-14.44-18-19C22.76,75.74,41.82,44.09,41.31,36.91Z"/><path id="Path_1552" data-name="Path 1552" class="cls-2" d="M119.6,177.66a21.82,21.82,0,0,1,1.52,5.78,21.51,21.51,0,0,1-2.42,9.75c-5.43,12.72-15.61,30-17.77,43.63a11.52,11.52,0,0,0,0,4.82c.92,3.44,4.39,5.3,7.61,7a11,11,0,0,0,5.5,1.64c3.28-.21,5.6-3.21,7.42-5.94,7.06-10.53,9.22-24.75,15.11-36a155.21,155.21,0,0,0,8.78-19.19c2.34-4.64-.77-29.05-7.82-38.73,0,0-8.93-27.08-15.15-40.16S110.74,95.12,104.53,95.4c-12.09.58-10.35,24.85-9.47,29.4C97.56,137.56,117.06,170.77,119.6,177.66Z"/><path id="Path_1553" data-name="Path 1553" class="cls-3" d="M129.4,350.14a10.41,10.41,0,0,1-1.61,6.47,9.73,9.73,0,0,1-4.77,2.66c-9.18,2.89-87.2,5.83-101.77,3.12-5.67-20.92-5.87-43.05-3-64.55,1.12-8.37,2.78-16.91,7.21-24.09A14.21,14.21,0,0,1,30,268.86a17.77,17.77,0,0,1,9-1.68c22.49-.22,45.37-.75,67.72,2.44,6.88,1,10.62,3.16,13.06,10a173.83,173.83,0,0,1,7.3,33A237.56,237.56,0,0,1,129.4,350.14Z"/><path id="Path_1703" data-name="Path 1703" class="cls-1" d="M62.18,64.27s2.76,18.93-5.32,34.81,33.06,3.34,33.06,3.34S76.24,86.63,75.76,71.71,62.18,64.27,62.18,64.27Z"/><path id="Path_1554" data-name="Path 1554" class="cls-3" d="M21.3,362.39l3.48.6a25.83,25.83,0,0,0,2.44-1.42,13.19,13.19,0,0,0,4.7-4.45,13.94,13.94,0,0,0,1.19-6c.64-17.32-2.66-34.92.87-51.9,1.26-6.1,3.79-11.61,5.58-17.49,1.65-5.37-2-8.58-6.36-11.73a15.07,15.07,0,0,0-2.43-1.49l-.78.39a13.79,13.79,0,0,0-4.59,4.89c-4.45,7.18-6.1,15.72-7.23,24.1C15.42,319.32,15.6,341.47,21.3,362.39Z"/><path id="Path_1556" data-name="Path 1556" class="cls-1" d="M98,54.44a28.43,28.43,0,0,1-.8,9.59c-2.29,7.44-10.17,12.23-17.94,12.56a14.5,14.5,0,0,1-7.42-1.4,19,19,0,0,1-3.62-2.76c-5.44-5-10.44-10.92-12.1-18.1A35.11,35.11,0,0,1,55.44,46a33,33,0,0,1,2.07-12,21.42,21.42,0,0,1,16.82-12.8c7.55-1,14.59,2.84,20.1,7.57,2.75,2.3,2.29,7.05,2.68,10.58C97.53,44.39,97.87,49.42,98,54.44Z"/><path id="Path_1557" data-name="Path 1557" class="cls-2" d="M26.64,275.51A28,28,0,0,0,38.3,280.1a155.38,155.38,0,0,0,67.76-.11c4.59-1.08,9.85-2.78,11.87-7.14a16.66,16.66,0,0,0,1-7.5q-.78-36-1.61-72.05c-.6-27.31-1.19-54.71-5.21-81.72a45.85,45.85,0,0,0-6.52-15.65c-2.61-3.55-14.41-1.65-24.25-8-2.71-1.74,3.17,7.3-5.67,11s-19.37-14.34-25-7C47.57,96,37.63,93,34.49,97c-2.52,3.26-4.09,10.17-5.07,18.47-2.11,17.67-1.58,41.65-2,50.37-1.66,30.52.91,69.46-9.18,94.68C16,266,22.08,271.91,26.64,275.51Z"/><rect id="Rectangle_581" data-name="Rectangle 581" class="cls-4" x="93.7" y="234.85" width="22" height="36" rx="3" transform="translate(-160.96 187.15) rotate(-53.62)"/><path id="Path_1791" data-name="Path 1791" d="M118.43,239.27l-8.34,12.46s-.78.85-1.58.54a4.78,4.78,0,0,1-1.62-1.78Z"/><path id="Path_1573" data-name="Path 1573" class="cls-5" d="M82.82,29.77c6.15,3.68,13.76,2.92,21,2a18.78,18.78,0,0,0-6.08-11,25.32,25.32,0,0,0-7.89-5.19c-4-1.63-14.69-3.71-17.33,1.31C70.33,21,79.72,27.94,82.82,29.77Z"/><path id="Path_1681" data-name="Path 1681" class="cls-6" d="M46.63,488.09h16s6.29,15.14,8.45,24.58,3.75,8.9-8.45,8.91-17.2-17-17.2-17Z"/><path id="Path_1682" data-name="Path 1682" class="cls-6" d="M106.14,492.58H119s28.93,9.17,33.32,19-5.21,9.36-5.21,9.36l-41-11.62Z"/><path id="Path_1566" data-name="Path 1566" class="cls-1" d="M101.33,251.23a17.91,17.91,0,0,0,2.18,8.38,7.87,7.87,0,0,0,2.72,3.06,7,7,0,0,0,7.83-1,16.53,16.53,0,0,0,4.55-7,105.16,105.16,0,0,0,4.26-14.77,11.06,11.06,0,0,0,.46-3,6.31,6.31,0,0,0-5.74-5.35C108.22,230.68,101.22,243.36,101.33,251.23Z"/><path id="Path_1792" data-name="Path 1792" class="cls-7" d="M24.4,170.17l.06,53.29a26.26,26.26,0,0,1-1.4,7.18,7.07,7.07,0,0,1-3.24,3.62Z"/></g></svg>