<svg id="Laag_1" data-name="Laag 1" xmlns="http://www.w3.org/2000/svg" viewBox="0 0 153 549"><defs><style>.cls-1{fill:#f3bd8f;}.cls-2{fill:#bdb6cb;}.cls-3{fill:#2f2e41;}.cls-4{fill:#5c40d3;}</style></defs><title>illustrations-scaled</title><path id="Path_1706" data-name="Path 1706" class="cls-1" d="M25.84,273.87a12.58,12.58,0,0,1,7.39,5.77c2.42,4.58,3,9.41,6.2,16.29s-5.38,5.85-9.73,7.87-8.27,3.51-10.26,2.76S6.56,282.77,8,278.74C8.74,276.91,21.17,271,25.84,273.87Z"/><path id="Path_1564" data-name="Path 1564" class="cls-2" d="M16.05,288.6C-9.17,277.87,2.48,220.5,4,214.2a357.9,357.9,0,0,1,8.33-56.4c2.35-10.15,5.41-20.68,12.83-28,11-10.86,29.76-9.92,30.17,7.23C55.62,145.47,35.22,204,35.22,204S32.84,294.87,16.05,288.6Z"/><path id="Path_1543" data-name="Path 1543" class="cls-1" d="M121,387.11l1,133.62-14.09,1.33S94.44,450.4,96.62,441.64,84.92,399.15,85.38,391a27.5,27.5,0,0,1,5.48-14.22Z"/><path id="Path_1544" data-name="Path 1544" class="cls-1" d="M62.27,387.11s2.18,58.1,0,63.19,0,66.47,0,66.47H46.53s-14.34-64.22-8-80.67c-6.68-10.8-6.56-51.56-6.56-51.56Z"/><path id="Path_1545" data-name="Path 1545" class="cls-3" d="M41.27,63.3c-.55-6.2,5-20.69,6.2-27.26,2.07-11.22,27.17-9.57,37.93-5.76,7.21,2.26,30.11,15.37,31.78,36.64-2.41,22.14-4.35,4,5.27,33.63,17.57,23.47,2.25,40.7-9.3,62.54-9.32-3.21-33.25-10.48-43-18.45-6.54-5.32-11.48-14.43-18-19-29.37-22.48-10.3-54.13-10.81-61.31Z"/><path id="Path_1552" data-name="Path 1552" class="cls-2" d="M117,207.73a22.14,22.14,0,0,1,1,5.88,21.38,21.38,0,0,1-3.19,9.52c-6.44,12.25-18,28.63-21.22,42.06a11.51,11.51,0,0,0-.42,4.81c.63,3.5,4,5.63,7,7.61a11.1,11.1,0,0,0,5.36,2.08c3.28.05,5.83-2.75,7.87-5.33,7.89-9.93,11.18-23.93,18-34.65a156.69,156.69,0,0,0,10.29-18.43c2.71-4.44,1.57-29-4.68-39.23,0,0-6.72-27.71-11.86-41.25s-10.36-16.06-16.56-16.28c-12.11-.4-12.32,23.94-11.81,28.54C98.3,166,115.05,200.65,117,207.73Z"/><path id="Path_1553" data-name="Path 1553" class="cls-3" d="M129.44,377.56a10.47,10.47,0,0,1-1.61,6.47,9.73,9.73,0,0,1-4.77,2.66c-9.18,2.89-87.2,5.83-101.77,3.12-5.67-20.92-5.88-43.05-3-64.55,1.12-8.37,2.77-16.91,7.2-24.09a14.23,14.23,0,0,1,4.59-4.89,17.77,17.77,0,0,1,9-1.68c22.49-.22,45.37-.75,67.72,2.44,6.88,1,10.62,3.16,13,10a173.06,173.06,0,0,1,7.3,33A237.57,237.57,0,0,1,129.44,377.56Z"/><path id="Path_1703" data-name="Path 1703" class="cls-1" d="M62.21,91.69S65,110.62,56.89,126.5,90,129.84,90,129.84,76.27,114.05,75.79,99.13,62.21,91.69,62.21,91.69Z"/><path id="Path_1744" data-name="Path 1744" d="M63.63,89.41,63,95.51s3.4,10,13.19,9.2,10.41-10,10.41-10Z"/><path id="Path_1554" data-name="Path 1554" class="cls-3" d="M21.33,389.81l3.49.6A28,28,0,0,0,27.25,389a13.11,13.11,0,0,0,4.7-4.45,13.65,13.65,0,0,0,1.19-6c.65-17.32-2.66-34.92.88-51.9,1.26-6.1,3.78-11.62,5.57-17.49,1.65-5.37-2-8.58-6.35-11.73a15.16,15.16,0,0,0-2.44-1.49l-.78.39a13.85,13.85,0,0,0-4.58,4.89c-4.46,7.18-6.1,15.72-7.23,24.1C15.46,346.74,15.64,368.88,21.33,389.81Z"/><path id="Path_1556" data-name="Path 1556" class="cls-1" d="M98.07,81.86a29,29,0,0,1-.8,9.59C95,98.89,87.1,103.68,79.32,104a14.26,14.26,0,0,1-7.41-1.4,19.38,19.38,0,0,1-3.63-2.75c-5.43-5-10.44-10.92-12.09-18.1a34.6,34.6,0,0,1-.71-8.31,32.71,32.71,0,0,1,2.06-12,21.44,21.44,0,0,1,16.82-12.8c7.55-1,14.6,2.84,20.1,7.57,2.76,2.3,2.3,7,2.69,10.58C97.56,71.81,97.91,76.84,98.07,81.86Z"/><path id="Path_1557" data-name="Path 1557" class="cls-2" d="M26.68,302.93a28,28,0,0,0,11.65,4.59,155.42,155.42,0,0,0,67.77-.11c4.59-1.08,9.84-2.78,11.86-7.14a16.52,16.52,0,0,0,1-7.5q-.78-36-1.6-72c-.6-27.31-1.2-54.71-5.21-81.72a45.85,45.85,0,0,0-6.52-15.65c-2.62-3.55-14.41-1.65-24.26-8-2.7-1.74,3.17,7.3-5.66,11s-19.37-14.34-25-7c-3.14,4.09-13.08,1.06-16.22,5.12-2.53,3.26-4.09,10.17-5.08,18.47-2.11,17.67-1.58,41.65-2,50.37-1.65,30.52.92,69.46-9.18,94.68C16.08,293.41,22.11,299.33,26.68,302.93Z"/><rect id="Rectangle_581" data-name="Rectangle 581" class="cls-4" x="82.55" y="261.28" width="22" height="36" rx="3" transform="translate(-178.6 166.66) rotate(-49)"/><path id="Path_1573" data-name="Path 1573" class="cls-3" d="M82.85,57.19c6.15,3.67,13.77,2.92,21,2a18.78,18.78,0,0,0-6.08-11A25.49,25.49,0,0,0,89.85,43c-4-1.63-14.68-3.72-17.32,1.31C70.37,48.43,79.75,55.36,82.85,57.19Z"/><path id="Path_1681" data-name="Path 1681" class="cls-3" d="M46.67,515.5h16s6.28,15.15,8.44,24.59,3.76,8.9-8.44,8.91-17.2-17-17.2-17Z"/><path id="Path_1682" data-name="Path 1682" class="cls-3" d="M106.18,520h12.88s28.94,9.17,33.32,19-5.2,9.36-5.2,9.36l-41-11.62Z"/><path id="Path_1566" data-name="Path 1566" class="cls-1" d="M90.33,277.39c-.7,5.12.3,5.86,1.49,8.54a7.92,7.92,0,0,0,2.46,3.26,7,7,0,0,0,7.89-.37,16.52,16.52,0,0,0,5.1-6.57,106.31,106.31,0,0,0,5.43-14.37,11,11,0,0,0,.7-3,6.29,6.29,0,0,0-5.29-5.79c-5.52-1-9.07,1.8-13.52,6.38C99.78,269.5,91,272.28,90.33,277.39Z"/></svg>