<svg id="Laag_1" data-name="Laag 1" xmlns="http://www.w3.org/2000/svg" viewBox="0 0 153 549"><defs><style>.cls-1{fill:#e2d3ff;}.cls-2{fill:#5c40d3;}.cls-3{fill:#2f2e41;}</style></defs><title>illustrations-scaled</title><path id="Path_1706" data-name="Path 1706" class="cls-1" d="M25.75,273.86a12.53,12.53,0,0,1,7.36,5.78c2.41,4.58,3,9.41,6.19,16.29s-5.37,5.85-9.7,7.87-8.24,3.51-10.23,2.76S6.54,282.77,8,278.74C8.71,276.91,21.1,271,25.75,273.86Z"/><path id="Path_1564" data-name="Path 1564" class="cls-2" d="M16,288.6C-9.14,277.87,2.47,220.5,4,214.2a357.84,357.84,0,0,1,8.3-56.4c2.34-10.15,5.39-20.68,12.78-28,11-10.86,29.66-9.92,30.07,7.23C55.43,145.47,35.1,204,35.1,204S32.72,294.87,16,288.6Z"/><path id="Path_1543" data-name="Path 1543" class="cls-1" d="M120.57,387.1l1,133.63-14,1.33s-13.37-71.66-11.2-80.42S84.62,399.15,85.08,391a27.57,27.57,0,0,1,5.47-14.22Z"/><path id="Path_1544" data-name="Path 1544" class="cls-1" d="M62.05,387.1s2.18,58.1,0,63.2,0,66.47,0,66.47H46.37s-14.29-64.22-8-80.67c-6.66-10.8-6.54-51.56-6.54-51.56Z"/><path id="Path_1545" data-name="Path 1545" class="cls-3" d="M42.19,61.39c3.54-11,9.57-27,29.22-27s40.76-10,42.42,11.3c-2.41,22.13-56.07,40-56.57,32.82C57.26,78.5,38.65,72.43,42.19,61.39Z"/><path id="Path_1552" data-name="Path 1552" class="cls-2" d="M116.63,207.73a22.14,22.14,0,0,1,1,5.88,21.37,21.37,0,0,1-3.18,9.52c-6.42,12.25-17.91,28.63-21.15,42.06a11.51,11.51,0,0,0-.41,4.81c.63,3.5,3.93,5.63,7,7.61a11,11,0,0,0,5.33,2.08c3.28.05,5.82-2.75,7.85-5.33,7.86-9.93,11.14-23.93,17.89-34.65a156.47,156.47,0,0,0,10.26-18.43c2.7-4.44,1.57-29-4.66-39.23,0,0-6.7-27.71-11.83-41.25s-10.31-16.06-16.5-16.28c-12.06-.4-12.27,23.94-11.77,28.54C98,166,114.65,200.65,116.63,207.73Z"/><path id="Path_1553" data-name="Path 1553" class="cls-3" d="M129,377.56c.18,2.27-1.07,106.53-2.29,108.45-1.3,1.33-26.86-.41-28.66,0-4.65,1.47-22.62-129.5-22.62-129.5l-13.6,136s-18.9,4.5-22.89,3.75c-.35-1.3-18.4-109.09-18.77-110.65-4.61-19.5-4.63-40.22-2-60.39,1.12-8.38,2.77-16.91,7.18-24.09A14.21,14.21,0,0,1,30,296.28a17.6,17.6,0,0,1,9-1.68c22.41-.23,45.21-.75,67.49,2.43,6.86,1,10.58,3.17,13,10a173.59,173.59,0,0,1,7.27,33A237.56,237.56,0,0,1,129,377.56Z"/><path id="Path_1703" data-name="Path 1703" class="cls-1" d="M62,91.69s2.75,18.93-5.31,34.81,33,3.34,33,3.34S76,114.05,75.53,99.13,62,91.69,62,91.69Z"/><path id="Path_1554" data-name="Path 1554" class="cls-3" d="M21.26,389.81l3.47.6c.83-.43,1.64-.91,2.43-1.42a13.05,13.05,0,0,0,4.68-4.45,13.79,13.79,0,0,0,1.19-6c.64-17.32-2.65-34.92.87-51.9,1.26-6.1,3.77-11.62,5.56-17.49,1.64-5.37-2-8.58-6.34-11.73a15.42,15.42,0,0,0-2.42-1.49l-.78.39a13.82,13.82,0,0,0-4.57,4.89c-4.44,7.18-6.08,15.72-7.21,24.1C15.4,346.74,15.59,368.88,21.26,389.81Z"/><path id="Path_1556" data-name="Path 1556" class="cls-1" d="M97.73,81.86a29,29,0,0,1-.8,9.59C94.64,98.89,86.8,103.68,79.05,104a14.17,14.17,0,0,1-7.39-1.4,18.93,18.93,0,0,1-3.61-2.75c-5.42-5-10.41-10.92-12-18.1a34.6,34.6,0,0,1-.71-8.31,32.71,32.71,0,0,1,2.06-12,21.35,21.35,0,0,1,16.76-12.8c7.52-1,14.54,2.84,20,7.57,2.74,2.3,2.28,7,2.67,10.58C97.22,71.81,97.57,76.84,97.73,81.86Z"/><path id="Path_1557" data-name="Path 1557" class="cls-2" d="M26.59,302.93a27.84,27.84,0,0,0,11.61,4.59,154.34,154.34,0,0,0,67.53-.11c4.57-1.08,9.81-2.78,11.82-7.14a16.52,16.52,0,0,0,1-7.5q-.78-36-1.6-72c-.6-27.31-1.19-54.71-5.19-81.72a46,46,0,0,0-6.5-15.65c-2.6-3.55-14.36-1.65-24.17-8-2.7-1.74,3.16,7.3-5.65,11s-19.3-14.34-24.88-7c-3.13,4.09-13,1.06-16.16,5.12-2.52,3.26-4.07,10.17-5.06,18.47-2.1,17.67-1.57,41.65-2,50.37-1.65,30.52.91,69.46-9.15,94.68C16,293.41,22,299.33,26.59,302.93Z"/><path id="Rectangle_581" data-name="Rectangle 581" class="cls-3" d="M74.46,273.51l10.46-12.08a3,3,0,0,1,4.22-.29l22.56,19.68a3,3,0,0,1,.3,4.23l-10.46,12.08a3,3,0,0,1-4.22.29L74.76,277.74A3,3,0,0,1,74.46,273.51Z"/><path id="Path_1573" data-name="Path 1573" class="cls-3" d="M82.57,57.19c6.12,3.67,13.72,2.92,20.9,2a18.8,18.8,0,0,0-6.06-11A25.35,25.35,0,0,0,89.54,43c-4-1.63-14.63-3.72-17.26,1.31C70.13,48.43,79.48,55.36,82.57,57.19Z"/><path id="Path_1681" data-name="Path 1681" class="cls-3" d="M46.51,515.5h16s6.27,15.15,8.42,24.59S74.66,549,62.5,549s-17.14-17-17.14-17Z"/><path id="Path_1682" data-name="Path 1682" class="cls-3" d="M105.81,520h12.84s28.83,9.16,33.2,19-5.18,9.36-5.18,9.36l-40.86-11.62Z"/><path id="Path_1566" data-name="Path 1566" class="cls-1" d="M90,277.39c-.69,5.12.31,5.86,1.5,8.54A7.87,7.87,0,0,0,94,289.19a7,7,0,0,0,7.87-.37,16.57,16.57,0,0,0,5.08-6.57,107.57,107.57,0,0,0,5.41-14.37,11.32,11.32,0,0,0,.7-3,6.29,6.29,0,0,0-5.28-5.79c-5.49-1-9,1.8-13.47,6.38C99.43,269.5,90.7,272.28,90,277.39Z"/></svg>