<svg id="Laag_1" data-name="Laag 1" xmlns="http://www.w3.org/2000/svg" viewBox="0 0 85 85"><defs><style>.cls-1{fill:#5c40d3;}</style></defs><title>illustrations-scaled</title><g id="Group_368" data-name="Group 368"><g id="Group_354" data-name="Group 354"><path id="Path_2340" data-name="Path 2340" class="cls-1" d="M12.64,80.09H31.71V58c0-2.11.23-2.33,2.36-2.33,5,0,10.11,0,15.17,0,1.54,0,2.09.55,2.08,2.11-.07,6.7,0,13.41,0,20.12V80H70.48V78c0-9.61.12-23.72.12-33.32a5.52,5.52,0,0,1,.06-1.52c.09-.31.51-.76.75-.74a1.65,1.65,0,0,1,1,.65c.17.23.09.66.09,1,0,10.51-.14,25.53-.09,36,0,1.52-.57,2-2,1.95-6.31,0-12.62-.07-18.93,0-1.61,0-2.18-.46-2.16-2.13.08-6.76,0-13.53,0-20.29v-2c-.6-.06-1.09-.15-1.58-.15-4.15,0-8.3,0-12.45,0-1.36,0-1.76.44-1.75,1.77.06,6.93,0,13.86.06,20.8,0,1.55-.46,2.06-2,2-6.3-.07-12.61-.06-18.92,0-1.45,0-2-.39-2-1.92.06-11.14.12-26.65.17-37.79,0-.55.6-1.09.92-1.64.31.57.9,1.14.91,1.71.05,10.29-.06,24.95-.06,35.24Z"/><path id="Path_2342" data-name="Path 2342" class="cls-1" d="M66.88,8.31H57.21c-.45,0,.38,11,0,10.79A8,8,0,0,1,55.58,18c.39-.3-.06-11.52.35-11.54,2.21-.08,4.42,0,6.63,0,1.59,0,3.18,0,4.76,0a1.33,1.33,0,0,1,1.57,1,1.49,1.49,0,0,1,0,.47c0,3.75.23,18.37.15,22.11,0,.49-.69,1-1,1.43-.27-.48-.76-1-.77-1.46C67.16,26.86,67,12.86,67,9.74,67,9.35,66.94,9,66.88,8.31Z"/><path id="Path_2343" data-name="Path 2343" class="cls-1" d="M56.72,7.78H67.58v21.5L56.21,18.18Z"/><path id="Path_2341" data-name="Path 2341" class="cls-1" d="M41.74,5C41,5.7,40.52,6.15,40,6.63,27.8,18.9,15.41,30.5,3.17,42.77c-.19.21-.4.41-.61.6-.65.53-1.25,1.77-2.2.83s.22-1.6.81-2.2C13.89,29.24,26.76,17.16,39.49,4.41c2-2,2.08-2,4-.06C56.25,17.1,71.22,31.46,83.94,44.22a4.17,4.17,0,0,1,.92,1c.15.34.21,1.05,0,1.16a1.65,1.65,0,0,1-1.32.13,4.36,4.36,0,0,1-1.12-1C70.08,33.1,55.47,19.1,43.12,6.71,42.64,6.22,42.25,5.65,41.74,5Z"/></g></g><g id="woning-2"><path id="Path_2344" data-name="Path 2344" class="cls-1" d="M1,44.17H11.83V80.83H32.37V56.41h18V80.83H71.26V46.21l12.73,0L41.5,4.17Z"/></g></svg>
